<svg width="1231" height="1064" viewBox="0 0 1231 1064" fill="none" xmlns="http://www.w3.org/2000/svg">
<path d="M635.969 500.107C622.969 509.107 604.769 525.807 590.169 546.907C557.269 594.707 558.169 645.407 559.469 664.107C565.469 680.207 566.5 745.407 584.5 766.107C595 778.207 619.669 751.507 645.969 762.707C654.769 766.507 662.469 768.607 668.069 769.807C672.869 765.507 674.2 767.007 679 762.707C663.6 744.707 643 776.407 627.5 756.907C615.6 742.007 612.669 670.807 601.669 656.207C602.069 643.907 604.669 621.607 618.069 598.307C625.669 585.107 634.569 575.507 641.669 569.007C639.269 546.907 638.369 522.307 635.969 500.107Z" fill="white" stroke="#161616" stroke-width="2" stroke-miterlimit="10"/>
<path d="M637 502.182C652.672 491.828 679.888 477.071 716.104 472.787C771.593 466.241 814.163 488.615 831 498.73C827.929 545.5 823.164 582.869 819.352 608.574C814.798 639.278 811.092 656.296 809.397 684.501C807.28 719.846 809.927 748.884 812.362 767.925C793.937 774.351 766.086 781.373 731.776 780.54C698.737 779.707 672.051 771.614 654.155 764.593C658.92 721.988 657.332 688.19 655.002 665.222C652.355 639.635 648.754 627.139 644.413 596.197C638.8 556.211 637.318 523.484 637 502.182Z" fill="white" stroke="#161616" stroke-width="2" stroke-miterlimit="10"/>
<path d="M1027.58 1047.61C703.807 998.608 379.947 949.608 56.1758 900.708C151.719 837.908 247.351 775.108 342.894 712.308C634.995 744.908 927.183 777.608 1219.28 810.208C1155.32 889.308 1091.45 968.508 1027.58 1047.61Z" fill="white" stroke="#161616" stroke-width="3" stroke-miterlimit="10"/>
<path d="M53 909.208C377.565 958.008 702.131 1006.81 1026.61 1055.61" stroke="#161616" stroke-width="16" stroke-miterlimit="10"/>
<path d="M1020.43 1057.81C1088.45 976.307 1156.47 894.708 1224.4 813.208" stroke="#161616" stroke-width="16" stroke-miterlimit="10"/>
<path d="M954.83 834.628C929.166 857.358 904.05 880.785 879.344 904.833C878.318 905.841 879.823 907.47 880.781 906.462C905.487 882.414 930.671 858.987 956.267 836.257C957.293 835.404 955.856 833.698 954.83 834.628Z" fill="#161616"/>
<path d="M880.303 906.073C888.378 908.013 896.59 908.013 904.871 908.09C914.179 908.245 922.938 909.331 931.835 912.279C948.534 917.787 964.89 921.433 982.341 920.967C983.641 920.967 983.641 918.64 982.341 918.64C973.376 918.873 964.411 918.252 955.514 916.623C947.165 915.072 939.226 912.279 931.082 909.719C923.281 907.237 915.479 906.073 907.335 905.918C898.438 905.685 889.542 905.996 880.782 903.901C879.55 903.513 879.002 905.763 880.303 906.073Z" fill="#161616"/>
<path d="M956.335 836.335C983.435 838.817 1010.33 843.704 1036.75 850.996C1038.05 851.384 1038.6 849.134 1037.29 848.746C1010.74 841.377 983.641 836.49 956.335 834.007C955.034 833.852 955.034 836.179 956.335 836.335Z" fill="#161616"/>
<path d="M983.917 919.572C1003.01 898.161 1021.35 875.82 1038.73 852.548C1039.56 851.384 1038.12 849.755 1037.3 850.919C1019.91 874.113 1001.57 896.455 982.48 917.943C981.522 919.029 982.959 920.658 983.917 919.572Z" fill="#161616"/>
<path d="M904.188 896.843C927.73 893.584 951.546 896.92 973.651 906.694C974.883 907.237 975.43 904.988 974.198 904.445C951.957 894.67 927.867 891.257 904.188 894.515C902.888 894.67 902.888 896.998 904.188 896.843Z" fill="#161616"/>
<path d="M939.841 888.309C954.349 889.55 968.653 892.11 982.819 895.911C984.119 896.299 984.667 894.05 983.366 893.662C969.063 889.783 954.555 887.223 939.841 885.982C938.472 885.904 938.541 888.232 939.841 888.309Z" fill="#161616"/>
<path d="M928.96 871.166C950.791 871.709 972.417 875.277 993.495 881.871C994.795 882.259 995.343 880.009 994.043 879.621C972.827 873.027 950.996 869.381 928.96 868.838C927.659 868.838 927.659 871.166 928.96 871.166Z" fill="#161616"/>
<path d="M956.062 864.029C967.833 865.89 979.467 868.218 991.101 871.01C992.402 871.321 992.949 869.071 991.649 868.761C980.015 865.968 968.38 863.641 956.609 861.779C955.309 861.546 954.762 863.796 956.062 864.029Z" fill="#161616"/>
<path d="M941.075 916.08C936.9 923.372 932.725 930.664 928.482 937.879C928.072 938.577 928.619 939.74 929.372 939.663C963.111 935.319 997.329 937.801 1030.32 946.955C1031.62 947.343 1032.16 945.093 1030.86 944.705C997.671 935.474 963.316 932.992 929.372 937.258C929.646 937.879 929.988 938.422 930.262 939.042C934.436 931.75 938.611 924.458 942.854 917.244C943.607 916.003 941.827 914.839 941.075 916.08Z" fill="#161616"/>
<path d="M1023.81 872.019C1037.02 871.709 1050.16 871.398 1063.37 871.088C1063.03 870.623 1062.69 870.079 1062.41 869.614C1053.31 894.205 1044.14 918.718 1035.04 943.309C1034.56 944.705 1036.54 945.326 1037.02 943.93C1046.12 919.339 1055.3 894.826 1064.4 870.235C1064.67 869.536 1063.99 868.761 1063.44 868.761C1050.23 869.071 1037.09 869.381 1023.88 869.692C1022.51 869.769 1022.51 872.096 1023.81 872.019Z" fill="#161616"/>
<path d="M973.787 929.811C977.277 929.035 980.768 928.88 984.326 929.19C985.627 929.268 985.627 926.941 984.326 926.863C980.562 926.553 976.935 926.785 973.24 927.561C971.939 927.794 972.487 930.043 973.787 929.811Z" fill="#161616"/>
<path d="M993.221 930.044C1003.97 930.509 1014.71 931.673 1025.39 933.535C1026.69 933.767 1027.23 931.518 1025.93 931.285C1015.12 929.346 1004.17 928.182 993.221 927.717C991.921 927.639 991.921 929.966 993.221 930.044Z" fill="#161616"/>
<path d="M993.84 915.46C996.373 915.46 998.905 915.46 1001.51 915.46C1002.81 915.46 1002.81 913.133 1001.51 913.133C998.973 913.133 996.441 913.133 993.84 913.133C992.54 913.133 992.54 915.46 993.84 915.46Z" fill="#161616"/>
<path d="M1009.78 915.227C1018.2 915.46 1026.55 916.391 1034.9 917.942C1036.2 918.175 1036.75 915.925 1035.45 915.693C1026.96 914.141 1018.41 913.21 1009.78 912.9C1008.48 912.9 1008.48 915.227 1009.78 915.227Z" fill="#161616"/>
<path d="M1008.48 901.962C1018.06 902.117 1027.58 902.738 1037.09 903.979C1038.39 904.134 1038.39 901.807 1037.09 901.652C1027.58 900.41 1018.06 899.712 1008.48 899.635C1007.18 899.557 1007.18 901.884 1008.48 901.962Z" fill="#161616"/>
<path d="M944.221 927.717C948.807 927.872 953.323 927.251 957.84 926.01C959.14 925.622 958.593 923.373 957.293 923.761C952.981 925.002 948.67 925.545 944.221 925.39C942.921 925.39 942.921 927.717 944.221 927.717Z" fill="#161616"/>
<path d="M958.83 806.791C957.014 809.326 954.917 814.474 957.083 817.563C958.411 819.463 960.926 819.067 962.813 819.147C966.236 819.305 969.66 819.543 973.084 819.701C986.988 820.414 1000.82 821.206 1014.73 821.919C1016.05 821.998 1016.05 819.622 1014.73 819.543C1004.46 818.988 994.255 818.434 983.984 817.879C978.953 817.642 973.992 817.325 968.961 817.087C966.516 816.929 963.931 817.087 961.485 816.691C959.669 816.375 958.341 816.295 958.411 813.761C958.481 811.781 959.249 809.959 960.297 808.455C961.136 807.267 959.669 805.524 958.83 806.791Z" fill="#161616"/>
<path d="M960.716 809.801C972.455 810.276 984.193 810.672 995.931 811.147C1001.66 811.385 1007.46 811.543 1013.19 811.781C1018.36 812.018 1023.81 812.414 1027.51 816.929C1028.42 818.038 1029.89 816.374 1028.98 815.266C1026.19 811.781 1022.41 810.434 1018.36 809.801C1012.35 808.93 1006.13 809.088 1000.05 808.851C986.918 808.375 973.782 807.821 960.716 807.346C959.389 807.425 959.389 809.801 960.716 809.801Z" fill="#161616"/>
<path d="M1014.03 821.998C1019.41 822.077 1024.51 820.177 1028.84 816.533C1029.89 815.662 1028.84 813.603 1027.79 814.474C1023.74 817.88 1019.13 819.701 1014.03 819.622C1012.63 819.622 1012.63 821.998 1014.03 821.998Z" fill="#161616"/>
<path d="M1015.7 809.801C1012.77 812.019 1011.44 816.137 1012.42 819.939C1012.77 821.364 1014.8 820.81 1014.45 819.305C1013.75 816.533 1014.59 813.444 1016.75 811.781C1017.87 810.989 1016.82 808.93 1015.7 809.801Z" fill="#161616"/>
<path d="M135.698 363.549C142.698 371.408 149.298 379.881 154.998 389.214C158.798 395.353 162.698 407.633 169.498 409.352C173.498 410.334 176.698 407.756 179.698 404.809C183.798 400.756 187.798 396.581 191.898 392.406C195.998 388.231 199.998 384.179 204.098 380.004C206.998 377.057 210.298 374.355 210.498 369.32C210.698 364.531 208.198 360.97 205.898 357.409C202.698 352.375 199.398 347.34 196.198 342.305C192.998 337.271 189.698 332.236 186.498 327.201C184.098 323.517 181.898 318.606 177.898 317.5C174.298 316.518 170.998 319.097 167.998 321.062C163.998 323.64 160.098 326.587 156.398 329.657C149.098 335.797 142.298 342.797 136.098 350.655C134.198 353.111 134.398 357.655 136.998 359.374C143.498 363.426 149.698 368.215 155.298 374.11C157.798 376.688 160.198 379.513 162.498 382.46C163.598 383.933 164.698 385.407 165.798 387.003C166.498 387.986 167.198 389.091 167.898 390.073C168.798 393.02 170.098 392.897 171.698 389.459C172.098 392.775 172.398 396.213 172.798 399.528C183.198 391.792 192.698 382.214 200.898 371.162C204.298 366.496 199.998 359.374 195.398 362.444C188.398 367.11 181.198 370.917 173.698 373.864C175.398 376.565 177.098 379.267 178.798 381.969C182.998 373.741 188.198 366.619 194.298 360.356C191.898 358.146 189.598 355.936 187.198 353.603C181.698 363.672 174.798 372.513 166.898 379.758C169.098 381.846 171.298 383.933 173.498 386.021C176.098 374.478 181.398 364.286 189.298 357.041C187.198 354.462 185.198 352.006 183.098 349.428C178.598 360.356 172.298 369.689 164.198 376.811C165.698 376.811 167.198 376.811 168.698 376.811C168.998 377.179 169.198 377.671 169.498 378.039C169.698 377.057 169.898 376.074 170.098 375.215C170.398 373.987 170.698 372.759 171.098 371.408C171.998 368.093 173.198 365.023 174.498 361.953C176.998 356.181 180.098 351.147 183.798 346.48C181.398 344.27 179.098 342.06 176.698 339.727C171.398 353.111 164.098 364.777 154.898 374.601C157.498 375.952 159.998 377.179 162.598 378.53C163.698 364.04 168.798 350.778 177.098 340.341C174.698 338.13 172.398 335.92 169.998 333.587C165.898 343.41 159.898 351.147 152.098 356.672C154.398 358.269 156.598 359.865 158.898 361.462C158.798 357.041 159.298 352.743 160.998 348.814C161.698 347.094 162.598 345.498 163.598 344.147C165.198 341.814 168.198 341.2 165.398 338.99C164.098 337.025 163.398 337.148 163.298 339.604C162.798 340.832 162.398 342.06 161.898 343.288C161.098 345.13 160.298 346.849 159.498 348.568C158.598 350.287 157.698 352.006 156.698 353.603C155.898 354.831 155.198 356.058 154.298 357.286C152.898 358.269 152.798 359.006 153.998 359.374C154.698 360.479 155.398 361.584 156.098 362.689C155.098 358.76 158.398 351.392 159.898 348.077C160.798 346.235 165.998 335.674 168.298 336.288C169.398 336.534 170.898 343.41 171.298 344.638C172.098 347.34 172.798 350.164 173.298 352.989C173.798 355.813 174.398 358.76 174.398 361.584C174.398 364.9 174.398 365.023 172.198 362.689C165.898 356.058 165.198 339.235 174.498 335.429C179.198 333.464 180.598 340.832 181.698 345.007C183.298 351.024 184.798 357.164 186.398 363.303C188.898 361.462 191.398 359.742 193.898 357.9C188.298 351.147 185.298 342.551 185.098 332.85C183.198 334.569 181.298 336.411 179.398 338.13C189.898 343.042 191.598 359.251 192.998 371.04C193.798 378.039 202.498 375.092 201.698 368.093C199.698 351.392 195.998 333.955 181.798 327.447C179.098 326.219 175.998 329.412 176.098 332.727C176.298 345.252 180.298 356.672 187.498 365.514C190.598 369.321 196.398 365.514 194.998 360.111C193.198 353.111 191.598 346.112 189.598 339.235C188.198 334.324 186.398 329.166 182.698 326.219C174.698 319.711 165.298 327.079 161.198 336.043C156.498 346.48 157.698 359.497 164.098 368.338C169.398 375.583 179.698 379.513 182.598 367.356C185.198 356.55 180.698 340.586 176.298 331.254C170.298 318.728 160.398 328.184 155.298 336.288C152.598 340.586 150.498 345.252 148.998 350.287C147.598 354.953 145.298 362.567 148.098 367.11C154.698 377.671 164.198 359.742 167.098 353.848C169.598 348.936 173.198 342.183 172.598 336.043C171.998 330.271 167.598 327.57 163.398 329.78C154.198 334.692 149.498 349.796 149.898 361.216C149.998 365.391 153.598 368.093 156.698 366.005C165.698 359.62 172.998 350.287 177.798 338.99C180.098 333.587 174.398 327.693 170.698 332.236C160.698 344.761 154.898 360.725 153.598 378.162C153.198 383.319 158.598 384.916 161.298 382.091C170.998 371.776 178.898 359.128 184.498 345.007C186.598 339.604 181.198 333.587 177.398 338.253C171.598 345.621 166.998 354.094 163.798 363.549C161.698 369.812 157.298 381.723 164.098 386.021C165.498 386.88 167.298 387.126 168.598 386.021C177.998 377.793 185.598 367.356 190.798 354.708C192.598 350.287 188.598 343.533 184.598 347.094C174.798 356.181 167.898 368.215 164.698 382.705C163.698 387.003 167.998 391.915 171.298 388.968C180.598 380.618 188.398 370.671 194.898 358.883C197.898 353.357 191.498 348.445 187.798 352.129C181.098 358.883 175.498 366.865 170.898 375.952C168.798 380.004 172.298 385.53 175.998 384.056C184.298 380.863 192.298 376.688 199.898 371.531C198.098 368.584 196.298 365.759 194.398 362.812C186.698 373.25 177.898 382.214 168.098 389.459C164.498 392.161 165.698 397.809 169.198 399.528C173.398 401.616 177.898 397.441 178.098 392.161C178.398 385.775 172.998 379.758 169.798 375.583C161.698 364.777 151.998 355.936 141.398 349.428C141.698 352.375 141.998 355.199 142.298 358.146C146.998 352.252 151.998 346.849 157.298 341.937C162.098 337.516 168.098 331.622 173.798 329.289C175.498 328.552 175.398 328.184 176.798 329.903C178.198 331.622 179.298 333.71 180.398 335.552C182.598 338.99 184.898 342.551 187.098 345.989C189.498 349.796 191.998 353.603 194.398 357.409C195.698 359.497 200.998 365.759 200.598 368.093C200.198 370.794 194.698 374.724 192.898 376.565C190.098 379.39 187.298 382.214 184.498 385.038C181.698 387.863 178.898 390.687 176.098 393.511C174.898 394.739 172.298 398.3 170.198 396.95C169.398 396.458 167.998 392.775 167.498 391.915C160.198 378.407 151.498 366.251 141.798 355.322C137.798 351.024 131.398 358.76 135.698 363.549Z" fill="#20a5a0"/>
<path d="M140.5 353.725C144.1 362.321 166.7 410.212 176.3 393.88C179.7 388.108 171.9 382.582 168.5 388.354C168.3 388.599 168.2 388.968 168 389.213C169.3 388.354 170.6 387.371 171.9 386.512C170.2 386.757 166.1 379.758 165 378.162C162.8 375.092 160.6 372.022 158.6 368.706C154.7 362.198 151.3 355.322 148.3 348.199C145.7 341.814 137.9 347.463 140.5 353.725Z" fill="#20a5a0"/>
<path d="M319.4 202.072C308.7 192.494 304.6 172.846 311.3 158.479C314.6 151.357 320.6 145.586 327.6 146.568C334.8 147.55 338.3 153.936 338.8 162.286C339.1 166.952 338.7 171.741 338.6 176.407C338.4 180.828 338.8 185.986 337.8 190.283C336.8 194.581 333.2 196.914 331.8 201.212C330.6 204.896 331.9 208.089 328.4 209.317C327.4 209.685 326 209.562 325.1 209.931C323.5 209.685 323.5 210.054 325.1 210.913C324.7 209.317 324.4 207.843 324 206.247C322.7 200.844 321.4 195.318 320.1 189.915C317.9 180.828 313.3 167.443 319.1 158.97C316.7 159.339 314.3 159.707 311.8 160.076C315.3 163.268 314 176.285 314.2 180.705C314.5 189.915 314.8 199.125 315.1 208.334C315.4 218.035 326.3 217.667 327.1 208.334C327.9 198.634 326.8 189.055 326.5 179.232C326.3 175.057 326.3 170.759 326.8 166.584C327 164.496 327.4 162.531 327.9 160.567C328.2 159.216 328.7 157.865 329.2 156.637C330.3 154.55 330.3 154.304 329.3 155.9C327.8 156.146 326.2 156.392 324.7 156.637C324.4 156.514 325.8 161.058 326 162.04C326.4 163.882 326.6 165.847 326.8 167.689C327.2 172.846 327.2 178.127 327 183.284C326.9 185.617 326.7 187.95 326.4 190.406C326.2 191.88 326 193.353 325.8 194.827C324.8 197.774 326.5 198.511 330.9 196.669C331.3 195.686 330.2 191.757 330.1 190.652C329.9 188.073 329.8 185.372 329.9 182.793C330 177.758 330.5 172.969 331.5 168.057C331.8 166.584 332.1 165.233 332.5 163.759C334 160.567 332.4 159.462 327.7 160.567C327.3 161.426 328.9 166.093 329.1 166.952C330 172.11 330.2 177.39 329.8 182.67C329.6 185.126 329.4 193.108 327.1 193.722C319.6 195.932 322.8 210.176 330.3 207.966C338.2 205.633 340.4 195.809 341.4 187.091C342.5 176.776 342.1 165.11 338.9 155.409C335.8 146.077 326.7 145.954 322.7 154.55C318.7 163.145 317.8 175.302 317.9 185.003C318 192.862 318.1 206.37 325.8 209.194C334.3 212.264 337.3 200.967 338.2 193.108C339.4 182.793 339.7 172.232 338.3 161.917C337.3 154.304 333.3 139.691 324.8 142.516C316.6 145.094 315 162.654 314.6 171.004C314.1 183.53 316.3 195.932 315.3 208.457C319.3 208.457 323.3 208.457 327.3 208.457C326.9 196.055 326.5 183.652 326 171.25C325.7 161.795 324.5 153.445 318 147.55C316.1 145.708 312.3 146.445 310.7 148.655C304.1 158.234 303.6 170.022 305.9 181.81C307.1 188.196 308.8 194.581 310.3 200.844C311.7 206.738 312.5 213.86 315.1 219.018C319.2 227.368 330.6 225.403 336.5 221.105C339.6 218.895 341.7 215.211 342.5 210.913C343 208.212 342.8 207.106 344.2 204.896C345.8 202.44 347.4 200.475 348.4 197.528C350.1 192.862 350.2 187.705 350.4 182.793C350.6 176.653 351.1 170.39 351 164.128C350.8 153.199 347.9 142.884 340.2 136.621C325.4 124.587 306.8 135.762 299.8 153.936C291.6 175.425 298.2 200.844 313.5 214.597C319.6 220.368 325.6 207.598 319.4 202.072Z" fill="#FF1493"/>
<path d="M318.799 234.613C320.799 238.542 324.399 240.016 327.999 238.665C329.599 238.051 330.999 236.946 332.199 235.595C332.499 235.227 332.899 234.858 333.199 234.367C333.499 233.999 333.399 233.999 332.999 234.49C334.899 233.262 333.399 232.894 328.599 233.139C330.999 235.595 334.799 236.209 337.099 233.139C339.199 230.438 339.599 225.403 337.099 222.702C334.199 219.632 330.499 219.14 327.099 221.596C325.999 222.333 324.899 223.438 324.099 224.666C323.399 225.771 324.999 223.93 323.899 224.912C324.099 224.789 324.299 224.666 324.499 224.666C322.399 225.28 323.899 226.14 328.999 227.245C327.299 223.93 323.599 222.333 320.799 224.543C318.299 226.631 316.999 231.175 318.799 234.613Z" fill="#FF1493"/>
<path d="M321.6 244.314C321.6 244.682 321.6 245.051 321.6 245.419C321.6 247.261 322.3 249.348 323.4 250.576C324.4 251.804 326.1 252.787 327.6 252.787C329.2 252.664 330.8 252.05 331.8 250.576C332.9 249.103 333.6 247.384 333.6 245.419C333.6 245.051 333.6 244.682 333.6 244.314C333.6 242.472 332.9 240.384 331.8 239.156C330.8 237.928 329.1 236.946 327.6 236.946C326 237.069 324.4 237.683 323.4 239.156C322.3 240.507 321.6 242.226 321.6 244.314Z" fill="#FF1493"/>
<path d="M194.898 526.008C194.898 525.64 194.898 525.272 194.898 524.903C194.898 515.448 182.898 515.448 182.898 524.903C182.898 525.272 182.898 525.64 182.898 526.008C182.898 535.587 194.898 535.587 194.898 526.008C194.898 525.64 194.898 525.272 194.898 524.903C194.898 515.448 182.898 515.448 182.898 524.903C182.898 525.272 182.898 525.64 182.898 526.008C182.898 535.587 194.898 535.587 194.898 526.008Z" fill="#FF1493"/>
<path d="M99.0992 423.228C106.799 423.228 106.799 408.492 99.0992 408.492C91.3992 408.492 91.3992 423.228 99.0992 423.228Z" fill="#FF1493"/>
<path d="M126.2 429.736C132 429.736 132 418.685 126.2 418.685C120.4 418.685 120.4 429.736 126.2 429.736Z" fill="#20a5a0"/>
<path d="M493.7 149.024C499.5 149.024 499.5 137.972 493.7 137.972C487.9 137.972 487.9 149.024 493.7 149.024Z" fill="#20a5a0"/>
<path d="M550.1 316.027C550.1 316.764 550.1 317.378 550.1 318.114C550.1 319.588 550.6 321.061 551.4 322.044C552.2 323.026 553.5 323.763 554.6 323.64C555.8 323.517 557 323.149 557.8 322.044C558.6 320.939 559.1 319.588 559.1 318.114C559.1 317.378 559.1 316.764 559.1 316.027C559.1 314.553 558.6 313.08 557.8 312.097C557 311.115 555.7 310.378 554.6 310.501C553.4 310.624 552.2 310.992 551.4 312.097C550.6 313.202 550.1 314.553 550.1 316.027Z" fill="#20a5a0"/>
<path d="M513.799 228.35C530.799 231.666 554.599 241.367 548.299 268.627C545.399 281.153 537.399 290.117 529.499 298.098C521.699 305.835 513.999 313.448 506.899 322.166C500.099 330.517 493.899 339.604 488.199 349.182C483.699 356.795 477.499 366.25 478.199 376.442C478.799 385.529 485.299 387.74 491.199 390.564C499.699 394.616 508.699 401.738 511.999 412.667C516.399 427.403 507.199 440.419 498.499 449.138C490.699 456.997 482.199 463.751 476.899 474.557C475.899 476.644 478.499 478.486 479.499 476.399C488.999 456.751 513.199 448.892 515.899 424.087C516.999 414.387 513.399 405.3 507.699 398.791C504.899 395.476 501.599 392.774 498.199 390.441C494.099 387.74 489.299 386.635 485.299 383.81C474.099 375.828 488.099 355.444 492.899 347.708C499.799 336.534 507.499 326.219 515.999 316.886C529.599 301.66 550.899 288.152 552.399 262.733C553.899 236.946 531.399 228.227 514.799 225.035C512.699 224.421 511.899 227.982 513.799 228.35Z" fill="#161616"/>
<path d="M218.399 224.421C200.599 251.313 180.499 275.749 158.299 297.116C136.499 318.114 112.799 334.814 88.6986 351.392C66.4986 366.742 44.0987 382.459 25.0987 403.703C16.5987 413.158 7.19864 424.21 2.39864 437.349C-1.30136 447.541 -1.60136 460.803 7.89864 466.084C13.0986 468.908 19.1987 467.926 24.5987 466.821C33.3987 464.979 42.0987 462.645 50.7987 460.558C59.6987 458.47 68.5986 456.26 77.4986 454.173C85.9986 452.208 101.899 450.366 102.299 465.961C102.399 468.294 105.399 468.294 105.299 465.961C104.899 451.471 92.2987 447.787 82.5987 449.261C67.7987 451.594 53.1987 456.137 38.4986 459.576C28.1987 462.031 0.698647 472.224 2.69865 448.033C3.99865 432.438 15.9986 418.93 24.6986 408.738C43.0986 387.371 65.1986 371.531 87.1986 356.304C110.299 340.34 133.299 324.622 154.499 304.975C178.899 282.258 200.999 255.979 220.299 226.877C221.699 225.157 219.599 222.579 218.399 224.421Z" fill="#161616"/>
<path d="M59.2985 476.644C50.4985 489.661 40.1985 505.01 41.7985 523.061C42.9985 536.937 51.0985 549.954 63.2985 548.971C71.0985 548.357 77.9985 543.077 84.7985 539.025C93.2985 533.99 101.998 529.447 110.998 526.131C119.898 522.938 129.198 520.851 138.498 520.605C145.898 520.482 154.298 521.096 160.498 526.745C169.898 535.095 164.098 547.62 159.098 556.953C154.198 565.917 149.898 575.127 146.098 584.828C142.698 593.669 139.698 602.879 137.298 612.211C135.498 619.211 133.398 627.438 137.798 633.578C147.198 646.963 161.498 635.543 169.398 626.456C181.498 612.58 194.598 601.037 209.698 592.441C226.598 582.863 244.998 577.214 263.498 575.986C272.898 575.372 282.398 575.741 291.698 577.583C299.998 579.179 309.298 582.372 313.198 592.564C313.998 594.651 316.598 592.809 315.798 590.722C310.398 576.355 295.598 574.144 284.198 572.794C269.298 571.075 254.098 572.425 239.498 576.355C224.898 580.284 210.598 586.915 197.598 596.002C191.198 600.423 185.198 605.458 179.398 610.983C172.898 617.246 167.398 624.982 160.798 630.754C154.898 635.911 142.298 639.718 138.798 628.42C137.098 622.895 139.298 616.509 140.698 611.106C142.198 605.458 143.898 599.932 145.798 594.529C149.098 584.951 152.998 575.741 157.398 566.9C161.298 559.163 167.098 551.304 168.498 542.095C170.798 527.113 158.798 519.377 148.498 517.535C133.198 514.957 116.998 519.255 102.598 525.64C93.7985 529.569 85.4985 534.604 77.0985 539.639C68.3985 544.919 57.5985 548.971 50.1985 538.534C36.3985 519.132 50.8985 494.695 61.3985 479.1C62.6985 477.381 60.5985 474.802 59.2985 476.644Z" fill="#161616"/>
<path d="M116.798 538.779C126.198 535.095 134.498 546.393 134.698 557.321C134.898 568.864 128.698 578.811 122.498 586.67C121.098 588.389 123.298 590.968 124.598 589.248C132.198 579.67 140.098 566.04 137.098 551.796C134.698 540.621 125.498 531.534 115.998 535.218C114.198 535.955 114.898 539.516 116.798 538.779Z" fill="#161616"/>
<path d="M466.098 221.965C470.698 226.631 476.098 227.613 481.798 229.087C487.998 230.683 493.398 233.63 497.698 239.525C505.798 250.699 508.298 267.522 502.298 280.784C501.398 282.872 503.898 284.714 504.898 282.626C510.698 269.855 509.498 254.137 503.098 242.103C500.098 236.455 495.898 231.543 490.798 228.596C483.598 224.421 474.598 225.771 468.198 219.386C466.698 217.912 464.598 220.491 466.098 221.965Z" fill="#161616"/>
<path d="M99.3992 483.521C105.099 502.309 123.199 497.52 134.299 490.152C141.399 485.486 147.999 479.469 153.799 472.592C159.999 465.102 164.999 456.26 171.099 448.647C177.799 440.297 187.199 432.683 197.299 434.771C206.399 436.613 211.899 446.559 217.699 454.173C225.299 463.996 240.599 474.066 248.299 458.471C249.299 456.383 246.699 454.541 245.699 456.629C240.799 466.452 230.399 463.014 224.399 457.12C218.999 451.717 215.099 444.349 209.799 438.823C199.799 428.263 187.299 429.245 176.699 438.086C164.999 447.787 157.899 463.874 147.199 475.048C140.899 481.556 133.599 487.573 125.799 491.134C117.499 494.941 105.899 494.695 102.299 482.661C101.599 480.328 98.6992 481.311 99.3992 483.521Z" fill="#161616"/>
<path d="M124.397 369.075C137.197 382.705 147.897 398.914 156.197 417.088C157.097 419.176 159.697 417.334 158.797 415.246C150.397 396.704 139.597 380.372 126.497 366.496C125.097 364.9 122.897 367.601 124.397 369.075Z" fill="#161616"/>
<path d="M126.999 365.145C137.799 347.585 153.099 329.657 170.099 321.675C172.799 320.447 175.899 319.342 178.799 320.202C182.399 321.184 184.499 324.991 186.599 328.429C189.599 333.218 192.499 338.13 195.399 343.042C201.099 352.866 206.499 363.058 211.599 373.373C212.599 375.337 215.199 373.495 214.199 371.531C207.799 358.637 200.899 345.989 193.599 333.832C188.099 324.622 183.099 313.816 172.399 316.886C163.099 319.588 154.199 327.938 146.899 334.937C138.399 343.165 130.899 352.743 124.299 363.303C123.299 365.145 125.899 366.987 126.999 365.145Z" fill="#161616"/>
<path d="M157.998 418.684C178.398 408.124 196.598 392.651 211.698 372.758C212.998 371.039 210.898 368.461 209.598 370.18C194.898 389.582 177.098 404.931 157.198 415.123C155.398 416.106 156.198 419.667 157.998 418.684Z" fill="#161616"/>
<path d="M138.599 367.601C149.999 354.953 162.699 344.515 176.699 336.534C178.399 335.551 176.899 332.359 175.199 333.341C160.999 341.446 148.099 352.129 136.499 365.022C134.999 366.496 137.199 369.198 138.599 367.601Z" fill="#161616"/>
<path d="M146.899 373.741C153.099 368.215 159.299 362.812 165.499 357.286C167.099 355.935 165.599 352.743 163.999 354.093C157.799 359.619 151.599 365.022 145.399 370.548C143.799 372.022 145.299 375.214 146.899 373.741Z" fill="#161616"/>
<path d="M151.098 382.214C161.498 373.25 171.898 364.163 182.298 355.199C183.898 353.848 182.398 350.655 180.798 352.006C170.398 360.97 159.998 370.057 149.598 379.021C147.998 380.372 149.498 383.565 151.098 382.214Z" fill="#161616"/>
<path d="M159.899 392.283C166.299 385.898 172.999 380.249 179.999 374.969C181.699 373.741 180.099 370.548 178.499 371.776C171.199 377.056 164.299 383.073 157.799 389.582C156.299 391.178 158.399 393.757 159.899 392.283Z" fill="#161616"/>
<path d="M164.499 402.353C173.899 392.897 184.099 385.038 194.999 378.53C196.699 377.548 195.199 374.355 193.499 375.337C182.299 381.968 171.999 390.196 162.399 399.774C160.899 401.247 162.999 403.826 164.499 402.353Z" fill="#161616"/>
<path d="M304.798 213.737C291.898 206.37 284.198 189.301 284.898 171.864C285.698 154.058 295.498 137.849 307.998 129.376C315.798 124.096 324.098 122.5 331.998 128.148C339.198 133.183 344.298 141.902 347.198 151.234C352.398 168.18 350.498 187.459 342.298 202.563C341.198 204.528 343.798 206.37 344.898 204.405C358.498 179.477 355.398 136.13 330.498 123.236C317.998 116.728 304.698 125.447 295.698 136.253C286.898 146.813 281.198 161.917 281.898 177.144C282.698 193.967 290.698 209.808 303.198 217.053C304.998 217.912 306.498 214.72 304.798 213.737Z" fill="#161616"/>
<path d="M303.398 218.158C300.798 221.596 301.498 226.877 304.698 229.455C309.898 233.63 318.898 229.824 324.398 228.227C330.298 226.508 339.198 224.912 343.198 218.526C345.598 214.597 345.598 209.194 342.498 205.878C340.998 204.405 338.898 206.984 340.398 208.457C344.998 213.246 338.998 218.772 335.398 220.491C332.398 221.842 329.298 222.947 326.198 223.93C323.298 224.789 320.398 225.649 317.498 226.263C315.698 226.631 313.698 227.245 311.898 227.368C309.298 227.491 301.798 225.771 305.598 220.86C306.898 219.018 304.798 216.439 303.398 218.158Z" fill="#161616"/>
<path d="M309.198 231.297C309.598 238.542 314.598 243.208 320.398 243.7C328.398 244.314 334.398 236.086 339.098 229.332C340.298 227.491 338.198 224.912 336.998 226.754C333.698 231.543 329.998 237.069 325.098 239.156C320.098 241.367 312.698 238.911 312.298 231.297C312.098 228.964 309.098 228.964 309.198 231.297Z" fill="#161616"/>
<path d="M317.299 245.05C316.499 250.085 318.999 255.365 323.299 256.225C327.699 257.084 331.499 252.295 331.599 247.138C331.599 244.805 328.599 244.805 328.599 247.138C328.599 250.208 326.199 253.278 323.499 252.541C321.199 251.927 319.699 248.734 320.199 246.033C320.599 243.7 317.699 242.717 317.299 245.05Z" fill="#161616"/>
<path d="M296.799 167.32C305.399 174.074 311.999 183.53 316.199 194.95C316.999 197.16 319.599 195.195 318.799 193.108C314.399 181.074 307.399 171.25 298.299 164.128C296.599 162.9 295.099 166.092 296.799 167.32Z" fill="#161616"/>
<path d="M312.198 158.356C314.098 176.039 316.098 193.722 317.998 211.281C318.298 213.615 321.098 212.632 320.898 210.299C318.998 192.616 316.998 174.934 315.098 157.374C314.798 155.041 311.998 156.023 312.198 158.356Z" fill="#161616"/>
<path d="M317.399 188.441C319.999 176.899 325.999 167.566 334.499 161.672C336.199 160.567 334.699 157.374 332.999 158.479C323.899 164.742 317.299 175.057 314.499 187.459C313.999 189.792 316.899 190.775 317.399 188.441Z" fill="#161616"/>
<path d="M208.399 504.151C212.399 514.834 216.699 525.394 221.499 535.586C223.899 540.621 227.099 550.199 232.999 547.129C234.799 546.147 233.199 543.077 231.499 543.937C227.699 545.901 220.899 526.868 219.599 523.798C216.499 516.799 213.699 509.554 210.999 502.309C210.199 500.098 207.599 501.94 208.399 504.151Z" fill="#161616"/>
<path d="M211.098 506.361C219.598 498.256 227.898 489.906 236.498 482.047C243.998 475.048 252.098 468.294 261.298 465.101C271.198 461.54 279.798 464.365 286.398 474.188C291.998 482.538 295.398 492.853 299.198 502.431C299.998 504.519 302.598 502.677 301.798 500.59C294.498 482.17 285.898 456.137 265.398 460.189C255.198 462.154 245.998 469.031 237.698 476.399C227.898 485.24 218.498 494.695 208.898 503.905C207.498 505.256 209.598 507.835 211.098 506.361Z" fill="#161616"/>
<path d="M228.898 547.498C254.998 540.498 279.198 525.517 299.498 504.151C300.998 502.554 298.798 499.976 297.398 501.572C277.498 522.57 253.698 537.06 228.098 544.059C226.198 544.551 226.998 548.112 228.898 547.498Z" fill="#161616"/>
<path d="M253.199 512.869C247.899 511.273 243.499 504.887 244.799 497.888C245.999 491.134 252.699 486.222 257.999 489.415C268.699 496.046 261.399 514.957 250.399 510.168C248.599 509.431 247.799 512.992 249.599 513.729C255.799 516.43 263.299 512.746 265.699 505.01C268.099 497.397 264.199 488.187 258.099 485.486C251.499 482.539 243.999 488.064 242.099 496.169C239.899 505.256 245.299 514.22 252.399 516.43C254.299 517.044 255.099 513.483 253.199 512.869Z" fill="#161616"/>
<path d="M306.498 419.667C305.298 406.528 305.198 391.546 317.898 387.985C324.298 386.143 329.598 383.81 333.298 376.565C337.098 369.198 336.598 362.321 335.098 354.216C333.998 347.831 334.098 342.305 338.298 337.516C341.698 333.709 346.198 332.236 350.598 333.955C352.398 334.692 353.198 331.131 351.398 330.394C344.998 327.938 338.298 331.008 334.198 337.516C327.898 347.708 335.298 358.023 332.798 368.952C331.298 375.46 327.198 380.986 321.898 383.196C317.598 384.915 312.998 384.793 309.398 388.477C301.798 396.09 302.498 408.984 303.498 419.667C303.698 422 306.698 422 306.498 419.667Z" fill="#FF1493"/>
<path d="M282.097 350.901C278.997 347.831 281.497 340.954 285.497 343.533C287.097 344.515 288.097 346.849 287.197 348.936C286.297 351.024 283.997 352.129 282.297 351.024C280.597 349.919 279.097 353.111 280.797 354.216C283.897 356.058 287.697 354.708 289.597 351.269C291.597 347.585 290.297 342.919 287.397 340.709C284.497 338.498 280.597 339.112 278.697 342.796C276.997 346.235 277.397 351.024 279.997 353.602C281.497 354.953 283.597 352.374 282.097 350.901Z" fill="#161616"/>
<path d="M418.898 160.567C417.098 157.006 415.997 152.462 417.097 148.41C417.997 144.972 420.798 142.884 423.698 143.252C426.898 143.621 428.598 147.305 426.898 150.743C425.398 153.936 422.298 155.532 419.398 155.041C417.498 154.795 417.498 158.479 419.398 158.725C423.698 159.339 428.397 156.146 429.997 151.111C431.497 146.568 429.597 141.533 425.797 140.06C422.197 138.586 417.797 140.305 415.597 144.112C412.297 149.638 413.597 157.128 416.297 162.654C417.297 164.373 419.898 162.531 418.898 160.567Z" fill="#161616"/>
<path d="M257.598 311.115C262.998 323.149 273.998 329.903 285.098 327.938C298.698 325.482 305.998 312.711 311.398 298.467C317.698 282.012 326.398 268.505 340.298 261.26C352.898 254.751 369.198 258.067 379.598 245.91C383.598 241.244 386.298 234.736 385.398 227.859C384.698 222.579 382.098 218.158 383.098 212.632C384.298 206.615 388.098 202.195 392.898 200.967C394.798 200.475 393.998 196.914 392.098 197.406C386.298 199.002 381.598 204.405 380.198 211.65C379.398 215.579 379.998 219.14 380.998 222.947C382.598 229.087 383.198 234.122 379.898 239.77C374.098 249.717 363.898 251.067 354.798 252.664C346.698 254.137 339.098 256.839 332.098 261.996C325.898 266.54 320.398 272.68 316.098 279.802C311.398 287.661 308.798 296.871 304.998 305.343C300.198 315.781 292.298 323.763 282.198 324.5C272.998 325.114 264.398 319.097 259.898 309.15C259.298 307.185 256.698 309.027 257.598 311.115Z" fill="#161616"/>
<path d="M235.598 146.2C237.498 144.235 240.298 146.2 239.798 149.269C239.398 151.603 242.298 152.585 242.698 150.252C243.198 147.305 242.298 144.235 240.098 142.638C237.898 141.042 235.298 141.656 233.398 143.621C231.998 145.094 234.098 147.673 235.598 146.2Z" fill="#161616"/>
<path d="M236.5 145.708C236 148.287 235.1 150.62 233.8 152.708C234.6 153.321 235.5 153.935 236.3 154.549C236.9 151.848 238.1 149.515 239.8 147.55C239 147.427 238.2 147.304 237.4 147.182C237.9 148.532 237.5 150.006 236.5 150.743C237.2 151.111 238 151.48 238.7 151.848C238.3 150.129 238.6 148.532 239.5 147.182C238.9 147.304 238.3 147.427 237.7 147.427C238.5 147.918 238.4 149.269 237.6 149.76C238.2 149.883 238.8 150.006 239.4 150.006C238.8 149.392 238.3 148.655 238 147.796C237.9 147.427 237.8 147.059 237.7 146.568C237.7 146.322 237.5 143.743 237.2 144.48C236.3 146.568 238.9 148.41 239.8 146.322C241.2 143.129 237.6 140.305 235.6 142.884C233.5 145.708 235.4 150.374 237.4 152.462C237.9 153.076 238.6 153.199 239.2 152.708C242 150.988 242 145.831 239.3 143.989C238.8 143.621 237.9 143.621 237.5 144.235C235.9 146.568 235.3 149.515 235.9 152.462C236.1 153.567 237.3 154.181 238.1 153.567C240.6 151.725 241.3 148.041 240.1 144.971C239.7 143.866 238.4 143.866 237.7 144.603C235.6 146.936 234.2 149.883 233.5 153.199C233.1 154.795 235 156.514 236 155.041C237.6 152.462 238.8 149.638 239.5 146.445C239.9 144.357 237 143.375 236.5 145.708Z" fill="#161616"/>
<path d="M230.9 164.987C228.9 178.249 224.4 190.406 217.3 200.721C216.1 202.563 218.2 205.142 219.4 203.3C226.8 192.371 231.7 179.846 233.8 165.847C234.1 163.636 231.2 162.654 230.9 164.987Z" fill="#161616"/>
<path d="M209.999 180.337C199.599 189.792 188.599 198.265 177.199 205.756C175.499 206.861 176.999 210.053 178.699 208.948C190.099 201.458 201.099 192.985 211.499 183.529C213.099 182.056 211.599 178.863 209.999 180.337Z" fill="#161616"/>
<path d="M454.097 461.049C451.397 455.892 446.897 458.593 444.497 462.523C441.897 466.575 439.797 471.364 437.597 475.785C435.897 479.223 433.897 483.03 433.597 487.328C432.997 495.923 438.297 496.906 443.597 498.993C449.897 501.572 449.497 510.659 445.497 515.694C442.297 519.746 437.597 521.465 433.397 523.184C431.597 523.921 432.397 527.482 434.197 526.745C442.597 523.43 455.097 515.939 450.797 502.186C450.097 499.976 448.897 498.134 447.297 496.906C446.397 496.292 445.397 495.801 444.397 495.432C441.497 494.327 440.697 494.695 438.397 491.626C436.497 490.275 435.897 488.433 436.797 485.977C437.197 484.258 437.697 482.661 438.397 481.188C439.197 479.223 440.197 477.381 441.197 475.539C442.197 473.697 449.197 458.225 451.497 462.768C452.497 464.856 455.097 463.014 454.097 461.049Z" fill="#161616"/>
<path d="M282.398 605.581C290.598 603.002 297.598 612.948 293.998 622.526C293.198 624.614 295.798 626.579 296.598 624.368C301.298 611.966 292.598 598.581 281.698 602.019C279.698 602.633 280.498 606.195 282.398 605.581Z" fill="#161616"/>
<path d="M435.598 403.335C431.798 399.896 431.798 390.932 437.598 390.687C439.698 390.564 441.898 392.038 441.798 394.862C441.798 397.195 440.098 400.019 437.998 399.651C436.098 399.282 435.298 402.844 437.198 403.212C440.898 403.949 444.098 400.633 444.698 396.213C445.398 391.669 442.698 387.74 439.098 387.126C435.398 386.389 431.598 388.968 430.298 393.388C428.998 398.3 430.798 403.58 434.098 406.527C435.598 407.878 437.098 404.686 435.598 403.335Z" fill="#161616"/>
<path d="M17.5983 388.108C18.9983 381.232 23.7983 377.302 28.2983 373.495C32.9983 369.443 37.7983 365.268 42.5983 361.216C52.0983 352.988 61.5983 344.884 71.0983 336.657C72.6983 335.306 71.1983 332.113 69.5983 333.464C58.4983 343.042 47.3983 352.497 36.2983 362.075C28.7983 368.461 17.0983 375.215 14.6983 387.126C14.1983 389.459 17.0983 390.441 17.5983 388.108Z" fill="#161616"/>
<path d="M853.329 677.638C871.665 689.873 834.793 692.08 829.483 699.2C809.744 725.775 795.917 744.878 797.32 755.007C779.786 751.397 776.063 755.413 740.5 757C720.5 757.893 708.5 769 712 768C709.5 773 732 769 737 768C754.5 766 734.411 772.201 731 773C719.913 775.597 709.5 784.5 706.5 793.5C707.302 799.718 703.937 799.434 715.46 802.944C725.179 805.852 723.275 804.348 735.599 802.944C752.532 801.038 762.452 791.362 767.662 786.95C772.672 789.457 788.002 758.97 797.32 761.878C814.453 767.093 821.567 747.638 837.298 737.81C847.518 731.391 858.039 745.131 863.85 715.245C871.264 676.936 889.099 694.936 878.879 682.802C865.353 666.656 862.046 676.435 853.329 677.638Z" fill="white" stroke="#161616" stroke-width="3" stroke-miterlimit="10"/>
<path d="M743.489 779.022C727.648 781.019 714.868 789.006 709.144 800.188C708.212 801.985 712.073 802.784 713.004 800.987C718.196 790.803 730.177 783.714 744.554 781.917C747.083 781.618 746.018 778.722 743.489 779.022Z" fill="#161616"/>
<path d="M748.324 788.162C742.383 790.036 736.857 792.198 731.607 794.504C728.153 796.089 724.285 797.962 725.114 800.556C727.186 807.402 740.152 802.546 748.718 800.817C751.205 800.312 752.883 798.71 750.397 799.215C746.666 799.935 742.522 803.727 738.515 803.655C732.021 803.511 726.219 800.268 731.745 797.314C736.995 794.431 743.903 792.126 750.397 789.964C752.745 789.315 750.673 787.442 748.324 788.162Z" fill="#161616"/>
<path d="M609.602 295.408C610.602 306.108 612.402 321.108 616.402 338.808C619.002 350.308 620.602 357.608 624.002 366.708C629.102 380.408 638.802 406.608 664.102 423.708C670.202 427.908 680.302 433.508 694.502 436.808C696.802 437.008 699.102 437.308 701.402 437.508C702.202 441.708 703.202 447.908 704.202 455.408C706.602 474.708 705.402 480.608 710.402 485.808C716.502 492.108 726.202 491.508 728.302 491.308C745.002 490.208 753.402 473.608 753.802 472.708C751.102 467.808 748.402 461.808 746.202 454.808C741.402 439.308 741.302 425.508 742.102 416.108C749.802 405.008 758.302 396.508 766.902 389.908C770.202 387.408 773.002 384.008 777.902 382.308C784.902 379.908 788.502 382.308 793.702 380.708C802.302 378.008 806.002 366.908 807.602 362.308C813.702 344.108 806.202 326.108 801.402 315.408C797.102 305.608 785.902 281.308 758.602 262.308C730.502 242.708 674.302 220.908 637.102 249.208C630.702 254.108 616.102 267.208 609.602 295.408Z" fill="white"/>
<path d="M608.802 298.008C612.902 328.908 617.202 361.008 632.302 388.808C644.702 411.608 664.702 431.108 690.402 437.608C692.302 438.108 693.102 435.208 691.202 434.708C665.802 428.208 646.202 408.608 634.202 385.908C619.902 358.908 615.802 327.908 611.802 298.008C611.502 296.108 608.502 296.108 608.802 298.008Z" fill="#161616"/>
<path d="M690.402 438.008C708.502 438.008 727.502 428.308 741.702 417.908C756.002 407.408 767.702 393.908 776.102 378.308C777.002 376.608 774.402 375.108 773.502 376.808C765.402 392.008 754.102 405.208 740.202 415.308C726.302 425.508 707.902 435.008 690.402 435.008C688.402 435.008 688.402 438.008 690.402 438.008Z" fill="#161616"/>
<path d="M741.601 415.508C739.601 435.708 743.501 455.908 752.701 474.008C753.601 475.708 756.201 474.208 755.301 472.508C746.301 454.808 742.701 435.208 744.601 415.508C744.801 413.608 741.801 413.608 741.601 415.508Z" fill="#161616"/>
<path d="M698.101 437.508C701.401 448.908 704.101 460.508 706.101 472.208C707.401 480.008 707.901 488.808 716.601 491.708C729.601 496.108 748.801 488.308 753.801 475.408C754.501 473.608 751.601 472.808 750.901 474.608C748.101 481.908 741.101 485.908 733.901 488.008C727.901 489.708 718.801 491.508 713.701 486.608C710.701 483.708 710.301 479.108 709.701 475.208C709.001 471.108 708.301 467.008 707.501 462.908C705.701 454.108 703.601 445.308 701.101 436.708C700.501 434.908 697.601 435.708 698.101 437.508Z" fill="#161616"/>
<path d="M633.502 332.508C632.502 338.808 633.602 344.908 637.002 350.308C637.702 351.408 639.302 351.208 639.702 349.908C642.102 343.008 638.702 336.208 635.302 330.308C634.602 329.008 632.502 329.608 632.502 331.108C632.602 336.408 633.702 341.608 635.702 346.508C636.402 348.308 639.302 347.508 638.602 345.708C636.702 341.008 635.602 336.208 635.502 331.108C634.602 331.408 633.602 331.608 632.702 331.908C635.802 337.208 639.002 343.008 636.802 349.208C637.702 349.108 638.602 349.008 639.502 348.808C636.502 344.108 635.402 338.808 636.302 333.308C636.702 331.408 633.802 330.608 633.502 332.508Z" fill="#161616"/>
<path d="M640.824 341.626C641.024 342.526 642.524 348.126 640.824 349.026C639.124 349.926 634.324 346.326 632.824 341.626C631.624 337.626 632.624 332.626 634.524 332.226C636.524 331.726 639.624 337.226 640.824 341.626Z" fill="#161616" stroke="#161616" stroke-miterlimit="10"/>
<path d="M722.002 329.708C722.002 328.408 721.902 328.108 721.302 327.008C720.602 325.708 718.502 326.308 718.502 327.808C718.602 334.008 719.102 340.708 723.902 345.108C724.902 346.008 726.302 345.308 726.502 344.008C727.302 336.608 725.102 329.708 720.502 323.908C719.502 322.708 717.702 324.008 718.002 325.408C719.202 330.308 720.702 335.108 722.502 339.708C723.202 341.508 726.102 340.708 725.402 338.908C723.502 334.208 722.002 329.508 720.902 324.608C720.102 325.108 719.202 325.608 718.402 326.108C722.502 331.308 724.202 337.508 723.502 344.108C724.402 343.708 725.202 343.408 726.102 343.008C721.802 339.108 721.602 333.208 721.502 327.808C720.602 328.108 719.602 328.308 718.702 328.608C718.802 329.008 718.902 329.408 719.002 329.808C719.002 331.608 722.002 331.608 722.002 329.708Z" fill="#161616"/>
<path d="M725.824 335.626C726.024 336.526 727.524 342.126 725.824 343.026C724.124 343.926 719.324 340.326 717.824 335.626C716.624 331.626 717.624 326.626 719.524 326.226C721.524 325.726 724.624 331.226 725.824 335.626Z" fill="#161616" stroke="#161616" stroke-miterlimit="10"/>
<path d="M713.002 318.308C716.102 315.608 720.802 315.608 723.902 318.208C725.402 319.408 727.502 317.308 726.002 316.108C721.602 312.308 715.202 312.408 710.802 316.208C709.402 317.508 711.602 319.608 713.002 318.308Z" fill="#161616"/>
<path opacity="0.27" d="M741.801 281.608C749.401 306.908 750.001 328.108 749.301 342.108C748.801 352.508 746.001 407.008 717.301 425.808C714.501 427.608 707.401 431.808 707.701 432.408C708.101 433.108 721.401 427.208 728.701 423.208C740.201 417.008 757.901 404.508 774.301 378.108C777.001 378.408 790.201 379.308 799.701 370.208C811.201 359.308 813.201 337.908 804.101 331.608C797.601 327.108 785.201 330.908 774.301 339.908C773.201 335.308 771.801 330.508 769.901 325.408C762.401 305.608 751.101 291.208 741.801 281.608Z" fill="#3D3D3D"/>
<path d="M662.637 324.513C661.337 340.713 662.037 356.813 664.637 372.813C664.737 373.613 665.737 374.113 666.437 373.813C670.337 372.513 673.137 370.213 675.237 366.713C676.237 365.013 673.637 363.513 672.637 365.213C670.937 368.113 668.837 369.813 665.637 370.913C666.237 371.213 666.837 371.613 667.437 371.913C664.837 356.213 664.237 340.313 665.537 324.413C665.837 322.513 662.837 322.513 662.637 324.513Z" fill="#161616"/>
<path d="M638.801 226.009C630.855 231.084 613.505 242.194 601.718 264.962C589.931 287.593 590.064 308.989 590.594 318.179C571.258 354.251 582.985 384.607 586.001 406.607C590.594 440.107 605.733 452.241 610.501 460.607C622.156 481.181 640.806 496.373 646.501 497.607C677.001 492.107 716.001 497.607 705.001 460.607C705.001 455.607 700.909 452.507 702.001 446.607C704.501 433.107 686.001 435.607 677.001 432.107C670.379 426.484 656.418 420.983 649.001 411.107C637.744 396.02 636.001 395.107 630.501 384.607C625.001 374.107 619.597 359.797 618.803 350.607C621.001 340.107 608.82 332.032 616.501 332.032C614.001 320.089 615.706 341.51 616.501 342.607C620.872 340.001 613.373 327.221 618.803 320.089C624.501 309.607 622.501 310.107 628.001 300.607C633.681 290.797 636.104 288.054 646.501 267.607C660.275 272.682 694.452 289.904 702.001 293.607C721.577 309.107 732.001 311.607 751.501 320.089C761.501 324.438 763.958 323.665 765.547 328.74C777.864 319.002 782.898 321.608 783.958 322.156C791.772 326.683 791.507 351.508 779.322 358.366C774.687 360.972 769.389 360.286 766.078 359.463C762.238 373.316 753.761 392.564 734.293 412.589C731.501 422.607 734.293 421.089 734.293 426.589C733.763 431.664 735.664 443.359 736.988 451.589C738.18 459.133 756.015 476.218 758.001 480.607C793.629 493.363 793.227 488.254 814.948 464.663C834.284 443.541 834.286 411.583 827.001 389.775C820.379 369.887 807.532 357.955 801.175 352.743C802.897 345.062 812.431 299.525 784.751 257.692C777.599 246.857 757.601 220.66 721.577 211.607C683.434 202.006 652.045 217.642 638.801 226.009Z" fill="black"/>
<path d="M832.8 501.607C847.4 510.507 866.2 524.407 882.5 545.107C919.5 592.007 918.4 641.807 917 660.207C910.2 676.007 898.7 696.707 878.5 717.107C866.7 728.907 849.4 746.007 819.9 757.107C810 760.807 801.3 762.907 795 764.107C789.7 759.907 784.3 755.707 779 751.507C796.2 733.807 813.7 715.307 831.1 696.107C844.4 681.407 857.2 666.907 869.6 652.607C869.1 640.607 866.3 618.707 851.2 595.707C842.6 582.707 832.7 573.307 824.7 566.907C827.5 545.107 830.2 523.407 832.8 501.607Z" fill="white" stroke="#161616" stroke-width="2" stroke-miterlimit="10"/>
<path d="M363.662 467C352.251 467 343 477.091 343 489.538C343 501.985 352.251 512.076 363.662 512.076C375.072 512.076 384.323 501.985 384.323 489.538C384.323 477.091 375.072 467 363.662 467Z" fill="#20a5a0"/>
<path d="M344.193 474.449C334.146 474.449 326 482.884 326 493.29C326 503.696 334.146 512.132 344.193 512.132C354.241 512.132 362.386 503.696 362.386 493.29C362.386 482.884 354.241 474.449 344.193 474.449Z" fill="#FF1493"/>
<path d="M236.925 284.284C241.646 287.603 237.685 293.463 233.49 294.535C232.083 294.922 230.596 294.91 229.154 294.721C226.445 294.388 225.468 293.848 224.502 291.138C222.71 288.02 223.832 287.653 227.844 290.124C227.942 290.811 228.018 291.587 228.117 292.275C228.112 294.07 227.515 295.993 226.551 297.535C224.042 301.413 219.038 302.368 215.102 300.674C214.102 300.223 212.777 301.009 213.109 302.231C214.827 308.825 209.256 315.491 202.543 315.148C200.793 315.066 200.818 317.813 202.567 317.895C211.031 318.32 217.746 309.78 215.637 301.476C214.951 301.958 214.329 302.551 213.644 303.032C221.016 306.196 229.721 302.148 230.658 293.603C230.965 290.659 230.334 285.957 227.114 284.734C224.48 283.759 221.802 285.797 220.867 288.294C218.174 295.715 229.12 298.398 234.131 297.066C240.942 295.262 244.861 286.367 238.232 281.791C236.889 280.872 235.518 283.253 236.925 284.284Z" fill="#20a5a0"/>
<path d="M104.901 261.736C97.3101 270.256 98.6892 283.875 107.982 292.156C117.275 300.437 130.963 300.244 138.554 291.724C146.146 283.205 144.766 269.586 135.473 261.305C126.18 253.024 112.492 253.217 104.901 261.736Z" fill="#FF1493"/>
<path d="M124.538 250.948C117.853 258.449 118.733 270.142 126.502 277.065C134.271 283.988 145.987 283.519 152.671 276.018C159.356 268.516 158.476 256.823 150.707 249.9C142.938 242.977 131.222 243.446 124.538 250.948Z" fill="#20a5a0"/>
<path d="M399.533 312.065C396.532 311.068 395.345 308.081 395.326 305.169C395.272 303.205 396.114 297.54 398.265 296.702C401.8 295.25 404.972 299.323 406.718 301.729C408.341 304.068 409.387 306.575 410.27 309.234C410.804 311.057 413.683 310.214 413.149 308.391C411.48 303.045 403.096 287.577 395.671 294.961C392.846 297.767 391.896 303.776 392.58 307.536C393.208 311.103 395.45 313.781 398.824 314.981C400.572 315.616 401.281 312.699 399.533 312.065Z" fill="black"/>
<path d="M398.831 313.937C395.628 315.813 392.426 317.688 389.128 319.591C387.253 320.661 383.855 321.865 382.673 323.878C380.648 327.284 383.748 335.025 384.731 338.384C385.012 339.344 386.169 339.735 386.948 339.194C387.4 338.957 387.823 338.625 388.371 338.36C390.473 336.286 391.974 336.785 392.913 339.636C395.394 340.993 395.731 342.145 393.868 342.899C392.857 343.716 391.761 344.245 390.514 344.61C389.774 344.931 389.243 345.607 389.495 346.471C391.486 352.557 393.736 358.463 396.206 364.408C396.931 366.176 399.811 365.333 399.085 363.565C396.615 357.62 394.365 351.714 392.375 345.628C392.035 346.249 391.696 346.869 391.356 347.489C395.247 345.829 401.199 342.315 398.734 337.098C396.06 331.524 389.155 334.275 385.461 336.607C386.178 336.918 386.99 337.202 387.678 337.417C387.032 335.21 386.414 333.098 385.96 330.835C385.236 327.295 384.679 326.104 387.481 323.929C391.294 320.937 396.211 318.872 400.385 316.4C402.124 315.578 400.542 313.02 398.831 313.937Z" fill="black"/>
<path d="M412.903 310.755C416.878 309.383 421.005 308.175 425.176 307.475C429.156 306.831 429.132 307.463 430.691 310.653C431.693 312.652 432.436 314.831 433.246 316.887C436.43 324.915 439.422 333.001 442.318 341.114C442.948 342.909 445.827 342.066 445.197 340.271C441.334 329.211 437.579 317.806 432.496 307.207C431.201 304.565 430.468 303.841 427.449 304.204C422.177 304.706 416.995 306.223 412.089 307.972C410.265 308.506 411.108 311.385 412.903 310.755Z" fill="black"/>
<path d="M398.907 365.806C404.288 363.188 409.67 360.571 414.955 357.981C421.076 355.043 427.359 353.725 433.649 351.362C436.539 350.204 450.226 344.634 443.329 340.297C441.688 339.318 440.263 341.924 441.904 342.902C442.925 343.541 430.434 349.282 430.146 349.366C426.144 350.642 422.057 351.63 418.166 353.29C411.125 356.289 404.281 359.96 397.353 363.343C395.585 364.069 397.168 366.627 398.907 365.806Z" fill="black"/>
<path d="M674.809 396.509C687.009 401.709 698.109 394.409 707.109 386.509C708.609 385.209 706.409 383.109 705.009 384.409C697.209 391.209 687.209 398.509 676.409 393.909C674.509 393.209 673.009 395.809 674.809 396.509Z" fill="#161616"/>
<path d="M624.648 281.425C628.448 278.225 634.048 278.125 637.848 281.225C639.348 282.425 641.448 280.325 639.948 279.125C634.748 274.925 627.548 274.925 622.448 279.325C621.048 280.525 623.248 282.625 624.648 281.425Z" fill="#161616"/>
<path opacity="0.16" d="M828.5 528C841.2 541.3 862 562.6 875.5 592.3C881.9 606.4 892.3 629.3 892.5 650.9C893.2 716.6 800.2 761.8 794.8 764.4C789.5 761 784.3 757.7 779 754.3C809.1 721.3 839.1 688.3 869.2 655.3C868.6 644.5 866.1 624.4 854.1 603C844.2 585.4 831.9 574 823.8 567.7C826.6 554.5 825.8 541.3 828.5 528Z" fill="#6D6C6C"/>
<path opacity="0.14" d="M754 475C756.096 483.547 760.34 513.363 761.937 527.532C763.035 537.091 767.526 580.386 753.554 637.514C744.971 672.713 735.889 709.935 706.149 740.523C696.568 750.419 701.5 745.5 696.5 751C711.57 755.386 757.5 749.5 774 749.5C790.5 749.5 792 730.5 808.744 721.631C807.746 713.197 809.243 736.925 808.744 721.631C808.344 708.249 808.344 686.882 816.528 626.718C823.015 579.374 827.606 559.02 829.901 516.174C830.201 511.226 829.702 501.811 829.901 499C823 492 813.177 488.773 801.5 484.5C790.722 480.564 783.5 488.5 773.5 486C766.5 484.25 759.988 471.626 754 475Z" fill="#6D6C6C"/>
<path d="M808.799 147.007C808.999 150.107 809.099 153.207 809.299 156.207C809.299 156.807 809.699 157.607 810.399 157.607C894.599 169.207 979.499 159.407 1064 159.607C1087.9 159.607 1111.7 160.507 1135.5 162.807C1136.1 162.907 1136.8 162.307 1136.9 161.707C1137.7 157.607 1138.6 153.507 1139.4 149.407C1139.8 147.507 1136.9 146.707 1136.5 148.607C1135.7 152.707 1134.8 156.807 1134 160.907C1134.5 160.507 1135 160.207 1135.4 159.807C1051.7 151.607 967.699 161.907 883.799 160.107C859.499 159.607 835.199 158.007 811.099 154.707C811.499 155.207 811.799 155.707 812.199 156.107C811.999 153.007 811.899 149.907 811.699 146.907C811.699 145.107 808.699 145.107 808.799 147.007Z" fill="black"/>
<path d="M811.3 148.507C895.9 148.507 980.6 148.507 1065.2 148.507C1089.2 148.507 1113.2 148.507 1137.2 148.507C1139.1 148.507 1139.1 145.507 1137.2 145.507C1052.6 145.507 967.9 145.507 883.3 145.507C859.3 145.507 835.3 145.507 811.3 145.507C809.4 145.507 809.4 148.507 811.3 148.507Z" fill="black"/>
<path d="M829.499 146.107C831.999 110.207 834.099 74.2074 837.199 38.4074C837.599 33.7074 838.099 29.1074 838.899 24.5074C839.199 22.8074 839.299 19.3074 840.299 17.9074C841.599 16.1074 844.399 16.1074 846.399 15.8074C850.999 15.0074 858.699 12.2074 861.899 16.9074C862.799 18.3074 862.999 21.2074 863.299 22.9074C863.899 25.9074 864.299 28.9074 864.599 31.9074C866.199 49.5074 863.899 67.4074 862.599 85.0074C861.099 105.407 859.599 125.807 858.099 146.207C857.999 148.107 860.999 148.107 861.099 146.207C863.299 117.007 865.699 87.9074 867.499 58.7074C868.299 45.3074 868.699 31.6074 865.399 18.4074C864.499 14.7074 863.099 11.6074 858.899 11.2074C852.499 10.7074 845.099 12.9074 838.899 14.2074C838.399 14.3074 837.999 14.8074 837.899 15.2074C832.599 35.9074 832.799 58.2074 831.299 79.4074C829.699 101.607 828.199 123.907 826.599 146.107C826.399 148.007 829.399 148.007 829.499 146.107Z" fill="black"/>
<path d="M866.7 55.8075C878.9 86.5075 891.8 116.908 905.3 147.008C906.1 148.808 908.7 147.208 907.9 145.508C894.5 115.608 881.7 85.4075 869.6 55.0075C868.9 53.2075 866 54.0075 866.7 55.8075Z" fill="black"/>
<path d="M869.3 39.7074C871.8 32.6074 879.5 28.7074 886.7 30.7074C888.6 31.2074 889.4 28.3074 887.5 27.8074C878.7 25.3074 869.4 30.3074 866.4 38.9074C865.8 40.8074 868.7 41.5074 869.3 39.7074Z" fill="black"/>
<path d="M886.7 31.3074C906.5 69.7074 926.2 108.207 946 146.607C946.9 148.307 949.5 146.807 948.6 145.107C928.8 106.707 909.1 68.2074 889.3 29.8074C888.4 28.0074 885.8 29.5074 886.7 31.3074Z" fill="black"/>
<path d="M938.799 5.50752C941.999 52.0075 945.199 98.5075 948.299 145.008C948.399 146.908 951.399 146.908 951.299 145.008C948.099 98.5075 944.899 52.0075 941.799 5.50752C941.699 3.60752 938.699 3.60752 938.799 5.50752Z" fill="black"/>
<path d="M941.4 7.10743C946.5 2.50743 953.4 2.50743 959.8 3.60743C962.4 4.00743 965.2 4.50744 967.7 5.40744C972.3 7.10744 971.6 11.3074 971.8 15.4074C972.4 29.7074 972.9 44.0074 973.5 58.3074C974.6 87.2074 975.8 116.207 976.9 145.107C977 147.007 980 147.007 979.9 145.107C978.5 110.507 977.2 75.9074 975.8 41.4074C975.5 32.8074 975.1 24.1074 974.8 15.5074C974.6 11.1074 975.2 5.70743 970.6 3.30743C965.8 0.80743 958.4 -0.0925734 953 0.00742662C947.8 0.107427 943.2 1.50743 939.4 5.00743C937.9 6.20743 940 8.40743 941.4 7.10743Z" fill="black"/>
<path d="M889.101 29.6075C898.601 30.2075 907.901 33.0075 917.001 35.6075C925.401 38.0075 933.601 41.0075 940.701 46.2075C942.301 47.3075 943.801 44.7075 942.201 43.6075C934.801 38.3075 926.401 35.2075 917.701 32.7075C908.301 30.0075 898.801 27.3075 889.001 26.6075C887.101 26.4075 887.101 29.4075 889.101 29.6075Z" fill="black"/>
<path d="M975.301 24.3074C979.701 23.2074 984.601 22.1074 989.201 23.0074C996.001 24.4074 997.401 30.4074 997.701 36.5074C998.201 48.8074 998.401 61.0074 998.701 73.3074C999.301 97.5074 999.601 121.707 999.701 145.907C999.701 147.807 1002.7 147.807 1002.7 145.907C1002.6 117.007 1002.2 88.2074 1001.4 59.4074C1001.2 52.4074 1001 45.5074 1000.8 38.5074C1000.6 33.9074 1000.7 28.8074 997.901 24.9074C992.701 17.6074 982.001 19.4074 974.601 21.3074C972.601 21.9074 973.401 24.8074 975.301 24.3074Z" fill="black"/>
<path d="M997.199 8.50752C997.199 17.5075 997.199 26.4075 997.199 35.4075C997.199 37.3075 1000.2 37.3075 1000.2 35.4075C1000.2 26.4075 1000.2 17.5075 1000.2 8.50752C1000.2 6.60752 997.199 6.60752 997.199 8.50752Z" fill="black"/>
<path d="M1001.6 9.60743C1002.4 9.90743 1003.3 10.2074 1004.1 10.5074C1004.2 11.2074 1004.3 11.9074 1004.4 12.7074C1004.6 14.3074 1004.6 16.0074 1004.8 17.7074C1005 20.3074 1005.2 23.0074 1005.4 25.6074C1005.8 31.2074 1006.1 36.9074 1006.4 42.5074C1007.1 54.1074 1007.6 65.7074 1008 77.3074C1008.9 100.207 1009.2 123.107 1009.2 146.007C1009.2 147.907 1012.2 147.907 1012.2 146.007C1012.2 117.507 1011.6 88.9074 1010.3 60.4074C1009.6 46.5074 1008.8 32.6074 1007.8 18.7074C1007.6 15.3074 1008.2 9.10744 1005.1 6.70744C1003 5.10744 1000.1 5.70743 998.999 8.10743C998.299 9.90743 1000.8 11.4074 1001.6 9.60743Z" fill="black"/>
<path d="M854.2 161.707C857.3 166.907 860.3 174.707 865.3 178.407C870.2 182.107 876.2 178.807 881.6 180.707C883.4 181.307 884.2 178.407 882.4 177.807C877.6 176.107 872 178.807 867.7 176.107C862.8 173.107 859.7 165.007 856.8 160.107C855.8 158.507 853.2 160.007 854.2 161.707Z" fill="black"/>
<path d="M885.6 163.008C885.2 168.208 883.6 172.908 881 177.308C880 179.008 882.6 180.508 883.6 178.808C886.6 173.908 888.2 168.608 888.6 163.008C888.8 161.108 885.8 161.108 885.6 163.008Z" fill="black"/>
<path d="M877.1 165.507C878 170.107 878.9 174.708 879.9 179.308C880.3 181.208 883.2 180.407 882.8 178.507C881.9 173.907 881 169.308 880 164.708C879.6 162.808 876.7 163.607 877.1 165.507Z" fill="black"/>
<path d="M880.7 165.407C880.9 165.407 881.1 165.507 881.3 165.607C881.6 166.207 881.6 166.807 881.5 167.407C881.4 168.107 881.1 168.807 880.9 169.507C880.5 170.907 880.4 172.207 880.8 173.607C881.4 175.507 884 174.707 883.7 172.807C883.2 170.107 883.6 167.407 884.7 164.907C883.7 164.807 882.7 164.607 881.8 164.507C881.5 167.607 881.3 170.807 881 173.907C880.8 175.807 883.8 175.807 884 173.907C884.3 170.807 884.5 167.607 884.8 164.507C885 162.707 882.4 162.707 881.9 164.107C880.6 167.207 880.4 170.407 880.9 173.607C881.9 173.307 882.8 173.107 883.8 172.807C882.9 169.807 886.4 166.107 883.4 163.407C881.6 161.807 878.7 162.407 878 164.707C877.2 166.507 880.1 167.307 880.7 165.407Z" fill="black"/>
<path d="M1037.4 143.507C1036.5 139.807 1036.1 136.207 1036.4 132.407C1035.9 132.907 1035.4 133.407 1034.9 133.907C1052.6 133.007 1070.3 131.907 1088 131.507C1096.9 131.307 1105.8 131.307 1114.7 131.507C1116.7 131.507 1118.7 131.607 1120.6 131.607C1122.6 131.707 1126.7 131.007 1128.5 131.907C1132.5 133.807 1130.8 141.507 1130.8 145.007C1130.8 146.907 1133.8 146.907 1133.8 145.007C1133.8 140.307 1136.2 130.307 1129.8 129.007C1125.4 128.107 1120.2 128.607 1115.7 128.507C1110.1 128.407 1104.5 128.307 1098.9 128.407C1077.6 128.507 1056.3 129.807 1034.9 130.907C1034.1 130.907 1033.4 131.607 1033.4 132.407C1033.2 136.507 1033.5 140.407 1034.6 144.307C1034.9 146.207 1037.8 145.407 1037.4 143.507Z" fill="black"/>
<path d="M1048.5 113.407C1049.7 118.907 1050.6 124.407 1051 130.007C1051.1 131.907 1054.1 131.907 1054 130.007C1053.6 124.107 1052.7 118.307 1051.4 112.607C1051 110.807 1048.1 111.607 1048.5 113.407Z" fill="black"/>
<path d="M1050.5 115.307C1062.6 114.307 1074.7 113.207 1086.8 113.707C1098.2 114.207 1109.7 117.907 1121.1 116.707C1120.6 116.207 1120.1 115.707 1119.6 115.207C1119.2 120.507 1119.8 125.507 1121.5 130.607C1122.1 132.407 1125 131.607 1124.4 129.807C1122.8 125.007 1122.2 120.307 1122.6 115.207C1122.7 114.407 1121.9 113.607 1121.1 113.707C1109.7 114.807 1098.2 111.107 1086.8 110.707C1074.7 110.207 1062.5 111.307 1050.5 112.307C1048.6 112.407 1048.6 115.407 1050.5 115.307Z" fill="black"/>
<path d="M948.699 425.607C948.699 429.807 948.699 433.907 948.699 438.107C948.699 440.007 951.699 440.007 951.699 438.107C951.699 433.907 951.699 429.807 951.699 425.607C951.699 423.707 948.699 423.707 948.699 425.607Z" fill="black"/>
<path d="M950.199 424.607C1028 424.607 1105.8 424.607 1183.6 424.607C1185.5 424.607 1185.5 421.607 1183.6 421.607C1105.8 421.607 1028 421.607 950.199 421.607C948.199 421.607 948.199 424.607 950.199 424.607Z" fill="black"/>
<path d="M952.601 438.407C1029.2 438.407 1105.7 438.407 1182.3 438.407C1184.2 438.407 1184.2 435.407 1182.3 435.407C1105.7 435.407 1029.2 435.407 952.601 435.407C950.701 435.407 950.701 438.407 952.601 438.407Z" fill="black"/>
<path d="M1182.1 425.607C1182.1 428.507 1182.1 431.407 1182.1 434.307C1182.1 436.207 1185.1 436.207 1185.1 434.307C1185.1 431.407 1185.1 428.507 1185.1 425.607C1185.1 423.707 1182.1 423.707 1182.1 425.607Z" fill="black"/>
<path d="M971.8 391.907C974.4 402.207 976.8 412.607 978.8 423.007C979.2 424.907 982.1 424.107 981.7 422.207C979.7 411.807 977.4 401.407 974.7 391.107C974.2 389.207 971.3 390.007 971.8 391.907Z" fill="black"/>
<path d="M1023.8 391.007C1021.4 401.307 1019.4 411.607 1017.9 422.007C1017.6 423.907 1020.5 424.707 1020.8 422.807C1022.3 412.407 1024.3 402.007 1026.7 391.807C1027.1 389.907 1024.2 389.107 1023.8 391.007Z" fill="black"/>
<path d="M963.6 386.308C963.8 391.508 971.6 391.108 975.4 391.308C984 391.708 992.7 390.408 1001.3 389.908C1005.6 389.608 1009.9 389.508 1014.2 389.908C1017.7 390.208 1021.5 391.408 1024.9 390.708C1028.7 389.908 1031.1 386.308 1028.9 382.808C1027.9 381.208 1025.3 382.708 1026.3 384.308C1029.1 389.008 1019.6 387.508 1018.7 387.408C1016.6 387.108 1014.4 386.908 1012.3 386.808C1007.4 386.508 1002.4 386.808 997.5 387.208C994.3 387.408 966.7 390.708 966.6 386.308C966.6 384.308 963.6 384.308 963.6 386.308Z" fill="black"/>
<path d="M967.1 385.907C965.3 380.307 980.8 380.907 983.4 380.807C988 380.607 992.7 380.407 997.3 380.207C999.8 380.107 1025.8 379.407 1025.1 381.307C1024.5 383.107 1027.4 383.907 1028 382.107C1031 373.207 998.5 377.107 994.3 377.307C986.5 377.607 977.8 376.907 970.2 378.407C966.2 379.207 962.8 382.207 964.2 386.607C964.8 388.507 967.7 387.707 967.1 385.907Z" fill="black"/>
<path d="M980.4 377.607C975.8 375.507 971.7 372.507 968.5 368.707C967.2 367.107 958 353.807 963.4 353.007C964.3 352.907 964.8 351.507 964.3 350.807C961.4 346.607 960.2 341.207 958.7 336.407C957 331.207 955.4 326.007 953.7 320.907C953.4 319.807 952.9 318.807 952.7 317.707C952.2 315.607 951.9 315.607 954.4 315.407C957.1 315.207 958.5 317.307 960.3 319.107C963.7 322.507 966.7 326.207 969.4 330.107C979.5 344.707 985.1 361.907 989.3 379.007C989.8 380.907 992.7 380.107 992.2 378.207C986.8 356.407 978.9 334.007 962.9 317.507C960.7 315.207 956.5 309.907 952.8 310.507C950 311.007 949.2 314.007 949.4 316.507C949.8 322.107 952.8 328.207 954.6 333.607C956.6 339.807 957.9 347.007 961.7 352.407C962 351.707 962.3 350.907 962.6 350.207C956 351.207 959.8 360.407 961.6 364.007C965.4 371.307 971.5 376.907 978.9 380.407C980.6 381.007 982.1 378.407 980.4 377.607Z" fill="black"/>
<path d="M983.8 350.207C983.5 337.507 983.2 324.307 987.5 312.207C989.6 306.307 992.8 301.007 996.5 296.007C997.4 294.707 998.4 292.607 999.8 291.807C1000.8 290.207 1002.3 290.007 1004.2 291.307C1006.6 290.707 1007.8 291.307 1007.8 293.107C1009 295.807 1008.6 300.407 1008.6 303.207C1008.6 309.907 1007 316.107 1005.4 322.507C1004.8 324.707 1004.3 327.007 1004.5 329.207C1004.7 331.807 1006.1 333.807 1006.8 336.207C1008.8 343.007 1005.3 350.007 1002.9 356.207C1000.5 362.707 998 369.207 995.6 375.807C994.9 377.607 997.8 378.407 998.5 376.607C1001.7 368.007 1005.1 359.507 1008.1 350.807C1010.2 344.707 1011.2 339.407 1008.8 333.407C1005.6 325.307 1010.7 316.207 1011.4 307.907C1011.8 302.507 1012.7 293.307 1009.2 288.507C1001.6 278.007 989.5 300.407 987.1 305.407C980.3 319.407 980.4 335.107 980.8 350.307C980.9 352.207 983.9 352.207 983.8 350.207Z" fill="black"/>
<path d="M958.6 325.607C968.5 339.507 974.4 356.207 981.3 371.707C982.1 373.507 984.7 371.907 983.9 370.207C977.1 354.607 971.1 338.007 961.2 324.107C960.1 322.507 957.5 324.007 958.6 325.607Z" fill="black"/>
<path d="M986.2 318.508C986.6 323.808 988.4 328.508 991.7 332.608C992.9 334.108 995 332.008 993.8 330.508C991.1 327.008 989.5 322.908 989.2 318.508C989.1 316.608 986.1 316.608 986.2 318.508Z" fill="black"/>
<path d="M999.8 317.808C1002.2 314.208 1004.7 310.608 1007.1 307.008C1008.2 305.408 1005.6 303.908 1004.5 305.508C1002.1 309.108 999.6 312.708 997.2 316.308C996.2 317.908 998.8 319.408 999.8 317.808Z" fill="black"/>
<path d="M1029.6 315.808C1027.1 319.808 1023.5 322.908 1020.2 326.108C1016.6 329.508 1013 333.008 1009.4 336.408C1008 337.708 1010.1 339.908 1011.5 338.508C1018.4 331.908 1027.1 325.508 1032.2 317.308C1033.2 315.708 1030.6 314.208 1029.6 315.808Z" fill="black"/>
<path d="M1028.3 319.807C1028.5 325.107 1037.3 334.907 1030.5 338.107C1029.6 338.607 1029.6 339.807 1030.2 340.507C1032.5 343.307 1031 347.507 1030.7 350.807C1030.4 354.507 1030.7 358.207 1029.7 361.807C1027.9 368.707 1021.5 372.807 1015.8 376.407C1014.2 377.407 1015.7 380.007 1017.3 379.007C1024.2 374.607 1031.3 369.607 1032.9 361.007C1033.7 356.407 1033.7 351.607 1034.1 347.007C1034.5 343.707 1034.4 341.107 1032.2 338.507C1032.1 339.307 1032 340.107 1031.9 340.907C1041.4 336.407 1031.4 326.207 1031.2 320.007C1031.2 317.907 1028.2 317.907 1028.3 319.807Z" fill="black"/>
<path d="M1023.5 334.507C1016.6 345.607 1010.7 357.207 1005.8 369.407C1005.1 371.207 1008 372.007 1008.7 370.207C1013.5 358.307 1019.3 346.907 1026.1 336.007C1027.1 334.307 1024.5 332.807 1023.5 334.507Z" fill="black"/>
<path d="M977.1 412.407C981.1 417.807 986.6 421.507 993.2 422.907C995.1 423.307 995.9 420.407 994 420.007C988.2 418.807 983.2 415.707 979.7 410.907C978.6 409.407 976 410.907 977.1 412.407Z" fill="black"/>
<path d="M975.401 400.107C985.701 408.007 996.601 419.307 1009.8 422.007C1011.7 422.407 1012.5 419.507 1010.6 419.107C997.801 416.507 987.001 405.207 976.901 397.507C975.401 396.307 973.901 398.907 975.401 400.107Z" fill="black"/>
<path d="M983.3 392.507C989.5 397.607 995.5 402.807 1001.8 407.707C1004.5 409.807 1007.3 411.807 1010.6 413.107C1013.7 414.407 1017 415.007 1019.8 417.007C1021.4 418.107 1022.9 415.507 1021.3 414.407C1019.1 412.907 1016.9 412.207 1014.5 411.307C1010.4 409.907 1007.1 408.007 1003.7 405.307C997.5 400.507 991.5 395.407 985.5 390.407C983.9 389.207 981.8 391.307 983.3 392.507Z" fill="black"/>
<path d="M999.7 391.108C1005.5 397.108 1012.5 401.508 1020.5 404.108C1022.3 404.708 1023.1 401.807 1021.3 401.207C1013.8 398.707 1007.3 394.607 1001.8 388.907C1000.5 387.607 998.3 389.708 999.7 391.108Z" fill="black"/>
<path d="M1073.3 420.207C1072.7 418.607 1071.8 416.507 1071.9 414.807C1072.3 410.407 1075.3 410.008 1078.2 409.508C1082.4 408.708 1086.8 408.607 1091.1 408.607C1098.4 408.507 1105.8 409.107 1113.1 409.407C1120.4 409.607 1127.6 409.207 1134.9 408.607C1137.9 408.307 1143.2 407.107 1146.1 408.107C1149.1 409.207 1149.9 410.708 1150 413.508C1150.1 415.708 1150.1 417.907 1150.2 420.207C1150.3 422.107 1153.3 422.107 1153.2 420.207C1153.1 416.807 1154.1 410.807 1152.4 407.607C1150.8 404.807 1147.1 405.107 1144.3 405.107C1132.9 405.107 1121.8 406.807 1110.3 406.307C1099.7 405.907 1089 405.007 1078.5 406.607C1069.9 407.907 1067.7 413.207 1070.6 421.207C1071 422.807 1073.9 422.007 1073.3 420.207Z" fill="black"/>
<path d="M1094.5 404.107C1095.3 402.307 1096 400.507 1096.8 398.707C1097.7 398.607 1098.6 398.507 1099.5 398.307C1100.7 398.207 1101.8 398.307 1103 398.207C1105.6 398.207 1108.1 398.107 1110.7 398.107C1116.2 398.007 1121.6 398.007 1127.1 397.907C1132.2 397.807 1137.4 397.807 1142.5 397.707C1143.8 397.707 1145.1 397.707 1146.4 397.607C1148 397.607 1148.5 397.207 1149 398.407C1149.6 399.907 1148.5 404.107 1148.3 405.707C1148.1 407.607 1151.1 407.607 1151.3 405.707C1151.5 403.307 1153 398.307 1151.8 396.107C1150.8 394.307 1149.3 394.607 1147.3 394.607C1137.7 394.607 1128 394.907 1118.4 395.007C1113.9 395.107 1109.4 395.107 1104.9 395.207C1101.5 395.207 1097.3 394.807 1094.2 396.407C1090.6 398.307 1088.9 403.207 1092.4 406.107C1093.9 407.407 1096 405.307 1094.5 404.107Z" fill="black"/>
<path d="M1115.1 391.907C1112.5 388.407 1123.4 388.807 1124.1 388.707C1126.5 388.507 1134.7 387.007 1133.1 392.407C1132.5 394.307 1135.4 395.007 1136 393.207C1136.7 390.807 1135.9 388.607 1134 387.007C1130.7 384.307 1126.6 385.607 1122.7 385.807C1119.6 385.907 1115.9 384.907 1113.4 387.307C1111.6 388.907 1111.1 391.407 1112.5 393.407C1113.7 394.907 1116.3 393.407 1115.1 391.907Z" fill="black"/>
<path d="M962.1 440.607C965.9 445.807 970.4 450.107 975.7 453.707C977.3 454.807 978.8 452.207 977.2 451.107C972.4 447.807 968.1 443.808 964.7 439.008C963.5 437.508 960.9 439.007 962.1 440.607Z" fill="black"/>
<path d="M975.3 452.707C978.6 452.707 981.9 452.707 985.2 452.707C987.1 452.707 990.2 453.207 991.9 452.307C993.2 451.607 993.6 450.007 994.2 448.807C995.8 445.607 997.7 442.607 999.9 439.707C1001.1 438.207 999 436.107 997.8 437.607C996.7 438.907 995.7 440.307 994.7 441.707C993.5 443.607 992.7 446.307 991.3 448.007C988.5 451.307 979.4 449.807 975.3 449.707C973.4 449.707 973.4 452.707 975.3 452.707Z" fill="black"/>
<path d="M986.399 440.407C987.199 443.407 987.999 446.507 988.899 449.507C989.399 451.407 992.3 450.607 991.8 448.707C991 445.707 990.2 442.607 989.3 439.607C988.8 437.707 985.899 438.507 986.399 440.407Z" fill="black"/>
<path d="M1108.3 439.907C1109.9 443.207 1111.6 446.407 1113.7 449.407C1114.8 451.007 1116.2 453.507 1118.1 454.407C1120.1 455.407 1122.9 454.607 1124.9 454.407C1128.5 454.007 1132.1 453.707 1135.7 453.307C1137.6 453.107 1137.6 450.107 1135.7 450.307C1133.3 450.507 1130.9 450.807 1128.5 451.007C1126.4 451.207 1123.3 452.107 1121.3 451.707C1116.1 450.707 1112.9 442.507 1110.9 438.307C1110 436.607 1107.4 438.107 1108.3 439.907Z" fill="black"/>
<path d="M1135.8 437.407C1134.6 441.707 1134 446.107 1134.1 450.507C1134.2 452.407 1137.2 452.407 1137.1 450.507C1137 446.307 1137.5 442.207 1138.6 438.207C1139.2 436.407 1136.3 435.607 1135.8 437.407Z" fill="black"/>
<path d="M1137.1 452.007C1141.1 448.207 1144.9 444.207 1148.6 440.107C1149.9 438.707 1147.8 436.507 1146.5 438.007C1142.8 442.107 1139 446.107 1135 449.907C1133.6 451.207 1135.7 453.307 1137.1 452.007Z" fill="black"/>
<path d="M582 35.528C582 63.728 582 91.828 582 120.028C582 121.928 585 121.928 585 120.028C585 91.828 585 63.728 585 35.528C585 33.628 582 33.628 582 35.528Z" fill="black"/>
<path d="M584.4 122.328C620.1 122.328 655.9 122.328 691.6 122.328C693.5 122.328 693.5 119.328 691.6 119.328C655.9 119.328 620.1 119.328 584.4 119.328C582.4 119.328 582.4 122.328 584.4 122.328Z" fill="black"/>
<path d="M584.4 37.0281C619.1 37.0281 653.7 37.0281 688.4 37.0281C690.3 37.0281 690.3 34.0281 688.4 34.0281C653.7 34.0281 619.1 34.0281 584.4 34.0281C582.4 34.0281 582.4 37.0281 584.4 37.0281Z" fill="black"/>
<path d="M688.4 35.528C688.4 63.728 688.4 91.828 688.4 120.028C688.4 121.928 691.4 121.928 691.4 120.028C691.4 91.828 691.4 63.728 691.4 35.528C691.4 33.628 688.4 33.628 688.4 35.528Z" fill="black"/>
<path d="M637.8 33.0281C637.7 31.7281 637.9 30.5281 638.5 29.3281C638.8 28.6281 640 26.8281 640.7 27.3281C641.5 27.8281 641.8 30.1281 641.9 30.9281C642.2 32.4281 642.2 33.9281 642 35.4281C641.8 37.3281 644.8 37.3281 645 35.4281C645.2 32.8281 645 30.2281 644.1 27.7281C643.5 26.1281 642.7 24.2281 640.8 24.0281C636.7 23.5281 634.6 29.8281 634.8 32.9281C634.9 35.0281 637.9 35.0281 637.8 33.0281Z" fill="black"/>
<path d="M587.699 45.2282C587.699 67.7282 587.699 90.1282 587.699 112.628C587.699 114.528 590.699 114.528 590.699 112.628C590.699 90.1282 590.699 67.7282 590.699 45.2282C590.699 43.3282 587.699 43.3282 587.699 45.2282Z" fill="black"/>
<path d="M589.2 114.128C620.6 114.128 652 114.128 683.4 114.128C685.3 114.128 685.3 111.128 683.4 111.128C652 111.128 620.6 111.128 589.2 111.128C587.3 111.128 587.3 114.128 589.2 114.128Z" fill="black"/>
<path d="M685.801 111.828C685.801 89.3282 685.801 66.9282 685.801 44.4282C685.801 42.5282 682.801 42.5282 682.801 44.4282C682.801 66.9282 682.801 89.3282 682.801 111.828C682.801 113.828 685.801 113.828 685.801 111.828Z" fill="black"/>
<path d="M589.999 47.5281C620.299 47.5281 650.599 47.5281 680.999 47.5281C682.899 47.5281 682.899 44.5281 680.999 44.5281C650.699 44.5281 620.399 44.5281 589.999 44.5281C588.099 44.5281 588.099 47.5281 589.999 47.5281Z" fill="black"/>
<path d="M590.5 98.2281C602.2 94.7281 614.1 91.6281 625.7 97.0281C634 100.928 641.2 106.828 650.5 108.528C652.4 108.828 653.2 106.028 651.3 105.628C640.7 103.628 632.7 95.9281 622.6 92.5281C611.7 88.9281 600.3 92.1281 589.7 95.3281C587.9 95.9281 588.7 98.8281 590.5 98.2281Z" fill="black"/>
<path d="M629.5 96.5281C643.8 91.5281 658.7 89.7282 673.7 91.2282C675.6 91.4282 675.6 88.4282 673.7 88.2282C658.4 86.7282 643.2 88.5282 628.7 93.6282C626.9 94.3282 627.7 97.2281 629.5 96.5281Z" fill="black"/>
<path d="M632.6 73.328C631.5 71.428 631.8 68.628 633.7 67.328C635.4 66.128 638.1 66.628 639.3 68.228C640.5 69.928 639.8 72.628 637.9 73.628C635.7 74.728 633.2 72.628 633.2 70.428C633.2 68.528 630.2 68.528 630.2 70.428C630.1 74.428 634.2 77.828 638.2 76.728C641.9 75.728 643.9 71.028 642.3 67.628C640.7 64.028 635.9 62.728 632.5 64.528C628.8 66.528 627.9 71.428 629.9 74.928C631 76.528 633.5 75.028 632.6 73.328Z" fill="black"/>
<path d="M1032.6 161.507C1036.2 166.307 1036.9 172.807 1041.3 177.007C1045.4 181.007 1050.3 180.407 1055.3 178.607C1057.1 178.007 1056.3 175.107 1054.5 175.707C1051.8 176.607 1048.7 177.607 1045.9 176.507C1043.5 175.507 1041.9 173.307 1040.7 171.007C1038.8 167.307 1037.7 163.307 1035.2 159.907C1034 158.407 1031.4 159.907 1032.6 161.507Z" fill="black"/>
<path d="M1054.9 177.407C1059.7 173.307 1063.9 168.607 1067.5 163.407C1068.6 161.807 1066 160.307 1064.9 161.907C1061.5 166.907 1057.4 171.407 1052.8 175.307C1051.3 176.507 1053.4 178.707 1054.9 177.407Z" fill="black"/>
<path d="M1047.6 160.408C1049 163.708 1049.6 167.108 1049.5 170.608C1049.4 172.508 1052.4 172.508 1052.5 170.608C1052.6 166.508 1051.8 162.608 1050.2 158.908C1049.5 157.108 1046.9 158.608 1047.6 160.408Z" fill="black"/>
<path d="M967.5 551.608C967.5 564.908 967.5 578.308 967.5 591.608C967.5 593.508 970.5 593.508 970.5 591.608C970.5 578.308 970.5 564.908 970.5 551.608C970.5 549.708 967.5 549.708 967.5 551.608Z" fill="black"/>
<path d="M930.999 597.107C966.299 597.107 1001.7 597.107 1037 597.107C1038.9 597.107 1038.9 594.107 1037 594.107C1001.7 594.107 966.299 594.107 930.999 594.107C929.099 594.107 929.099 597.107 930.999 597.107Z" fill="black"/>
<path d="M988.5 599.608C988.5 607.908 988.5 616.308 988.5 624.608C988.5 626.508 991.5 626.508 991.5 624.608C991.5 616.308 991.5 607.908 991.5 599.608C991.5 597.708 988.5 597.708 988.5 599.608Z" fill="black"/>
<path d="M929.999 629.107C961.299 629.107 992.699 629.107 1024 629.107C1025.9 629.107 1025.9 626.107 1024 626.107C992.699 626.107 961.299 626.107 929.999 626.107C928.099 626.107 928.099 629.107 929.999 629.107Z" fill="black"/>
<path d="M953.5 631.608C953.5 637.908 953.5 644.308 953.5 650.608C953.5 652.508 956.5 652.508 956.5 650.608C956.5 644.308 956.5 637.908 956.5 631.608C956.5 629.708 953.5 629.708 953.5 631.608Z" fill="black"/>
<path d="M963.5 147.407C963.5 143.207 962.7 137.907 963.5 133.807C964.6 128.007 972.7 129.107 977.4 128.807C979.3 128.707 979.3 125.707 977.4 125.807C973.6 126.007 969.6 126.007 965.8 126.607C964.1 126.907 962.6 127.407 961.6 128.907C960.4 130.707 960.6 133.207 960.6 135.307C960.6 139.307 960.6 143.407 960.6 147.407C960.5 149.407 963.5 149.407 963.5 147.407Z" fill="black"/>
<path d="M945.9 35.7074C955 33.2074 964.1 33.8074 972.8 37.3074C974.6 38.0074 975.4 35.1074 973.6 34.4074C964.4 30.7074 954.7 30.2074 945.1 32.8074C943.2 33.4074 944 36.3074 945.9 35.7074Z" fill="black"/>
<path d="M942.2 26.7074C950.2 21.2074 959.8 20.2073 968.8 23.8073C970.6 24.5073 971.4 21.6073 969.6 20.9073C960 17.0073 949.2 18.2073 940.7 24.1073C939.1 25.2073 940.6 27.8074 942.2 26.7074Z" fill="black"/>
<path d="M909.699 79.1073C906.499 81.3073 900.399 84.2073 899.499 88.4073C899.099 90.6073 900.099 92.6073 900.899 94.6073C902.299 98.1073 903.699 101.607 905.199 105.107C910.999 118.807 917.499 132.207 924.699 145.207C925.599 146.907 928.199 145.407 927.299 143.707C921.799 133.707 916.699 123.507 911.999 113.107C909.499 107.607 907.099 102.007 904.899 96.4073C903.599 93.1073 901.799 90.2073 904.199 86.8073C905.599 84.8073 909.199 83.1073 911.299 81.7073C912.799 80.6073 911.299 78.0073 909.699 79.1073Z" fill="black"/>
<path d="M804.5 921C683 900.2 551.5 877.8 430 857C494.5 805 551.5 754.5 566.5 741.5C686 758 787 767.5 906.5 781.5C873 826 857.5 859.5 804.5 921Z" fill="white" stroke="#161616" stroke-width="3" stroke-miterlimit="10"/>
<path d="M808.248 922.844C842.687 877.407 876.868 831.866 910.876 786.07C913.554 782.498 908.317 777.947 905.575 781.562C871.631 827.314 837.386 872.899 802.946 918.336C800.269 921.907 805.505 926.459 808.248 922.844Z" fill="#161616"/>
<path d="M786.697 818.883C818.153 820.625 849.559 823.822 880.722 828.523C882.638 828.767 882.713 825.759 880.797 825.516C849.634 820.815 818.228 817.618 786.772 815.876C784.783 815.753 784.709 818.761 786.697 818.883Z" fill="#161616"/>
<path d="M789.866 838.299C810.188 842.508 830.583 846.183 851.123 849.616C853.063 849.956 853.89 847.071 851.95 846.73C831.433 843.394 811.014 839.622 790.692 835.413C788.849 835.048 788.023 837.934 789.866 838.299Z" fill="#161616"/>
<path d="M793.392 860.685C804.547 863.263 815.726 865.937 826.881 868.515C828.748 868.977 829.575 866.092 827.708 865.63C816.553 863.052 805.373 860.377 794.218 857.799C792.351 857.337 791.525 860.223 793.392 860.685Z" fill="#161616"/>
<path d="M805.24 862.102C816.018 847.048 827.717 832.794 840.192 819.171C841.479 817.717 839.394 815.557 838.108 817.011C825.463 830.78 813.642 845.373 802.694 860.573C801.553 862.197 804.099 863.727 805.24 862.102Z" fill="#161616"/>
<path d="M799.297 839.447C805.705 832.078 812.112 824.709 818.496 817.243C819.782 815.789 817.698 813.629 816.411 815.083C810.004 822.452 803.596 829.821 797.213 837.287C796.023 838.718 798.108 840.877 799.297 839.447Z" fill="#161616"/>
<path d="M803.6 922.607C677.9 901.207 552.2 879.807 426.5 858.407C414.7 769.107 402.8 679.907 391 590.607C526.3 608.807 661.5 627.007 796.8 645.307C799.1 737.707 801.4 830.107 803.6 922.607Z" fill="white" stroke="#161616" stroke-width="3" stroke-miterlimit="10"/>
<path d="M579.599 768.107C568.699 764.707 562.799 755.507 561.899 744.407C560.999 733.107 563.199 722.207 573.699 716.307C582.999 711.107 594.099 712.607 602.399 718.907C610.699 725.207 618.099 738.107 611.399 748.007C610.299 749.607 612.899 751.107 613.999 749.507C621.199 738.907 614.399 724.907 605.599 717.607C596.499 710.107 584.199 707.807 573.499 713.107C561.099 719.207 557.899 731.607 558.899 744.507C559.899 757.007 566.499 767.307 578.799 771.107C580.599 771.607 581.399 768.707 579.599 768.107Z" fill="#161616"/>
<path d="M584.661 765.126C567.57 767.24 559.287 746.363 563.757 732.489C568.096 718.747 584.267 712.273 597.414 717.03C610.43 721.786 616.74 737.775 612.139 750.591C607.011 764.862 589.131 770.676 575.984 764.333C573.749 763.276 571.645 766.712 574.012 767.769C585.713 773.451 600.043 771.336 609.378 762.087C618.45 752.97 619.764 738.567 614.111 727.336C601.227 701.702 561.391 709.894 558.63 738.039C557.183 753.102 567.964 771.204 584.661 769.222C587.159 768.826 587.159 764.862 584.661 765.126Z" fill="#161616"/>
<path d="M796.801 645.208L805.601 920.708" stroke="#161616" stroke-width="3" stroke-miterlimit="10"/>
<path d="M797.4 645.007C800.1 735.607 802.8 826.207 805.5 916.807" stroke="#161616" stroke-width="3" stroke-miterlimit="10"/>
<path opacity="0.37" d="M628 624C634.5 627.4 690 658.8 693.9 712.8C696.1 742.6 681.5 765.2 672.3 779C622.7 853.6 524.6 866.8 498 869.6C536.7 895.3 671.9 980 819.7 975C852.6 973.9 885.4 968.393 923.9 920.393C947.9 880.5 951.4 855.1 951.4 833.393C941.9 827.493 916.4 795.293 906.9 789.393C859.9 834.893 856.9 860.393 804.8 923.6C801.2 831.2 799.1 738.4 795.5 646C740 639 683.4 631.3 628 624Z" fill="#3D3D3D"/>
<path opacity="0.5" d="M544.801 877.707C557.801 886.307 577.901 898.607 603.901 910.407C636.301 925.207 732.201 969.007 836.101 944.707C911.601 927.007 896.8 817.5 893 809.5C890.6 804.5 877 833.5 804.001 922.607C801.901 880.307 799.801 837.907 797.801 795.607C794.201 831.207 790.501 866.807 786.901 902.307C706.201 894.207 625.501 885.907 544.801 877.707Z" fill="#3D3D3D"/>
</svg>
