<svg width="560" height="519" viewBox="0 0 560 519" fill="none" xmlns="http://www.w3.org/2000/svg">
<path d="M135.699 242.549C142.699 250.408 149.299 258.881 154.999 268.213C158.799 274.353 162.699 286.633 169.499 288.352C173.499 289.334 176.699 286.756 179.699 283.809C183.799 279.756 187.799 275.581 191.899 271.406C195.999 267.231 199.999 263.179 204.099 259.004C206.999 256.057 210.299 253.355 210.499 248.32C210.699 243.531 208.199 239.97 205.899 236.409C202.699 231.375 199.399 226.34 196.199 221.305C192.999 216.271 189.699 211.236 186.499 206.201C184.099 202.517 181.899 197.606 177.899 196.5C174.299 195.518 170.999 198.097 167.999 200.061C163.999 202.64 160.099 205.587 156.399 208.657C149.099 214.797 142.299 221.796 136.099 229.655C134.199 232.111 134.399 236.655 136.999 238.374C143.499 242.426 149.699 247.215 155.299 253.109C157.799 255.688 160.199 258.513 162.499 261.46C163.599 262.933 164.699 264.407 165.799 266.003C166.499 266.985 167.199 268.091 167.899 269.073C168.799 272.02 170.099 271.897 171.699 268.459C172.099 271.775 172.399 275.213 172.799 278.528C183.199 270.792 192.699 261.214 200.899 250.162C204.299 245.496 199.999 238.374 195.399 241.444C188.399 246.11 181.199 249.917 173.699 252.864C175.399 255.565 177.099 258.267 178.799 260.968C182.999 252.741 188.199 245.619 194.299 239.356C191.899 237.146 189.599 234.936 187.199 232.602C181.699 242.672 174.799 251.513 166.899 258.758C169.099 260.846 171.299 262.933 173.499 265.021C176.099 253.478 181.399 243.286 189.299 236.041C187.199 233.462 185.199 231.006 183.099 228.427C178.599 239.356 172.299 248.689 164.199 255.811C165.699 255.811 167.199 255.811 168.699 255.811C168.999 256.179 169.199 256.671 169.499 257.039C169.699 256.057 169.899 255.074 170.099 254.215C170.399 252.987 170.699 251.759 171.099 250.408C171.999 247.092 173.199 244.023 174.499 240.953C176.999 235.181 180.099 230.147 183.799 225.48C181.399 223.27 179.099 221.06 176.699 218.727C171.399 232.111 164.099 243.777 154.899 253.601C157.499 254.951 159.999 256.179 162.599 257.53C163.699 243.04 168.799 229.778 177.099 219.341C174.699 217.13 172.399 214.92 169.999 212.587C165.899 222.41 159.899 230.147 152.099 235.672C154.399 237.269 156.599 238.865 158.899 240.461C158.799 236.041 159.299 231.743 160.999 227.813C161.699 226.094 162.599 224.498 163.599 223.147C165.199 220.814 168.199 220.2 165.399 217.99C164.099 216.025 163.399 216.148 163.299 218.604C162.799 219.832 162.399 221.06 161.899 222.288C161.099 224.13 160.299 225.849 159.499 227.568C158.599 229.287 157.699 231.006 156.699 232.602C155.899 233.83 155.199 235.058 154.299 236.286C152.899 237.269 152.799 238.006 153.999 238.374C154.699 239.479 155.399 240.584 156.099 241.689C155.099 237.76 158.399 230.392 159.899 227.077C160.799 225.235 165.999 214.674 168.299 215.288C169.399 215.534 170.899 222.41 171.299 223.638C172.099 226.34 172.799 229.164 173.299 231.989C173.799 234.813 174.399 237.76 174.399 240.584C174.399 243.9 174.399 244.023 172.199 241.689C165.899 235.058 165.199 218.235 174.499 214.429C179.199 212.464 180.599 219.832 181.699 224.007C183.299 230.024 184.799 236.164 186.399 242.303C188.899 240.461 191.399 238.742 193.899 236.9C188.299 230.147 185.299 221.551 185.099 211.85C183.199 213.569 181.299 215.411 179.399 217.13C189.899 222.042 191.599 238.251 192.999 250.04C193.799 257.039 202.499 254.092 201.699 247.092C199.699 230.392 195.999 212.955 181.799 206.447C179.099 205.219 175.999 208.412 176.099 211.727C176.299 224.252 180.299 235.672 187.499 244.514C190.599 248.32 196.399 244.514 194.999 239.111C193.199 232.111 191.599 225.112 189.599 218.235C188.199 213.323 186.399 208.166 182.699 205.219C174.699 198.711 165.299 206.079 161.199 215.043C156.499 225.48 157.699 238.497 164.099 247.338C169.399 254.583 179.699 258.513 182.599 246.356C185.199 235.55 180.699 219.586 176.299 210.254C170.299 197.728 160.399 207.184 155.299 215.288C152.599 219.586 150.499 224.252 148.999 229.287C147.599 233.953 145.299 241.567 148.099 246.11C154.699 256.671 164.199 238.742 167.099 232.848C169.599 227.936 173.199 221.182 172.599 215.043C171.999 209.271 167.599 206.57 163.399 208.78C154.199 213.692 149.499 228.796 149.899 240.216C149.999 244.391 153.599 247.092 156.699 245.005C165.699 238.62 172.999 229.287 177.799 217.99C180.099 212.587 174.399 206.692 170.699 211.236C160.699 223.761 154.899 239.725 153.599 257.162C153.199 262.319 158.599 263.916 161.299 261.091C170.999 250.776 178.899 238.128 184.499 224.007C186.599 218.604 181.199 212.587 177.399 217.253C171.599 224.621 166.999 233.094 163.799 242.549C161.699 248.812 157.299 260.723 164.099 265.021C165.499 265.88 167.299 266.126 168.599 265.021C177.999 256.793 185.599 246.356 190.799 233.708C192.599 229.287 188.599 222.533 184.599 226.094C174.799 235.181 167.899 247.215 164.699 261.705C163.699 266.003 167.999 270.915 171.299 267.968C180.599 259.618 188.399 249.671 194.899 237.883C197.899 232.357 191.499 227.445 187.799 231.129C181.099 237.883 175.499 245.865 170.899 254.951C168.799 259.004 172.299 264.53 175.999 263.056C184.299 259.863 192.299 255.688 199.899 250.531C198.099 247.584 196.299 244.759 194.399 241.812C186.699 252.25 177.899 261.214 168.099 268.459C164.499 271.161 165.699 276.809 169.199 278.528C173.399 280.616 177.899 276.441 178.099 271.161C178.399 264.775 172.999 258.758 169.799 254.583C161.699 243.777 151.999 234.936 141.399 228.427C141.699 231.375 141.999 234.199 142.299 237.146C146.999 231.252 151.999 225.849 157.299 220.937C162.099 216.516 168.099 210.622 173.799 208.289C175.499 207.552 175.399 207.184 176.799 208.903C178.199 210.622 179.299 212.709 180.399 214.551C182.599 217.99 184.899 221.551 187.099 224.989C189.499 228.796 191.999 232.603 194.399 236.409C195.699 238.497 200.999 244.759 200.599 247.092C200.199 249.794 194.699 253.723 192.899 255.565C190.099 258.39 187.299 261.214 184.499 264.038C181.699 266.863 178.899 269.687 176.099 272.511C174.899 273.739 172.299 277.3 170.199 275.95C169.399 275.458 167.999 271.775 167.499 270.915C160.199 257.407 151.499 245.251 141.799 234.322C137.799 230.024 131.399 237.76 135.699 242.549Z" fill="#20a5a0"/>
<path d="M140.499 232.725C144.099 241.321 166.699 289.212 176.299 272.88C179.699 267.108 171.899 261.582 168.499 267.354C168.299 267.599 168.199 267.968 167.999 268.213C169.299 267.354 170.599 266.371 171.899 265.512C170.199 265.758 166.099 258.758 164.999 257.162C162.799 254.092 160.599 251.022 158.599 247.706C154.699 241.198 151.299 234.322 148.299 227.2C145.699 220.814 137.899 226.463 140.499 232.725Z" fill="#20a5a0"/>
<path d="M319.399 81.0719C308.699 71.4938 304.599 51.8464 311.299 37.4792C314.599 30.357 320.599 24.5856 327.599 25.568C334.799 26.5503 338.299 32.9358 338.799 41.2859C339.099 45.9522 338.699 50.7412 338.599 55.4075C338.399 59.8282 338.799 64.9856 337.799 69.2835C336.799 73.5813 333.199 75.9144 331.799 80.2123C330.599 83.8962 331.899 87.0889 328.399 88.3169C327.399 88.6853 325.999 88.5625 325.099 88.9309C323.499 88.6853 323.499 89.0536 325.099 89.9132C324.699 88.3169 324.399 86.8433 323.999 85.247C322.699 79.8439 321.399 74.3181 320.099 68.9151C317.899 59.8282 313.299 46.4433 319.099 37.9704C316.699 38.3388 314.299 38.7072 311.799 39.0756C315.299 42.2683 313.999 55.2847 314.199 59.7054C314.499 68.9151 314.799 78.1248 315.099 87.3345C315.399 97.0354 326.299 96.667 327.099 87.3345C327.899 77.6336 326.799 68.0555 326.499 58.2318C326.299 54.0567 326.299 49.7589 326.799 45.5838C326.999 43.4962 327.399 41.5315 327.899 39.5667C328.199 38.216 328.699 36.8652 329.199 35.6373C330.299 33.5497 330.299 33.3041 329.299 34.9005C327.799 35.1461 326.199 35.3917 324.699 35.6373C324.399 35.5145 325.799 40.0579 325.999 41.0403C326.399 42.8822 326.599 44.847 326.799 46.6889C327.199 51.8464 327.199 57.1266 326.999 62.284C326.899 64.6172 326.699 66.9503 326.399 69.4063C326.199 70.8798 325.999 72.3534 325.799 73.8269C324.799 76.774 326.499 77.5108 330.899 75.6689C331.299 74.6865 330.199 70.757 330.099 69.6518C329.899 67.0731 329.799 64.3716 329.899 61.7929C329.999 56.7582 330.499 51.9692 331.499 47.0573C331.799 45.5838 332.099 44.233 332.499 42.7594C333.999 39.5667 332.399 38.4616 327.699 39.5667C327.299 40.4263 328.899 45.0926 329.099 45.9522C329.999 51.1096 330.199 56.3898 329.799 61.6701C329.599 64.126 329.399 72.1078 327.099 72.7217C319.599 74.9321 322.799 89.1764 330.299 86.9661C338.199 84.633 340.399 74.8093 341.399 66.0907C342.499 55.7759 342.099 44.1102 338.899 34.4093C335.799 25.0768 326.699 24.954 322.699 33.5497C318.699 42.1455 317.799 54.3023 317.899 64.0032C317.999 71.8622 318.099 85.3698 325.799 88.1941C334.299 91.264 337.299 79.9667 338.199 72.1078C339.399 61.7929 339.699 51.2324 338.299 40.9175C337.299 33.3041 333.299 18.6914 324.799 21.5157C316.599 24.0944 314.999 41.6543 314.599 50.0044C314.099 62.5296 316.299 74.9321 315.299 87.4573C319.299 87.4573 323.299 87.4573 327.299 87.4573C326.899 75.0549 326.499 62.6525 325.999 50.25C325.699 40.7947 324.499 32.4446 317.999 26.5504C316.099 24.7084 312.299 25.4452 310.699 27.6555C304.099 37.2336 303.599 49.0221 305.899 60.8105C307.099 67.1959 308.799 73.5813 310.299 79.8439C311.699 85.7382 312.499 92.8603 315.099 98.0178C319.199 106.368 330.599 104.403 336.499 100.105C339.599 97.895 341.699 94.2111 342.499 89.9132C342.999 87.2117 342.799 86.1065 344.199 83.8962C345.799 81.4403 347.399 79.4755 348.399 76.5284C350.099 71.8622 350.199 66.7047 350.399 61.7929C350.599 55.6531 351.099 49.3905 350.999 43.1279C350.799 32.199 347.899 21.8841 340.199 15.6215C325.399 3.58742 306.799 14.7619 299.799 32.9357C291.599 54.4251 298.199 79.8439 313.499 93.5971C319.599 99.3685 325.599 86.5977 319.399 81.0719Z" fill="#FF1493"/>
<path d="M318.799 113.613C320.799 117.542 324.399 119.016 327.999 117.665C329.599 117.051 330.999 115.946 332.199 114.595C332.499 114.227 332.899 113.858 333.199 113.367C333.499 112.999 333.399 112.999 332.999 113.49C334.899 112.262 333.399 111.894 328.599 112.139C330.999 114.595 334.799 115.209 337.099 112.139C339.199 109.438 339.599 104.403 337.099 101.702C334.199 98.6318 330.499 98.1406 327.099 100.597C325.999 101.333 324.899 102.438 324.099 103.666C323.399 104.772 324.999 102.93 323.899 103.912C324.099 103.789 324.299 103.666 324.499 103.666C322.399 104.28 323.899 105.14 328.999 106.245C327.299 102.93 323.599 101.333 320.799 103.544C318.299 105.631 316.999 110.175 318.799 113.613Z" fill="#FF1493"/>
<path d="M321.599 123.314C321.599 123.682 321.599 124.051 321.599 124.419C321.599 126.261 322.299 128.348 323.399 129.576C324.399 130.804 326.099 131.787 327.599 131.787C329.199 131.664 330.799 131.05 331.799 129.576C332.899 128.103 333.599 126.384 333.599 124.419C333.599 124.051 333.599 123.682 333.599 123.314C333.599 121.472 332.899 119.384 331.799 118.156C330.799 116.928 329.099 115.946 327.599 115.946C325.999 116.069 324.399 116.683 323.399 118.156C322.299 119.507 321.599 121.226 321.599 123.314Z" fill="#FF1493"/>
<path d="M194.899 405.009C194.899 404.64 194.899 404.272 194.899 403.903C194.899 394.448 182.899 394.448 182.899 403.903C182.899 404.272 182.899 404.64 182.899 405.009C182.899 414.587 194.899 414.587 194.899 405.009C194.899 404.64 194.899 404.272 194.899 403.903C194.899 394.448 182.899 394.448 182.899 403.903C182.899 404.272 182.899 404.64 182.899 405.009C182.899 414.587 194.899 414.587 194.899 405.009Z" fill="#FF1493"/>
<path d="M99.0987 302.228C106.799 302.228 106.799 287.492 99.0987 287.492C91.3987 287.492 91.3987 302.228 99.0987 302.228Z" fill="#FF1493"/>
<path d="M126.199 308.736C131.999 308.736 131.999 297.685 126.199 297.685C120.399 297.685 120.399 308.736 126.199 308.736Z" fill="#20a5a0"/>
<path d="M493.699 28.0239C499.499 28.0239 499.499 16.9722 493.699 16.9722C487.899 16.9722 487.899 28.0239 493.699 28.0239Z" fill="#20a5a0"/>
<path d="M550.099 195.027C550.099 195.764 550.099 196.378 550.099 197.114C550.099 198.588 550.599 200.061 551.399 201.044C552.199 202.026 553.499 202.763 554.599 202.64C555.799 202.517 556.999 202.149 557.799 201.044C558.599 199.939 559.099 198.588 559.099 197.114C559.099 196.378 559.099 195.764 559.099 195.027C559.099 193.553 558.599 192.08 557.799 191.097C556.999 190.115 555.699 189.378 554.599 189.501C553.399 189.624 552.199 189.992 551.399 191.097C550.599 192.203 550.099 193.553 550.099 195.027Z" fill="#20a5a0"/>
<path d="M513.799 107.35C530.799 110.666 554.599 120.367 548.299 147.627C545.399 160.153 537.399 169.117 529.499 177.098C521.699 184.835 513.999 192.448 506.899 201.166C500.099 209.517 493.899 218.604 488.199 228.182C483.699 235.795 477.499 245.25 478.199 255.442C478.799 264.529 485.299 266.74 491.199 269.564C499.699 273.616 508.699 280.738 511.999 291.667C516.399 306.403 507.199 319.419 498.499 328.138C490.699 335.997 482.199 342.751 476.899 353.557C475.899 355.644 478.499 357.486 479.499 355.399C488.999 335.751 513.199 327.892 515.899 303.087C516.999 293.387 513.399 284.3 507.699 277.791C504.899 274.476 501.599 271.774 498.199 269.441C494.099 266.74 489.299 265.635 485.299 262.81C474.099 254.828 488.099 234.444 492.899 226.708C499.799 215.534 507.499 205.219 515.999 195.886C529.599 180.66 550.899 167.152 552.399 141.733C553.899 115.946 531.399 107.227 514.799 104.035C512.699 103.421 511.899 106.982 513.799 107.35Z" fill="#161616"/>
<path d="M218.399 103.421C200.599 130.313 180.499 154.749 158.299 176.116C136.499 197.114 112.799 213.815 88.6986 230.392C66.4986 245.742 44.0987 261.459 25.0987 282.703C16.5987 292.159 7.19864 303.21 2.39864 316.349C-1.30136 326.542 -1.60136 339.803 7.89864 345.084C13.0986 347.908 19.1987 346.926 24.5987 345.821C33.3987 343.979 42.0987 341.645 50.7987 339.558C59.6987 337.47 68.5986 335.26 77.4986 333.173C85.9986 331.208 101.899 329.366 102.299 344.961C102.399 347.294 105.399 347.294 105.299 344.961C104.899 330.471 92.2987 326.787 82.5987 328.261C67.7987 330.594 53.1986 335.137 38.4986 338.576C28.1986 341.031 0.698647 351.224 2.69865 327.033C3.99865 311.438 15.9986 297.93 24.6986 287.738C43.0986 266.371 65.1986 250.531 87.1986 235.304C110.299 219.34 133.299 203.622 154.499 183.975C178.899 161.258 200.999 134.979 220.299 105.877C221.699 104.157 219.599 101.579 218.399 103.421Z" fill="#161616"/>
<path d="M59.2985 355.644C50.4985 368.661 40.1985 384.01 41.7985 402.061C42.9985 415.937 51.0985 428.954 63.2985 427.971C71.0985 427.357 77.9985 422.077 84.7985 418.025C93.2985 412.99 101.998 408.447 110.998 405.131C119.898 401.938 129.198 399.851 138.498 399.605C145.898 399.483 154.298 400.097 160.498 405.745C169.898 414.095 164.098 426.62 159.098 435.953C154.198 444.917 149.898 454.127 146.098 463.828C142.698 472.669 139.698 481.879 137.298 491.211C135.498 498.211 133.398 506.438 137.798 512.578C147.198 525.963 161.498 514.543 169.398 505.456C181.498 491.58 194.598 480.037 209.698 471.441C226.598 461.863 244.998 456.214 263.498 454.986C272.898 454.372 282.398 454.741 291.698 456.583C299.998 458.179 309.298 461.372 313.198 471.564C313.998 473.651 316.598 471.81 315.798 469.722C310.398 455.355 295.598 453.145 284.198 451.794C269.298 450.075 254.098 451.425 239.498 455.355C224.898 459.284 210.598 465.915 197.598 475.002C191.198 479.423 185.198 484.458 179.398 489.983C172.898 496.246 167.398 503.982 160.798 509.754C154.898 514.911 142.298 518.718 138.798 507.42C137.098 501.895 139.298 495.509 140.698 490.106C142.198 484.458 143.898 478.932 145.798 473.529C149.098 463.951 152.998 454.741 157.398 445.9C161.298 438.163 167.098 430.304 168.498 421.095C170.798 406.114 158.798 398.377 148.498 396.535C133.198 393.957 116.998 398.255 102.598 404.64C93.7985 408.569 85.4985 413.604 77.0985 418.639C68.3985 423.919 57.5985 427.971 50.1985 417.534C36.3985 398.132 50.8985 373.695 61.3985 358.1C62.6985 356.381 60.5985 353.802 59.2985 355.644Z" fill="#161616"/>
<path d="M116.799 417.779C126.199 414.095 134.499 425.393 134.699 436.321C134.899 447.864 128.699 457.811 122.499 465.67C121.099 467.389 123.299 469.968 124.599 468.248C132.199 458.67 140.099 445.04 137.099 430.796C134.699 419.621 125.499 410.534 115.999 414.218C114.199 414.955 114.899 418.516 116.799 417.779Z" fill="#161616"/>
<path d="M466.099 100.965C470.699 105.631 476.099 106.613 481.799 108.087C487.999 109.683 493.399 112.63 497.699 118.525C505.799 129.699 508.299 146.522 502.299 159.784C501.399 161.872 503.899 163.714 504.899 161.626C510.699 148.855 509.499 133.137 503.099 121.103C500.099 115.455 495.899 110.543 490.799 107.596C483.599 103.421 474.599 104.771 468.199 98.386C466.699 96.9124 464.599 99.4911 466.099 100.965Z" fill="#161616"/>
<path d="M99.3987 362.521C105.099 381.309 123.199 376.52 134.299 369.152C141.399 364.486 147.999 358.469 153.799 351.592C159.999 344.101 164.999 335.26 171.099 327.647C177.799 319.297 187.199 311.683 197.299 313.771C206.399 315.613 211.899 325.559 217.699 333.173C225.299 342.996 240.599 353.066 248.299 337.47C249.299 335.383 246.699 333.541 245.699 335.628C240.799 345.452 230.399 342.014 224.399 336.12C218.999 330.717 215.099 323.349 209.799 317.823C199.799 307.262 187.299 308.245 176.699 317.086C164.999 326.787 157.899 342.873 147.199 354.048C140.899 360.556 133.599 366.573 125.799 370.134C117.499 373.941 105.899 373.695 102.299 361.661C101.599 359.328 98.6987 360.31 99.3987 362.521Z" fill="#161616"/>
<path d="M124.398 248.075C137.198 261.705 147.898 277.914 156.198 296.088C157.098 298.176 159.698 296.334 158.798 294.246C150.398 275.704 139.598 259.372 126.498 245.496C125.098 243.9 122.898 246.601 124.398 248.075Z" fill="#161616"/>
<path d="M126.999 244.145C137.799 226.585 153.099 208.657 170.099 200.675C172.799 199.447 175.899 198.342 178.799 199.202C182.399 200.184 184.499 203.991 186.599 207.429C189.599 212.218 192.499 217.13 195.399 222.042C201.099 231.866 206.499 242.058 211.599 252.373C212.599 254.337 215.199 252.495 214.199 250.531C207.799 237.637 200.899 224.989 193.599 212.832C188.099 203.622 183.099 192.816 172.399 195.886C163.099 198.588 154.199 206.938 146.899 213.937C138.399 222.165 130.899 231.743 124.299 242.303C123.299 244.145 125.899 245.987 126.999 244.145Z" fill="#161616"/>
<path d="M157.999 297.684C178.399 287.124 196.599 271.652 211.699 251.759C212.999 250.039 210.899 247.461 209.599 249.18C194.899 268.582 177.099 283.931 157.199 294.123C155.399 295.106 156.199 298.667 157.999 297.684Z" fill="#161616"/>
<path d="M138.599 246.601C149.999 233.953 162.699 223.515 176.699 215.534C178.399 214.551 176.899 211.359 175.199 212.341C160.999 220.445 148.099 231.129 136.499 244.022C134.999 245.496 137.199 248.197 138.599 246.601Z" fill="#161616"/>
<path d="M146.899 252.741C153.099 247.215 159.299 241.812 165.499 236.286C167.099 234.935 165.599 231.743 163.999 233.094C157.799 238.619 151.599 244.022 145.399 249.548C143.799 251.022 145.299 254.214 146.899 252.741Z" fill="#161616"/>
<path d="M151.099 261.214C161.499 252.25 171.899 243.163 182.299 234.199C183.899 232.848 182.399 229.655 180.799 231.006C170.399 239.97 159.999 249.057 149.599 258.021C147.999 259.372 149.499 262.565 151.099 261.214Z" fill="#161616"/>
<path d="M159.899 271.283C166.299 264.898 172.999 259.249 179.999 253.969C181.699 252.741 180.099 249.548 178.499 250.776C171.199 256.056 164.299 262.073 157.799 268.582C156.299 270.178 158.399 272.757 159.899 271.283Z" fill="#161616"/>
<path d="M164.499 281.352C173.899 271.897 184.099 264.038 194.999 257.53C196.699 256.548 195.199 253.355 193.499 254.337C182.299 260.968 171.999 269.196 162.399 278.774C160.899 280.247 162.999 282.826 164.499 281.352Z" fill="#161616"/>
<path d="M304.799 92.7374C291.899 85.3696 284.199 68.3009 284.899 50.8638C285.699 33.0584 295.499 16.8492 307.999 8.3763C315.799 3.09605 324.099 1.4997 331.999 7.14833C339.199 12.183 344.299 20.9015 347.199 30.2341C352.399 47.1799 350.499 66.459 342.299 81.5629C341.199 83.5276 343.799 85.3696 344.899 83.4048C358.499 58.4772 355.399 15.1301 330.499 2.23648C317.999 -4.27172 304.699 4.44682 295.699 15.2529C286.899 25.8134 281.199 40.9173 281.899 56.144C282.699 72.9671 290.699 88.8079 303.199 96.0528C304.999 96.9124 306.499 93.7197 304.799 92.7374Z" fill="#161616"/>
<path d="M303.399 97.158C300.799 100.596 301.499 105.877 304.699 108.455C309.899 112.63 318.899 108.824 324.399 107.227C330.299 105.508 339.199 103.912 343.199 97.5264C345.599 93.5969 345.599 88.1939 342.499 84.8784C340.999 83.4049 338.899 85.9835 340.399 87.4571C344.999 92.2462 338.999 97.772 335.399 99.4912C332.399 100.842 329.299 101.947 326.199 102.929C323.299 103.789 320.399 104.649 317.499 105.263C315.699 105.631 313.699 106.245 311.899 106.368C309.299 106.491 301.799 104.771 305.599 99.8595C306.899 98.0176 304.799 95.4389 303.399 97.158Z" fill="#161616"/>
<path d="M309.199 110.297C309.599 117.542 314.599 122.208 320.399 122.7C328.399 123.314 334.399 115.086 339.099 108.332C340.299 106.491 338.199 103.912 336.999 105.754C333.699 110.543 329.999 116.069 325.099 118.156C320.099 120.367 312.699 117.911 312.299 110.297C312.099 107.964 309.099 107.964 309.199 110.297Z" fill="#161616"/>
<path d="M317.299 124.05C316.499 129.085 318.999 134.365 323.299 135.225C327.699 136.084 331.499 131.295 331.599 126.138C331.599 123.805 328.599 123.805 328.599 126.138C328.599 129.208 326.199 132.278 323.499 131.541C321.199 130.927 319.699 127.734 320.199 125.033C320.599 122.7 317.699 121.717 317.299 124.05Z" fill="#161616"/>
<path d="M296.799 46.3203C305.399 53.0741 311.999 62.5295 316.199 73.9495C316.999 76.1598 319.599 74.1951 318.799 72.1076C314.399 60.0735 307.399 50.2499 298.299 43.1277C296.599 41.8997 295.099 45.0924 296.799 46.3203Z" fill="#161616"/>
<path d="M312.199 37.3563C314.099 55.0389 316.099 72.7216 317.999 90.2815C318.299 92.6146 321.099 91.6322 320.899 89.2991C318.999 71.6164 316.999 53.9338 315.099 36.3739C314.799 34.0408 311.999 35.0231 312.199 37.3563Z" fill="#161616"/>
<path d="M317.399 67.4413C319.999 55.8985 325.999 46.566 334.499 40.6718C336.199 39.5666 334.699 36.3739 332.999 37.479C323.899 43.7417 317.299 54.0566 314.499 66.459C313.999 68.7921 316.899 69.7745 317.399 67.4413Z" fill="#161616"/>
<path d="M208.399 383.151C212.399 393.834 216.699 404.394 221.499 414.587C223.899 419.621 227.099 429.199 232.999 426.129C234.799 425.147 233.199 422.077 231.499 422.937C227.699 424.901 220.899 405.868 219.599 402.798C216.499 395.799 213.699 388.554 210.999 381.309C210.199 379.098 207.599 380.94 208.399 383.151Z" fill="#161616"/>
<path d="M211.098 385.361C219.598 377.256 227.898 368.906 236.498 361.047C243.998 354.048 252.098 347.294 261.298 344.101C271.198 340.54 279.798 343.365 286.398 353.188C291.998 361.538 295.398 371.853 299.198 381.431C299.998 383.519 302.598 381.677 301.798 379.59C294.498 361.17 285.898 335.137 265.398 339.19C255.198 341.154 245.998 348.031 237.698 355.399C227.898 364.24 218.498 373.695 208.898 382.905C207.498 384.256 209.598 386.835 211.098 385.361Z" fill="#161616"/>
<path d="M228.899 426.498C254.999 419.498 279.199 404.517 299.499 383.151C300.999 381.554 298.799 378.975 297.399 380.572C277.499 401.57 253.699 416.06 228.099 423.059C226.199 423.551 226.999 427.112 228.899 426.498Z" fill="#161616"/>
<path d="M253.199 391.869C247.899 390.273 243.499 383.887 244.799 376.888C245.999 370.134 252.699 365.222 257.999 368.415C268.699 375.046 261.399 393.957 250.399 389.168C248.599 388.431 247.799 391.992 249.599 392.729C255.799 395.43 263.299 391.746 265.699 384.01C268.099 376.397 264.199 367.187 258.099 364.486C251.499 361.539 243.999 367.064 242.099 375.169C239.899 384.256 245.299 393.22 252.399 395.43C254.299 396.044 255.099 392.483 253.199 391.869Z" fill="#161616"/>
<path d="M306.499 298.667C305.299 285.528 305.199 270.546 317.899 266.985C324.299 265.143 329.599 262.81 333.299 255.565C337.099 248.197 336.599 241.321 335.099 233.216C333.999 226.831 334.099 221.305 338.299 216.516C341.699 212.709 346.199 211.236 350.599 212.955C352.399 213.692 353.199 210.131 351.399 209.394C344.999 206.938 338.299 210.008 334.199 216.516C327.899 226.708 335.299 237.023 332.799 247.952C331.299 254.46 327.199 259.986 321.899 262.196C317.599 263.915 312.999 263.793 309.399 267.476C301.799 275.09 302.499 287.983 303.499 298.667C303.699 301 306.699 301 306.499 298.667Z" fill="#FF1493"/>
<path d="M282.098 229.901C278.998 226.831 281.498 219.954 285.498 222.533C287.098 223.515 288.098 225.849 287.198 227.936C286.298 230.024 283.998 231.129 282.298 230.024C280.598 228.918 279.098 232.111 280.798 233.216C283.898 235.058 287.698 233.708 289.598 230.269C291.598 226.585 290.298 221.919 287.398 219.709C284.498 217.498 280.598 218.112 278.698 221.796C276.998 225.235 277.398 230.024 279.998 232.602C281.498 233.953 283.598 231.374 282.098 229.901Z" fill="#161616"/>
<path d="M418.899 39.5666C417.099 36.0055 415.998 31.462 417.098 27.4097C417.998 23.9714 420.798 21.8839 423.698 22.2523C426.898 22.6207 428.599 26.3046 426.899 29.7429C425.399 32.9356 422.299 34.5319 419.399 34.0407C417.499 33.7951 417.499 37.479 419.399 37.7246C423.699 38.3386 428.398 35.1459 429.998 30.1113C431.498 25.5678 429.598 20.5332 425.798 19.0596C422.198 17.586 417.798 19.3052 415.598 23.1119C412.298 28.6377 413.598 36.1283 416.298 41.6541C417.298 43.3733 419.899 41.5313 418.899 39.5666Z" fill="#161616"/>
<path d="M257.599 190.115C262.999 202.149 273.999 208.903 285.099 206.938C298.699 204.482 305.999 191.711 311.399 177.467C317.699 161.012 326.399 147.504 340.299 140.259C352.899 133.751 369.199 137.067 379.599 124.91C383.599 120.244 386.299 113.736 385.399 106.859C384.699 101.579 382.099 97.158 383.099 91.6322C384.299 85.6152 388.099 81.1945 392.899 79.9665C394.799 79.4754 393.999 75.9142 392.099 76.4054C386.299 78.0018 381.599 83.4048 380.199 90.6498C379.399 94.5793 379.999 98.1404 380.999 101.947C382.599 108.087 383.199 113.122 379.899 118.77C374.099 128.717 363.899 130.067 354.799 131.664C346.699 133.137 339.099 135.839 332.099 140.996C325.899 145.54 320.399 151.68 316.099 158.802C311.399 166.661 308.799 175.87 304.999 184.343C300.199 194.781 292.299 202.763 282.199 203.5C272.999 204.114 264.399 198.097 259.899 188.15C259.299 186.185 256.699 188.027 257.599 190.115Z" fill="#161616"/>
<path d="M235.598 25.1994C237.498 23.2347 240.298 25.1994 239.798 28.2693C239.398 30.6024 242.298 31.5848 242.698 29.2517C243.198 26.3046 242.298 23.2347 240.098 21.6383C237.898 20.042 235.298 20.6559 233.398 22.6207C231.998 24.0942 234.098 26.673 235.598 25.1994Z" fill="#161616"/>
<path d="M236.499 24.7082C235.999 27.2869 235.099 29.62 233.799 31.7076C234.599 32.3215 235.499 32.9355 236.299 33.5495C236.899 30.848 238.099 28.5149 239.799 26.5501C238.999 26.4273 238.199 26.3045 237.399 26.1817C237.899 27.5325 237.499 29.006 236.499 29.7428C237.199 30.1112 237.999 30.4796 238.699 30.848C238.299 29.1289 238.599 27.5325 239.499 26.1817C238.899 26.3045 238.299 26.4273 237.699 26.4273C238.499 26.9185 238.399 28.2693 237.599 28.7605C238.199 28.8833 238.799 29.0061 239.399 29.0061C238.799 28.3921 238.299 27.6553 237.999 26.7957C237.899 26.4273 237.799 26.0589 237.699 25.5678C237.699 25.3222 237.499 22.7435 237.199 23.4802C236.299 25.5678 238.899 27.4097 239.799 25.3222C241.199 22.1295 237.599 19.3051 235.599 21.8839C233.499 24.7082 235.399 29.3745 237.399 31.462C237.899 32.076 238.599 32.1988 239.199 31.7076C241.999 29.9884 241.999 24.831 239.299 22.989C238.799 22.6206 237.899 22.6206 237.499 23.2346C235.899 25.5678 235.299 28.5149 235.899 31.462C236.099 32.5672 237.299 33.1811 238.099 32.5672C240.599 30.7252 241.299 27.0413 240.099 23.9714C239.699 22.8662 238.399 22.8662 237.699 23.603C235.599 25.9361 234.199 28.8832 233.499 32.1987C233.099 33.7951 234.999 35.5142 235.999 34.0407C237.599 31.462 238.799 28.6377 239.499 25.4449C239.899 23.3574 236.999 22.3751 236.499 24.7082Z" fill="#161616"/>
<path d="M230.899 43.9872C228.899 57.2492 224.399 69.4061 217.299 79.721C216.099 81.5629 218.199 84.1416 219.399 82.2997C226.799 71.3708 231.699 58.8456 233.799 44.8468C234.099 42.6365 231.199 41.6541 230.899 43.9872Z" fill="#161616"/>
<path d="M209.998 59.3368C199.598 68.7921 188.599 77.265 177.199 84.7556C175.499 85.8608 176.999 89.0535 178.699 87.9483C190.099 80.4578 201.098 71.9848 211.498 62.5295C213.098 61.0559 211.598 57.8632 209.998 59.3368Z" fill="#161616"/>
<path d="M454.098 340.049C451.398 334.892 446.898 337.593 444.498 341.523C441.898 345.575 439.798 350.364 437.598 354.785C435.898 358.223 433.898 362.03 433.598 366.328C432.998 374.923 438.298 375.906 443.598 377.993C449.898 380.572 449.498 389.659 445.498 394.693C442.298 398.746 437.598 400.465 433.398 402.184C431.598 402.921 432.398 406.482 434.198 405.745C442.598 402.43 455.098 394.939 450.798 381.186C450.098 378.976 448.898 377.134 447.298 375.906C446.398 375.292 445.398 374.8 444.398 374.432C441.498 373.327 440.698 373.695 438.398 370.625C436.498 369.275 435.898 367.433 436.798 364.977C437.198 363.258 437.698 361.661 438.398 360.188C439.198 358.223 440.198 356.381 441.198 354.539C442.198 352.697 449.198 337.225 451.498 341.768C452.498 343.856 455.098 342.014 454.098 340.049Z" fill="#161616"/>
<path d="M282.399 484.58C290.599 482.002 297.599 491.948 293.999 501.526C293.199 503.614 295.799 505.579 296.599 503.368C301.299 490.966 292.599 477.581 281.699 481.019C279.699 481.633 280.499 485.194 282.399 484.58Z" fill="#161616"/>
<path d="M435.598 282.335C431.798 278.897 431.798 269.932 437.598 269.687C439.698 269.564 441.899 271.038 441.799 273.862C441.799 276.195 440.099 279.019 437.999 278.651C436.099 278.283 435.299 281.844 437.199 282.212C440.899 282.949 444.099 279.633 444.699 275.213C445.399 270.669 442.698 266.74 439.098 266.126C435.398 265.389 431.599 267.968 430.299 272.388C428.999 277.3 430.798 282.58 434.098 285.528C435.598 286.878 437.098 283.686 435.598 282.335Z" fill="#161616"/>
<path d="M17.5988 267.108C18.9988 260.232 23.7988 256.302 28.2988 252.495C32.9988 248.443 37.7988 244.268 42.5988 240.216C52.0988 231.988 61.5988 223.884 71.0988 215.656C72.6988 214.306 71.1988 211.113 69.5988 212.464C58.4988 222.042 47.3988 231.497 36.2988 241.075C28.7988 247.461 17.0988 254.214 14.6988 266.126C14.1988 268.459 17.0988 269.441 17.5988 267.108Z" fill="#161616"/>
<path d="M363.662 346C352.251 346 343 356.091 343 368.538C343 380.985 352.251 391.076 363.662 391.076C375.072 391.076 384.323 380.985 384.323 368.538C384.323 356.091 375.072 346 363.662 346Z" fill="#20a5a0"/>
<path d="M344.193 353.449C334.146 353.449 326 361.884 326 372.29C326 382.696 334.146 391.132 344.193 391.132C354.241 391.132 362.386 382.696 362.386 372.29C362.386 361.884 354.241 353.449 344.193 353.449Z" fill="#FF1493"/>
<path d="M236.925 163.284C241.646 166.603 237.685 172.463 233.49 173.535C232.083 173.922 230.596 173.91 229.154 173.721C226.445 173.388 225.468 172.849 224.502 170.138C222.71 167.02 223.832 166.653 227.844 169.124C227.942 169.811 228.018 170.587 228.117 171.275C228.112 173.07 227.515 174.993 226.551 176.535C224.042 180.413 219.038 181.368 215.102 179.675C214.102 179.223 212.777 180.009 213.109 181.231C214.827 187.825 209.256 194.491 202.543 194.148C200.793 194.066 200.818 196.813 202.567 196.895C211.031 197.32 217.746 188.78 215.637 180.476C214.951 180.958 214.329 181.551 213.644 182.032C221.016 185.196 229.721 181.148 230.658 172.603C230.965 169.659 230.334 164.957 227.114 163.734C224.48 162.759 221.802 164.797 220.867 167.294C218.174 174.715 229.12 177.398 234.131 176.066C240.942 174.262 244.861 165.367 238.232 160.791C236.889 159.872 235.518 162.253 236.925 163.284Z" fill="#20a5a0"/>
<path d="M104.901 140.736C97.3101 149.256 98.6892 162.875 107.982 171.156C117.275 179.437 130.963 179.244 138.554 170.724C146.146 162.205 144.766 148.586 135.473 140.305C126.18 132.024 112.492 132.217 104.901 140.736Z" fill="#FF1493"/>
<path d="M124.537 129.948C117.852 137.449 118.732 149.142 126.501 156.065C134.27 162.988 145.987 162.519 152.671 155.018C159.356 147.516 158.476 135.823 150.707 128.9C142.938 121.977 131.221 122.446 124.537 129.948Z" fill="#20a5a0"/>
<path d="M399.533 191.065C396.532 190.068 395.345 187.081 395.326 184.169C395.272 182.205 396.114 176.54 398.265 175.702C401.8 174.25 404.972 178.323 406.718 180.729C408.341 183.068 409.387 185.575 410.27 188.234C410.804 190.057 413.683 189.214 413.149 187.391C411.48 182.045 403.096 166.577 395.671 173.961C392.846 176.767 391.896 182.776 392.58 186.536C393.208 190.103 395.45 192.781 398.824 193.981C400.572 194.616 401.281 191.699 399.533 191.065Z" fill="black"/>
<path d="M398.831 192.937C395.628 194.813 392.426 196.688 389.128 198.591C387.253 199.661 383.855 200.865 382.673 202.878C380.648 206.284 383.748 214.025 384.731 217.384C385.012 218.344 386.169 218.735 386.948 218.194C387.4 217.957 387.823 217.625 388.371 217.36C390.473 215.286 391.974 215.785 392.913 218.636C395.394 219.993 395.731 221.145 393.868 221.899C392.857 222.716 391.761 223.245 390.514 223.61C389.774 223.931 389.243 224.607 389.495 225.471C391.486 231.557 393.736 237.463 396.206 243.408C396.931 245.176 399.811 244.333 399.085 242.565C396.615 236.62 394.365 230.714 392.375 224.628C392.035 225.249 391.696 225.869 391.356 226.489C395.247 224.829 401.199 221.315 398.734 216.098C396.06 210.524 389.155 213.275 385.461 215.607C386.178 215.918 386.99 216.202 387.678 216.417C387.032 214.21 386.414 212.098 385.96 209.835C385.236 206.295 384.679 205.104 387.481 202.929C391.294 199.937 396.211 197.872 400.385 195.4C402.124 194.578 400.542 192.02 398.831 192.937Z" fill="black"/>
<path d="M412.903 189.755C416.878 188.383 421.005 187.175 425.176 186.475C429.156 185.831 429.132 186.463 430.691 189.653C431.693 191.652 432.436 193.831 433.246 195.887C436.43 203.915 439.422 212.001 442.318 220.114C442.948 221.909 445.827 221.066 445.197 219.271C441.334 208.211 437.579 196.806 432.496 186.207C431.201 183.565 430.468 182.841 427.449 183.204C422.177 183.706 416.995 185.223 412.089 186.972C410.265 187.506 411.108 190.385 412.903 189.755Z" fill="black"/>
<path d="M398.907 244.806C404.288 242.188 409.67 239.571 414.955 236.981C421.076 234.043 427.359 232.725 433.649 230.362C436.539 229.204 450.226 223.634 443.329 219.297C441.688 218.318 440.263 220.924 441.904 221.902C442.925 222.541 430.434 228.282 430.146 228.366C426.144 229.642 422.057 230.63 418.166 232.29C411.125 235.289 404.281 238.96 397.353 242.343C395.585 243.069 397.168 245.627 398.907 244.806Z" fill="black"/>
</svg>
