<svg width="854" height="862" viewBox="0 0 854 862" fill="none" xmlns="http://www.w3.org/2000/svg">
<path d="M770.569 397.165C762.978 405.685 764.357 419.304 773.65 427.585C782.943 435.866 796.631 435.673 804.222 427.153C811.814 418.634 810.434 405.015 801.141 396.734C791.848 388.453 778.16 388.646 770.569 397.165Z" fill="#FF1493"/>
<path d="M215.454 469.903C209.811 476.236 210.118 485.72 216.14 491.086C222.162 496.452 231.618 495.668 237.261 489.335C242.905 483.002 242.598 473.518 236.576 468.152C230.554 462.786 221.097 463.57 215.454 469.903Z" fill="#FF1493"/>
<path d="M592.864 178.892C588.666 183.604 589.029 190.781 593.675 194.921C598.322 199.061 605.492 198.598 609.691 193.886C613.89 189.174 613.527 181.998 608.88 177.857C604.234 173.717 597.063 174.18 592.864 178.892Z" fill="#FF1493"/>
<path d="M790.205 386.377C783.52 393.878 784.4 405.571 792.169 412.494C799.938 419.417 811.655 418.948 818.339 411.447C825.024 403.945 824.144 392.252 816.375 385.329C808.606 378.406 796.889 378.875 790.205 386.377Z" fill="#20a5a0"/>
<path d="M324.485 160.794C313.074 160.794 303.823 170.885 303.823 183.332C303.823 195.779 313.074 205.87 324.485 205.87C335.895 205.87 345.146 195.779 345.146 183.332C345.146 170.885 335.895 160.794 324.485 160.794Z" fill="#20a5a0"/>
<path d="M305.016 168.243C294.969 168.243 286.823 176.678 286.823 187.084C286.823 197.49 294.969 205.926 305.016 205.926C315.064 205.926 323.209 197.49 323.209 187.084C323.209 176.678 315.064 168.243 305.016 168.243Z" fill="#FF1493"/>
<path d="M235.482 482.117C231.351 486.754 231.858 493.95 236.616 498.189C241.375 502.429 248.581 502.108 252.713 497.471C256.844 492.834 256.336 485.639 251.578 481.399C246.82 477.159 239.614 477.481 235.482 482.117Z" fill="#20a5a0"/>
<path d="M373.085 806.043C368.55 811.132 369.213 819.124 374.566 823.894C379.919 828.664 387.934 828.405 392.469 823.316C397.004 818.227 396.341 810.235 390.988 805.465C385.635 800.696 377.62 800.954 373.085 806.043Z" fill="#20a5a0"/>
<path d="M491.509 552.542C495.202 553.14 495.171 548.704 494.468 546.24C492.988 541.126 490.031 536.042 484.796 534.193C480.868 532.775 475.89 533.482 473.381 537.246C471.048 540.678 471.471 545.218 474.56 547.848C475.368 548.568 477.008 547.947 476.882 546.733C475.596 539.097 473.155 528.963 464.143 527.423C457.922 526.41 451.849 532.141 453.967 538.437C454.581 537.882 455.196 537.328 455.878 536.834C453.689 535.496 451.501 534.157 449.373 532.751C447.912 531.816 446.686 534.276 448.148 535.21C450.336 536.548 452.525 537.886 454.653 539.293C455.649 539.936 456.933 538.631 456.564 537.69C455.653 534.918 457.169 531.861 459.875 530.722C462.898 529.497 466.173 530.701 468.529 532.8C472.432 536.279 473.371 542.136 474.198 547.035C475.014 546.661 475.703 546.295 476.519 545.921C473.901 543.71 474.267 539.505 477.056 537.459C479.162 535.908 481.873 536.119 484.231 536.996C486.656 537.933 488.413 539.62 489.743 541.786C489.817 541.974 493.314 550.11 492.276 549.92C490.395 549.591 489.824 552.265 491.509 552.542Z" fill="#FF1493"/>
<path d="M733.782 268.462C736.482 273.562 730.292 276.985 726.067 276.036C724.638 275.742 723.318 275.056 722.119 274.233C719.857 272.706 719.231 271.782 719.601 268.928C719.42 265.337 720.586 265.519 723.039 269.542C722.815 270.199 722.53 270.925 722.306 271.583C721.487 273.18 720.082 274.622 718.523 275.559C714.526 277.875 709.634 276.454 706.896 273.158C706.21 272.302 704.673 272.401 704.414 273.64C702.951 280.295 694.961 283.706 689.135 280.352C687.613 279.485 686.388 281.944 687.91 282.811C695.258 287.032 705.118 282.471 707.009 274.115C706.179 274.233 705.356 274.479 704.527 274.597C709.659 280.763 719.253 281.108 723.967 273.92C725.577 271.436 727.15 266.96 724.836 264.408C722.932 262.344 719.62 262.944 717.654 264.744C711.885 270.134 720.42 277.494 725.489 278.582C732.377 280.067 739.907 273.92 736.078 266.834C735.299 265.405 732.996 266.904 733.782 268.462Z" fill="#20a5a0"/>
<path d="M160.219 402.071C152.103 404.268 143.775 404.806 135.497 403.797C133.751 403.588 133.179 406.263 134.925 406.471C143.655 407.516 152.368 406.953 160.929 404.663C162.77 404.222 161.933 401.639 160.219 402.071Z" fill="#20a5a0"/>
<path d="M144.657 412.082C142.405 412.035 140.147 411.859 137.895 411.812C136.155 411.731 136.292 414.424 138.031 414.504C140.283 414.552 142.541 414.728 144.793 414.775C146.533 414.856 146.329 412.103 144.657 412.082Z" fill="#20a5a0"/>
<path d="M169.098 422.596C160.594 423.467 152.214 422.979 143.951 421.005C142.26 420.599 141.688 423.274 143.38 423.679C151.838 425.705 160.541 426.237 169.235 425.289C171.028 425.173 170.825 422.42 169.098 422.596Z" fill="#20a5a0"/>
</svg>
