<svg width="892" height="942" viewBox="0 0 892 942" fill="none" xmlns="http://www.w3.org/2000/svg">
<g clip-path="url(#clip0_118_581)">
<path d="M67.4236 674.519C69.6236 696.219 73.4236 717.619 78.7236 738.819C79.2236 740.719 82.1236 739.919 81.6236 738.019C76.4236 717.119 72.6236 695.919 70.4236 674.519C70.2236 672.619 67.2236 672.619 67.4236 674.519Z" fill="black"/>
<path d="M79.3232 739.819C99.0232 744.919 119.524 744.919 139.224 739.819C141.124 739.319 140.324 736.419 138.424 736.919C119.224 741.919 99.3232 741.919 80.1232 736.919C78.3232 736.419 77.5232 739.319 79.3232 739.819Z" fill="black"/>
<path d="M141.524 736.819C142.824 715.519 144.524 694.219 146.524 672.919C146.724 671.019 143.724 671.019 143.524 672.919C141.524 694.219 139.824 715.519 138.524 736.819C138.424 738.719 141.424 738.719 141.524 736.819Z" fill="black"/>
<path d="M69.1235 676.119C94.0235 681.219 119.624 681.019 144.524 675.419C146.424 675.019 145.624 672.119 143.724 672.519C119.424 677.919 94.3235 678.219 69.9235 673.219C68.0235 672.819 67.2235 675.719 69.1235 676.119Z" fill="black"/>
<path d="M68.8232 683.319C69.6232 687.419 74.8232 687.219 78.0232 687.519C86.1232 688.219 94.3232 688.419 102.424 688.219C110.224 688.019 118.024 687.419 125.824 686.519C132.024 685.719 138.024 684.919 143.524 681.819C145.224 680.919 143.724 678.319 142.024 679.219C132.124 684.719 118.424 684.519 107.324 685.019C101.824 685.219 96.2232 685.319 90.7232 685.219C87.8232 685.119 72.3232 685.819 71.7232 682.519C71.3232 680.619 68.5232 681.419 68.8232 683.319Z" fill="black"/>
<path d="M74.5245 718.019C79.3245 726.519 85.4245 734.019 92.7245 740.519C94.1245 741.819 96.3245 739.719 94.8245 738.419C87.6245 732.119 81.7245 724.819 77.1245 716.519C76.2245 714.819 73.6245 716.319 74.5245 718.019Z" fill="black"/>
<path d="M70.6234 694.919C80.8234 712.119 93.2235 727.919 107.424 742.119C108.824 743.519 110.924 741.319 109.524 740.019C95.5234 726.019 83.3234 710.419 73.2234 693.419C72.2234 691.819 69.6234 693.319 70.6234 694.919Z" fill="black"/>
<path d="M87.3233 687.719C97.9233 706.619 110.224 724.519 124.124 741.219C125.324 742.719 127.424 740.619 126.224 739.119C112.524 722.619 100.324 704.919 89.9233 686.219C89.0233 684.519 86.4233 686.019 87.3233 687.719Z" fill="black"/>
<path d="M106.424 688.419C116.724 703.819 127.124 719.119 137.624 734.419C138.724 736.019 141.324 734.519 140.224 732.919C129.724 717.619 119.324 702.319 109.024 686.919C107.924 685.319 105.324 686.819 106.424 688.419Z" fill="black"/>
<path d="M122.424 687.519C127.624 695.919 133.224 704.119 139.024 712.119C140.124 713.619 142.724 712.119 141.624 710.619C135.824 702.619 130.224 694.419 125.024 686.019C124.024 684.419 121.424 685.919 122.424 687.519Z" fill="black"/>
<path d="M35.9245 586.519C37.1245 593.419 38.3245 600.419 39.6245 607.319C40.0245 609.219 40.3245 611.219 41.9245 612.419C43.0245 613.319 46.6245 613.219 47.3245 614.219C47.4245 613.619 47.5245 613.019 47.5245 612.419C46.0245 613.919 44.5245 615.419 42.9245 616.819C42.5245 617.219 42.4245 617.819 42.5245 618.319C43.4245 621.019 44.0245 625.019 45.8245 627.319C46.7245 628.519 48.3245 628.319 49.0245 629.019C49.6245 629.619 49.4245 629.219 49.1245 631.019C48.9245 632.519 48.9245 634.119 49.1245 635.719C49.4245 638.119 50.1245 640.419 51.0245 642.619C56.2245 655.219 66.3245 665.419 76.0245 674.819C77.4245 676.119 79.5245 674.019 78.1245 672.719C71.9245 666.719 65.7245 660.519 60.6245 653.519C55.6245 646.619 49.7245 637.319 52.8245 628.519C53.0245 628.019 52.8245 627.319 52.4245 627.019C50.5245 625.519 48.6245 626.119 47.3245 623.719C44.8245 619.219 46.2245 617.719 49.4245 614.619C49.9245 614.219 50.0245 613.319 49.6245 612.819C48.8245 611.619 48.2245 611.219 46.9245 610.819C46.1245 610.519 44.9245 610.819 44.1245 610.419C42.4245 609.519 42.4245 607.319 42.1245 605.719C40.9245 599.119 39.7245 592.419 38.6245 585.819C38.4245 583.819 35.5245 584.619 35.9245 586.519Z" fill="black"/>
<path d="M38.124 586.119C77.124 599.119 103.824 635.519 104.624 676.719C104.624 678.619 107.624 678.619 107.624 676.719C106.824 634.219 79.2241 596.719 38.9241 583.219C37.1241 582.619 36.324 585.519 38.124 586.119Z" fill="black"/>
<path d="M98.0242 635.719C107.725 608.819 122.025 582.819 144.925 565.119C146.425 563.919 144.925 561.319 143.425 562.519C119.825 580.819 105.125 607.219 95.1242 634.919C94.5242 636.719 97.4242 637.519 98.0242 635.719Z" fill="black"/>
<path d="M142.325 564.519C143.025 573.719 143.825 582.919 144.525 592.219C144.725 594.119 147.725 594.119 147.525 592.219C146.825 583.019 146.025 573.819 145.325 564.519C145.225 562.619 142.225 562.619 142.325 564.519Z" fill="black"/>
<path d="M145.824 591.219C144.524 591.519 143.224 591.819 142.024 592.219C140.124 592.719 140.924 595.619 142.824 595.119C144.124 594.819 145.424 594.519 146.624 594.119C148.524 593.619 147.724 590.819 145.824 591.219Z" fill="black"/>
<path d="M140.524 594.919C140.924 596.819 142.524 598.019 144.324 598.219C145.124 598.319 145.824 597.519 145.824 596.719C145.824 595.819 145.124 595.319 144.324 595.219C144.624 595.219 144.324 595.219 144.224 595.219C144.124 595.219 143.924 595.119 144.124 595.219C144.024 595.119 143.924 595.119 143.824 595.019C143.624 594.919 144.024 595.219 143.724 594.919C143.624 594.819 143.624 594.819 143.524 594.719C143.724 594.919 143.524 594.719 143.524 594.619C143.424 594.519 143.424 594.319 143.424 594.519C143.424 594.419 143.324 594.219 143.324 594.119C143.124 593.319 142.224 592.819 141.524 593.119C140.724 593.319 140.324 594.119 140.524 594.919Z" fill="black"/>
<path d="M142.823 597.119C142.923 602.819 142.723 608.419 142.123 614.019C141.923 615.819 142.223 620.019 141.023 621.419C140.923 621.519 139.123 621.819 138.723 622.119C137.223 623.319 139.323 625.419 140.823 624.219C141.323 623.819 142.523 624.219 143.323 623.319C144.523 622.119 144.323 619.319 144.523 617.919C145.423 611.019 145.823 604.019 145.723 597.019C145.823 595.219 142.823 595.219 142.823 597.119Z" fill="black"/>
<path d="M137.524 624.719C140.724 628.519 139.824 634.819 139.524 639.419C139.124 644.719 138.224 649.619 135.624 654.219C131.924 661.019 126.724 666.719 124.024 674.119C123.324 675.919 126.224 676.719 126.924 674.919C130.524 665.219 138.824 658.019 141.324 647.819C143.124 640.519 144.824 628.819 139.624 622.619C138.424 621.219 136.324 623.319 137.524 624.719Z" fill="black"/>
<path d="M113.924 675.519C116.724 647.119 124.224 619.419 136.224 593.619C137.024 591.919 134.424 590.319 133.624 592.119C121.424 618.519 113.724 646.619 110.924 675.619C110.724 677.519 113.724 677.419 113.924 675.519Z" fill="black"/>
<path d="M54.9228 602.819C72.4228 624.819 85.2228 650.119 92.7228 677.119C93.2228 679.019 96.1228 678.219 95.6228 676.319C87.9228 648.719 74.8228 623.119 57.0228 600.719C55.8228 599.219 53.7228 601.319 54.9228 602.819Z" fill="black"/>
<path d="M56.8242 639.719C65.2242 639.219 73.0242 641.219 80.1242 645.619C81.7242 646.619 83.3242 644.019 81.6242 643.019C74.1242 638.419 65.6242 636.219 56.8242 636.719C54.8242 636.819 54.8242 639.819 56.8242 639.719Z" fill="black"/>
<path d="M75.1233 626.319C74.5233 620.819 75.2233 615.519 77.3233 610.319C78.0233 608.519 75.1233 607.719 74.4233 609.519C72.2233 614.919 71.5233 620.519 72.1233 626.319C72.3233 628.219 75.3233 628.219 75.1233 626.319Z" fill="black"/>
<path d="M107.524 609.719C110.824 617.819 115.624 626.419 116.824 635.019C117.124 636.919 120.024 636.119 119.724 634.219C118.424 625.519 113.624 616.919 110.424 608.919C109.724 607.119 106.824 607.919 107.524 609.719Z" fill="black"/>
<path d="M125.923 619.219C128.823 615.919 131.623 612.019 135.323 609.519C138.423 607.419 141.823 606.019 144.223 603.119C145.423 601.619 143.323 599.519 142.123 601.019C139.523 604.119 135.723 605.419 132.623 607.819C129.223 610.419 126.623 613.919 123.823 617.119C122.523 618.619 124.623 620.719 125.923 619.219Z" fill="black"/>
<path d="M126.923 674.519C131.723 673.219 136.623 672.719 141.623 673.019C143.523 673.119 143.523 670.119 141.623 670.019C136.323 669.719 131.223 670.219 126.123 671.619C124.323 672.119 125.023 675.019 126.923 674.519Z" fill="black"/>
<path d="M126.525 675.719C132.125 676.219 137.525 675.519 142.925 673.819C144.725 673.219 143.925 670.319 142.125 670.919C137.025 672.519 131.825 673.119 126.525 672.719C124.625 672.619 124.625 675.619 126.525 675.719Z" fill="black"/>
<path d="M70.423 675.219C71.723 675.219 72.9231 675.219 74.2231 675.219C76.1231 675.219 76.1231 672.219 74.2231 672.219C72.9231 672.219 71.723 672.219 70.423 672.219C68.523 672.219 68.523 675.219 70.423 675.219Z" fill="black"/>
<path d="M143.724 699.419C175.424 699.419 207.224 699.419 238.924 699.419C240.824 699.419 240.824 696.419 238.924 696.419C207.224 696.419 175.424 696.419 143.724 696.419C141.824 696.419 141.824 699.419 143.724 699.419Z" fill="black"/>
<path d="M680.323 679.619C699.223 679.619 718.023 679.619 736.923 679.619C738.823 679.619 738.823 676.619 736.923 676.619C718.023 676.619 699.223 676.619 680.323 676.619C678.423 676.619 678.423 679.619 680.323 679.619Z" fill="black"/>
<path d="M725.715 393.572C715.715 389.772 709.415 379.772 711.215 369.072C713.015 358.172 723.715 348.472 734.715 354.972C742.315 359.472 746.216 369.672 743.316 377.972C740.316 386.872 730.516 392.172 721.416 390.772C719.516 390.472 718.716 393.372 720.616 393.672C731.316 395.272 742.615 389.372 746.215 378.772C749.815 368.172 744.016 355.372 733.616 351.072C721.416 346.072 710.315 356.572 708.215 368.272C706.015 380.672 713.316 392.072 724.816 396.472C726.716 397.172 727.515 394.272 725.715 393.572Z" fill="black"/>
<path d="M746.216 391.672C726.316 391.072 733.816 359.172 751.416 360.372C769.016 361.672 761.816 397.572 742.516 390.972C740.716 390.372 739.916 393.272 741.716 393.872C764.016 401.472 774.016 360.872 752.716 357.472C742.316 355.772 732.916 365.572 731.316 375.272C729.716 384.872 736.216 394.272 746.216 394.572C748.116 394.772 748.116 391.772 746.216 391.672Z" fill="black"/>
<path d="M265.559 480.046C255.018 481.872 244.502 476.479 240.597 466.355C236.591 456.06 240.854 442.261 253.631 442.248C262.464 442.246 271.017 449.035 272.752 457.654C274.706 466.841 268.975 476.395 260.432 479.828C258.645 480.538 259.434 483.441 261.222 482.731C271.243 478.655 277.959 467.82 275.655 456.865C273.35 445.91 261.837 437.852 250.697 439.453C237.652 441.368 233.453 456.059 237.609 467.196C242.035 478.986 254.126 485.074 266.262 482.999C268.254 482.633 267.464 479.731 265.559 480.046Z" fill="black"/>
<path d="M282.23 467.964C264.802 477.589 254.999 446.32 270.753 438.383C286.559 430.532 298.659 465.09 278.69 469.247C276.835 469.648 277.625 472.551 279.479 472.15C302.539 467.325 290.453 427.296 270.394 435.225C260.579 439.063 257.486 452.285 261.052 461.446C264.568 470.522 274.951 475.297 283.708 470.459C285.445 469.663 283.916 467.082 282.23 467.964Z" fill="black"/>
<path d="M295.732 360.04C294.032 358.24 293.232 355.34 294.532 353.14C295.832 351.04 299.032 350.04 301.032 351.64C302.832 353.04 303.232 356.04 301.532 357.54C299.532 359.34 296.332 358.44 294.432 356.94C292.932 355.74 290.832 357.84 292.332 359.04C295.432 361.44 300.232 362.64 303.532 359.74C306.532 357.04 306.232 352.04 303.232 349.44C300.132 346.74 295.232 347.54 292.632 350.54C289.732 353.94 290.532 359.04 293.532 362.14C294.932 363.54 297.032 361.44 295.732 360.04Z" fill="black"/>
<path d="M644.323 326.919C641.523 309.919 651.423 289.419 670.623 289.619C680.423 289.719 689.923 293.719 699.823 292.319C706.823 291.319 712.823 287.319 717.023 281.819C721.223 276.319 723.623 269.419 724.023 262.519C724.523 252.319 720.623 241.919 723.423 231.819C724.823 226.719 727.823 222.019 732.923 220.119C737.823 218.419 743.123 219.419 748.223 219.219C755.623 218.919 761.423 215.719 765.123 209.219C770.323 200.119 769.123 189.219 772.723 179.619C777.023 168.019 789.123 158.119 801.923 163.819C803.623 164.619 805.223 162.019 803.423 161.219C786.023 153.419 771.523 169.119 768.123 184.919C765.923 195.219 766.323 211.219 754.023 215.319C745.423 218.219 735.723 213.719 727.823 219.619C721.323 224.419 719.423 233.219 719.523 240.919C719.823 252.219 723.323 263.219 718.323 274.019C713.723 284.219 704.623 290.319 693.323 289.619C683.323 289.019 673.423 284.919 663.323 287.519C646.223 291.819 638.923 312.019 641.623 327.819C641.823 329.519 644.723 328.719 644.323 326.919Z" fill="black"/>
<path d="M770.724 255.619C767.024 247.219 772.124 239.219 780.224 236.519C786.124 234.519 792.624 234.419 797.724 230.419C801.724 227.319 803.024 223.419 802.524 218.419C802.024 213.719 802.024 210.019 805.724 206.819C808.824 204.119 812.924 203.119 816.924 202.919C827.924 202.519 843.024 208.119 851.024 197.419C854.724 192.419 853.624 186.219 855.324 180.619C857.624 172.819 865.124 168.019 873.124 168.419C875.024 168.519 875.024 165.519 873.124 165.419C867.024 165.119 861.124 167.419 856.924 171.819C851.724 177.319 852.424 183.519 850.824 190.419C846.524 209.319 820.224 196.019 807.824 201.919C803.224 204.119 799.524 208.019 799.124 213.219C798.624 219.319 801.424 224.319 795.224 228.519C791.924 230.719 788.124 231.419 784.324 232.319C778.024 233.819 771.824 235.719 768.624 241.819C766.024 246.619 766.024 252.119 768.224 257.019C768.924 258.919 771.424 257.319 770.724 255.619Z" fill="black"/>
<path d="M623.844 131.562C623.444 130.662 623.044 129.662 622.744 128.662C624.044 127.162 625.244 125.662 626.544 124.162C626.944 124.062 628.744 125.262 629.344 125.262C630.844 125.462 632.144 125.062 633.344 124.162C637.044 121.262 635.744 116.662 636.844 112.762C638.644 106.062 646.544 110.662 650.144 105.662C653.744 100.762 652.444 90.3623 662.044 93.1623C663.944 93.6623 664.744 90.7623 662.844 90.2623C657.344 88.6623 652.344 91.2623 650.344 96.5623C649.744 98.0623 649.544 99.7623 648.944 101.262C647.644 104.762 646.244 105.262 642.444 105.462C639.644 105.662 637.444 105.462 635.544 107.862C633.944 109.962 633.944 112.662 633.644 115.162C633.344 118.862 633.644 121.962 628.144 121.562C627.044 121.462 626.144 120.462 624.944 120.462C618.344 120.362 619.444 128.462 621.044 132.362C621.644 134.162 624.644 133.362 623.844 131.562Z" fill="#20a5a0"/>
<path d="M617.087 177.981C615.487 175.881 612.787 169.781 617.487 168.181C619.187 167.581 621.387 168.281 623.187 168.281C624.787 168.281 626.187 168.281 627.487 167.181C631.487 163.981 628.587 158.281 630.687 154.281C634.087 147.781 640.887 152.881 645.687 149.481C649.087 147.081 649.987 142.481 650.587 138.681C650.887 136.781 647.987 135.981 647.687 137.881C646.987 142.381 646.187 147.381 640.587 147.881C637.687 148.181 635.487 147.181 632.787 148.481C628.387 150.581 626.987 154.481 626.887 158.981C626.787 162.781 627.687 164.681 621.287 164.981C620.487 164.981 619.687 164.781 618.887 164.781C616.587 164.981 614.587 166.181 613.287 168.081C610.487 172.081 612.087 176.681 614.887 180.181C616.187 181.681 618.287 179.481 617.087 177.981Z" fill="#FF1493"/>
<path d="M117.524 184.919C125.824 174.919 137.624 166.719 151.224 168.119C166.024 169.619 173.324 181.419 174.724 195.219C177.124 218.119 171.524 245.519 187.024 265.019C193.124 272.719 202.224 276.819 212.024 274.419C223.824 271.619 233.024 262.319 243.524 256.819C255.924 250.319 273.024 246.819 284.224 257.719C292.424 265.719 294.224 277.919 296.924 288.519C299.424 298.119 303.724 308.719 312.324 314.419C317.524 317.819 323.224 318.119 329.224 317.719C335.924 317.219 349.624 316.819 348.224 327.319C348.024 329.219 351.024 329.219 351.224 327.319C351.724 323.219 349.824 319.919 346.524 317.519C341.324 313.719 335.324 314.319 329.224 314.719C322.324 315.219 316.424 314.619 311.124 309.719C306.324 305.319 303.424 299.119 301.324 293.019C297.824 282.519 296.824 271.019 290.824 261.419C284.924 251.919 274.724 247.319 263.724 247.719C249.824 248.219 238.124 256.219 227.024 263.619C221.724 267.119 216.024 270.819 209.524 271.919C201.724 273.219 194.824 269.819 189.824 264.019C180.424 253.019 178.924 237.319 178.424 223.519C177.924 210.619 179.624 196.619 175.324 184.119C171.424 172.719 161.524 165.619 149.624 165.019C135.824 164.319 123.724 172.619 115.224 182.819C114.124 184.319 116.224 186.419 117.524 184.919Z" fill="black"/>
<path d="M699.172 481.607C714.772 507.607 728.672 534.507 740.972 562.207C741.772 564.007 744.372 562.407 743.572 560.707C731.272 533.007 717.272 506.107 701.772 480.107C700.772 478.407 698.172 479.907 699.172 481.607Z" fill="black"/>
<path d="M701.072 480.407C725.372 465.307 750.372 451.207 776.072 438.407C777.772 437.507 776.272 434.907 774.572 435.807C748.972 448.607 723.972 462.707 699.572 477.807C697.872 478.907 699.372 481.507 701.072 480.407Z" fill="black"/>
<path d="M774.273 437.107C786.973 463.807 800.373 490.107 814.573 516.007C815.473 517.707 818.073 516.207 817.173 514.507C802.973 488.607 789.473 462.307 776.873 435.607C775.973 433.807 773.473 435.307 774.273 437.107Z" fill="black"/>
<path d="M744.372 562.807C768.272 548.407 791.871 533.607 815.271 518.407C816.871 517.407 815.371 514.807 813.771 515.807C790.371 531.007 766.772 545.807 742.872 560.207C741.272 561.207 742.772 563.807 744.372 562.807Z" fill="black"/>
<path d="M742.471 471.607C741.871 490.807 742.971 509.907 745.771 528.907C746.071 530.807 748.971 530.007 748.671 528.107C745.871 509.407 744.871 490.507 745.471 471.607C745.571 469.707 742.571 469.707 742.471 471.607Z" fill="black"/>
<path d="M742.573 470.607C756.473 481.507 770.373 492.207 784.473 502.807C785.973 504.007 787.473 501.407 785.973 500.207C772.073 489.807 758.273 479.207 744.673 468.507C743.173 467.307 741.073 469.407 742.573 470.607Z" fill="black"/>
<path d="M748.872 529.507C760.372 519.207 775.372 513.707 786.272 502.607C787.672 501.207 785.472 499.107 784.172 500.507C773.272 511.507 758.372 517.107 746.772 527.407C745.272 528.607 747.472 530.707 748.872 529.507Z" fill="black"/>
<path d="M703.172 497.307C706.372 495.707 709.572 494.207 712.772 492.607C714.472 491.807 712.972 489.207 711.272 490.007C708.072 491.607 704.872 493.107 701.672 494.707C699.972 495.607 701.472 498.107 703.172 497.307Z" fill="black"/>
<path d="M713.473 514.307C716.173 512.507 719.073 511.007 722.073 509.707C723.873 509.007 723.073 506.107 721.273 506.807C717.973 508.207 714.873 509.807 711.873 511.707C710.373 512.807 711.873 515.407 713.473 514.307Z" fill="black"/>
<path d="M724.771 533.907C727.571 532.507 730.371 531.107 733.171 529.807C734.871 528.907 733.371 526.407 731.671 527.207C728.871 528.607 726.071 530.007 723.271 531.307C721.571 532.107 723.071 534.707 724.771 533.907Z" fill="black"/>
<path d="M730.571 553.507C733.671 550.807 736.871 548.507 740.471 546.507C742.171 545.507 740.671 543.007 738.971 543.907C735.271 546.007 731.771 548.507 728.471 551.407C726.971 552.707 729.071 554.807 730.571 553.507Z" fill="black"/>
<path d="M779.973 456.807C782.273 455.207 784.673 454.107 787.373 453.407C789.273 452.907 788.473 450.107 786.573 450.507C783.673 451.207 780.873 452.407 778.373 454.207C776.873 455.307 778.373 457.907 779.973 456.807Z" fill="black"/>
<path d="M788.873 473.907C792.073 471.907 795.273 469.907 798.373 467.807C799.973 466.807 798.473 464.207 796.873 465.207C793.673 467.207 790.473 469.207 787.373 471.307C785.673 472.407 787.173 475.007 788.873 473.907Z" fill="black"/>
<path d="M799.071 494.407C802.471 492.907 805.971 491.407 809.371 489.907C811.171 489.107 809.571 486.507 807.871 487.307C804.471 488.807 800.971 490.307 797.571 491.807C795.771 492.607 797.371 495.207 799.071 494.407Z" fill="black"/>
<path d="M806.372 507.807C809.072 505.207 812.072 503.007 815.372 501.107C817.072 500.207 815.572 497.607 813.872 498.507C810.372 500.507 807.172 502.807 804.272 505.607C802.872 507.007 804.972 509.107 806.372 507.807Z" fill="black"/>
<path d="M752.871 549.607C755.371 553.307 757.471 557.207 759.071 561.307C759.771 563.107 762.671 562.307 761.971 560.507C760.271 556.107 758.171 551.907 755.471 548.007C754.371 546.507 751.771 548.007 752.871 549.607Z" fill="black"/>
<path d="M768.173 541.307C770.073 544.707 771.873 548.007 773.773 551.407C774.673 553.107 777.273 551.607 776.373 549.907C774.473 546.507 772.673 543.207 770.773 539.807C769.873 538.107 767.273 539.607 768.173 541.307Z" fill="black"/>
<path d="M785.872 528.607C787.872 532.207 789.872 535.807 791.872 539.407C792.772 541.107 795.372 539.607 794.472 537.907C792.472 534.307 790.472 530.707 788.472 527.107C787.572 525.407 784.972 526.907 785.872 528.607Z" fill="black"/>
<path d="M801.772 519.107C803.372 522.907 804.972 526.707 806.672 530.407C807.472 532.207 809.972 530.607 809.272 528.907C807.672 525.107 806.072 521.307 804.372 517.607C803.572 515.907 800.972 517.407 801.772 519.107Z" fill="black"/>
<path d="M711.073 465.007C712.973 468.107 714.773 471.207 716.673 474.207C717.673 475.907 720.273 474.307 719.273 472.707C717.373 469.607 715.573 466.507 713.673 463.507C712.673 461.907 710.073 463.407 711.073 465.007Z" fill="black"/>
<path d="M728.273 455.007C730.073 459.007 731.873 463.007 733.673 467.007C734.473 468.807 737.073 467.207 736.273 465.507C734.473 461.507 732.673 457.507 730.873 453.507C729.973 451.707 727.473 453.207 728.273 455.007Z" fill="black"/>
<path d="M743.772 445.407C746.472 449.007 748.572 452.907 749.972 457.107C750.572 458.907 753.472 458.107 752.872 456.307C751.372 451.807 749.272 447.607 746.372 443.907C745.272 442.407 742.672 443.807 743.772 445.407Z" fill="black"/>
<path d="M760.473 437.707C762.573 440.907 764.573 444.007 766.673 447.207C767.673 448.807 770.273 447.307 769.273 445.707C767.173 442.507 765.173 439.407 763.073 436.207C761.973 434.607 759.373 436.107 760.473 437.707Z" fill="black"/>
<path d="M345.187 189.89C335.487 186.89 334.987 176.59 339.587 168.891C344.087 161.391 352.787 159.391 359.587 165.591C365.187 170.791 365.687 179.69 360.487 185.39C355.287 191.19 346.787 191.091 340.787 186.691C339.287 185.491 337.787 188.09 339.287 189.29C346.887 194.89 357.987 193.991 363.687 186.091C369.587 178.091 367.487 166.891 359.187 161.491C339.187 148.591 321.987 185.79 344.387 192.79C346.287 193.39 347.087 190.49 345.187 189.89Z" fill="black"/>
<path d="M361.288 192.49C353.788 194.79 351.988 185.79 355.288 180.99C357.988 177.09 363.288 174.791 368.088 176.091C372.688 177.291 375.988 181.991 374.788 186.691C373.288 192.591 367.088 194.69 361.588 193.79C359.688 193.49 358.888 196.391 360.788 196.691C368.188 197.991 376.188 194.79 377.788 186.79C379.188 179.89 373.788 173.59 367.088 172.79C359.688 171.89 351.588 177.29 350.588 184.89C349.688 191.49 355.688 197.39 362.288 195.29C363.988 194.79 363.188 191.89 361.288 192.49Z" fill="black"/>
<path d="M236.125 164.719C233.725 169.619 237.125 174.519 242.125 175.819C245.925 176.819 249.925 175.919 253.825 176.119C258.025 176.319 262.225 177.319 266.025 179.019C274.425 182.819 279.825 189.719 280.125 199.019C280.425 206.819 278.125 214.919 281.525 222.319C288.725 237.919 308.525 226.019 318.725 236.119C327.225 244.619 323.725 260.119 335.125 266.619C336.825 267.619 338.325 265.019 336.625 264.019C326.425 258.219 328.825 243.119 321.625 234.719C317.825 230.319 312.325 229.119 306.725 228.719C299.925 228.319 291.125 229.719 286.125 223.919C280.325 217.119 283.425 206.919 283.125 198.919C282.925 192.619 280.825 186.919 276.425 182.419C272.525 178.519 267.425 175.819 262.125 174.419C259.425 173.719 256.625 173.219 253.825 173.119C250.225 172.919 234.625 174.719 238.825 166.219C239.625 164.519 237.025 163.019 236.125 164.719Z" fill="#FF1493"/>
<path d="M2.32422 704.519C20.4242 704.519 38.4242 704.519 56.5242 704.519C58.4242 704.519 58.4242 701.519 56.5242 701.519C38.4242 701.519 20.4242 701.519 2.32422 701.519C0.324219 701.519 0.324219 704.519 2.32422 704.519Z" fill="black"/>
<path d="M31.5234 772.319C66.3234 772.319 101.024 772.319 135.824 772.319C137.724 772.319 137.724 769.319 135.824 769.319C101.024 769.319 66.3234 769.319 31.5234 769.319C29.5234 769.319 29.5234 772.319 31.5234 772.319Z" fill="black"/>
<path d="M131.623 753.519C163.923 753.519 196.323 753.519 228.623 753.519C230.523 753.519 230.523 750.519 228.623 750.519C196.323 750.519 163.923 750.519 131.623 750.519C129.623 750.519 129.623 753.519 131.623 753.519Z" fill="black"/>
<path d="M648.662 745.477C664.962 741.477 681.362 741.077 697.962 743.677C704.962 744.777 712.062 745.877 719.162 745.277C726.062 744.677 732.762 742.577 739.462 740.777C747.062 738.677 754.662 737.077 762.662 737.677C770.862 738.277 778.762 740.577 786.762 742.377C793.662 743.977 800.662 745.077 807.762 744.977C815.262 744.777 822.662 743.477 829.962 742.377C849.962 739.177 868.762 741.177 888.562 744.477C890.462 744.777 891.262 741.877 889.362 741.577C873.362 738.977 857.262 736.277 840.962 737.877C823.962 739.577 808.162 743.777 790.962 740.277C776.562 737.377 762.862 732.877 748.062 735.677C740.162 737.177 732.662 739.977 724.762 741.477C715.962 743.177 707.462 742.177 698.662 740.777C681.562 738.177 664.662 738.377 647.762 742.577C646.062 743.077 646.862 745.977 648.662 745.477Z" fill="black"/>
<path d="M706.262 703.312C737.662 701.612 769.062 699.912 800.462 698.312C815.962 697.512 830.962 697.812 846.362 699.912C853.262 700.812 859.862 701.012 866.762 700.212C874.462 699.312 882.462 698.112 889.662 701.812C891.362 702.712 892.862 700.112 891.162 699.212C878.962 693.012 864.862 698.812 851.762 697.612C843.962 696.912 836.362 695.412 828.562 695.012C820.462 694.612 812.362 694.812 804.262 695.212C771.562 696.712 738.862 698.712 706.162 700.412C704.362 700.412 704.362 703.412 706.262 703.312Z" fill="black"/>
<path d="M208.224 803.819C223.024 805.219 237.924 806.619 252.724 804.919C259.624 804.119 266.224 802.619 272.924 800.619C281.624 798.019 289.424 797.319 298.424 798.919C305.324 800.119 312.124 801.819 319.024 802.419C326.324 803.019 333.624 802.619 340.924 801.919C356.224 800.419 371.524 797.819 386.724 801.219C388.624 801.619 389.424 798.719 387.524 798.319C372.924 795.119 358.324 797.219 343.624 798.719C336.324 799.419 329.024 800.119 321.724 799.719C313.424 799.319 305.424 797.119 297.324 795.819C290.524 794.719 284.024 794.719 277.324 796.319C270.124 798.119 263.324 800.519 255.924 801.619C240.124 803.919 224.024 802.319 208.224 800.919C206.224 800.619 206.324 803.619 208.224 803.819Z" fill="black"/>
<path d="M465.646 60.0978C461.746 57.3978 456.446 53.0978 458.046 47.6978C459.746 42.0978 463.946 44.7978 467.846 43.4978C473.046 41.7978 472.746 35.4978 471.246 31.3978C469.746 27.3978 466.546 17.6978 474.846 20.9978C476.746 21.7978 478.146 23.0978 480.346 22.3978C482.346 21.7978 483.346 19.9978 483.846 18.0978C484.246 16.3978 483.946 14.5978 483.846 12.7978C483.646 11.5978 483.546 10.2978 483.546 9.09778C483.146 6.19778 484.946 4.99778 488.746 5.49778C488.846 7.39778 491.846 7.39778 491.746 5.49778C491.546 2.69778 489.446 0.697779 486.446 0.797779C482.946 0.897779 481.046 4.29778 480.646 7.49778C480.346 9.69778 482.146 14.7978 481.146 16.5978C479.946 17.3978 478.746 18.2978 477.446 19.0978C476.946 18.7978 476.446 18.4978 475.946 18.1978C475.046 17.8978 474.346 17.2978 473.446 17.0978C470.346 16.3978 467.846 18.2978 466.746 21.0978C464.846 25.8978 468.246 29.8978 469.246 34.3978C470.546 40.5978 465.846 39.8978 461.746 40.5978C459.946 40.8978 458.446 41.7978 457.246 43.0978C450.946 50.3978 458.246 58.4978 464.246 62.6978C465.746 63.7978 467.246 61.1978 465.646 60.0978Z" fill="black"/>
<path d="M484.464 72.6782C481.164 68.8782 478.664 63.6782 485.064 61.6782C486.664 61.1782 488.464 61.3782 489.964 60.3782C493.264 58.0782 491.864 54.9782 491.264 51.7782C490.964 49.9782 490.264 47.5782 491.364 45.7782C492.164 44.4782 495.064 43.9782 496.564 43.6782C498.664 43.1782 500.864 42.8782 502.664 41.6782C505.364 39.7782 506.364 36.3782 504.564 33.4782C503.564 31.8782 500.964 33.3782 501.964 34.9782C504.964 39.7782 490.964 41.0782 488.564 44.5782C485.764 48.6782 491.664 55.8782 486.764 58.4782C484.864 59.4782 482.464 58.7782 480.664 60.0782C479.364 60.9782 478.464 62.3782 478.064 63.8782C476.964 68.1782 479.864 71.8782 482.464 74.8782C483.664 76.2782 485.764 74.1782 484.464 72.6782Z" fill="black"/>
<path d="M402.822 84.541C399.821 83.5441 398.634 80.5573 398.615 77.6453C398.561 75.6813 399.403 70.0164 401.554 69.1782C405.089 67.7266 408.261 71.7994 410.007 74.2056C411.63 76.544 412.676 79.0509 413.559 81.7101C414.093 83.5335 416.972 82.6907 416.438 80.8672C414.769 75.5209 406.385 60.0533 398.96 67.4368C396.135 70.2437 395.185 76.2527 395.869 80.0121C396.497 83.5794 398.739 86.2571 402.113 87.4577C403.861 88.092 404.57 85.1753 402.822 84.541Z" fill="black"/>
<path d="M402.12 86.4137C398.917 88.2889 395.715 90.1643 392.417 92.0676C390.542 93.1375 387.144 94.3408 385.962 96.354C383.937 99.7601 387.037 107.501 388.02 110.86C388.301 111.82 389.458 112.211 390.237 111.67C390.689 111.433 391.112 111.101 391.66 110.836C393.762 108.762 395.263 109.261 396.202 112.112C398.683 113.469 399.02 114.621 397.157 115.375C396.146 116.192 395.05 116.721 393.803 117.086C393.063 117.407 392.532 118.083 392.784 118.947C394.775 125.033 397.025 130.939 399.495 136.884C400.22 138.652 403.1 137.809 402.374 136.041C399.904 130.096 397.654 124.19 395.664 118.104C395.324 118.725 394.985 119.345 394.645 119.965C398.536 118.305 404.488 114.791 402.023 109.574C399.349 104 392.444 106.751 388.75 109.083C389.467 109.394 390.279 109.678 390.967 109.893C390.321 107.686 389.703 105.574 389.249 103.311C388.525 99.7715 387.968 98.5801 390.77 96.4053C394.583 93.4134 399.5 91.3484 403.674 88.8762C405.413 88.0544 403.831 85.4959 402.12 86.4137Z" fill="black"/>
<path d="M416.19 83.2315C420.165 81.8594 424.292 80.6513 428.463 79.951C432.443 79.307 432.419 79.939 433.978 83.1295C434.98 85.1285 435.723 87.3077 436.533 89.3629C439.717 97.3917 442.709 105.477 445.605 113.59C446.235 115.385 449.114 114.542 448.484 112.747C444.621 101.687 440.866 90.2825 435.783 79.6836C434.488 77.0409 433.755 76.3177 430.736 76.6807C425.464 77.1821 420.282 78.6993 415.376 80.4483C413.552 80.9821 414.395 83.8613 416.19 83.2315Z" fill="black"/>
<path d="M402.195 138.282C407.576 135.664 412.958 133.047 418.243 130.457C424.364 127.519 430.647 126.201 436.937 123.838C439.827 122.68 453.514 117.11 446.617 112.773C444.976 111.794 443.551 114.4 445.192 115.378C446.213 116.017 433.722 121.758 433.434 121.842C429.432 123.118 425.345 124.106 421.454 125.766C414.413 128.765 407.569 132.436 400.641 135.819C398.873 136.545 400.456 139.103 402.195 138.282Z" fill="black"/>
<path d="M532.824 773.219C513.824 796.519 494.924 819.719 475.924 843.019C498.224 921.419 510.824 942.019 518.324 940.919C523.724 940.119 526.324 928.419 529.224 915.319C536.424 882.619 532.124 854.519 527.724 837.019C539.724 823.619 551.624 810.119 563.624 796.719C553.324 788.919 543.124 781.119 532.824 773.219Z" fill="#161616" stroke="#161616" stroke-width="2" stroke-miterlimit="10"/>
<path d="M462.725 653.219C474.625 662.419 486.025 659.119 509.625 663.119C529.725 666.519 552.325 674.019 576.325 689.019C550.725 719.019 525.125 750.719 499.725 784.119C493.625 792.219 487.525 800.319 481.625 808.419C491.425 810.719 503.225 814.319 516.025 820.119C528.525 825.719 538.725 832.019 546.825 837.719C584.925 804.519 618.925 772.419 649.225 742.119C663.225 728.119 683.025 706.719 686.125 676.419C686.325 674.719 686.325 673.219 686.325 671.719C685.625 621.419 622.325 585.019 583.825 571.619C541.725 557.019 469.325 549.119 449.125 584.019C437.225 604.619 444.225 638.919 462.725 653.219Z" fill="#FF1493"/>
<path opacity="0.26" d="M536.623 602.919C535.923 612.419 534.223 623.719 530.723 636.219C528.223 645.119 525.223 653.019 522.223 659.719C518.923 661.019 515.723 662.319 512.423 663.619C533.923 672.119 555.523 680.619 577.023 689.119C561.023 707.419 544.923 726.619 528.723 746.619C512.023 767.219 496.123 787.419 481.023 807.319C491.723 810.819 502.323 814.319 513.023 817.719C551.323 775.519 589.623 733.219 627.923 691.019C631.923 679.519 631.723 670.519 630.523 664.219C625.023 633.419 587.323 608.319 536.623 602.919Z" fill="#6D6C6C"/>
<path opacity="0.23" d="M576.824 688.919C580.324 694.219 583.724 699.619 587.224 704.919C557.424 740.819 527.624 776.619 497.824 812.519C492.524 811.119 487.124 809.619 481.824 808.219C500.924 782.019 521.524 755.119 543.824 728.019C554.924 714.519 565.924 701.519 576.824 688.919Z" fill="#6D6C6C"/>
<path d="M477.322 735.219C506.822 740.619 536.422 745.919 565.922 751.319C600.022 825.719 603.822 849.719 597.422 853.819C592.822 856.719 583.222 849.519 572.522 841.419C545.722 821.119 530.822 796.919 522.722 780.619C504.922 778.219 487.122 775.719 469.322 773.319C471.922 760.619 474.622 747.919 477.322 735.219Z" fill="#161616" stroke="#161616" stroke-width="2" stroke-miterlimit="10"/>
<path d="M416.523 569.519C362.723 585.319 329.923 618.119 308.823 639.719C280.323 669.019 245.323 704.919 255.423 731.419C260.623 744.919 276.423 753.219 350.023 766.019C405.623 775.719 453.823 780.919 491.423 783.819C496.123 766.619 500.823 749.519 505.423 732.319C467.623 720.119 429.923 708.019 392.123 695.819C415.323 690.919 439.723 685.119 465.123 678.019C484.423 672.619 502.823 667.019 520.323 661.119C536.523 628.419 540.023 593.119 523.123 573.119C499.523 545.119 446.623 560.619 416.523 569.519Z" fill="#FF1493"/>
<path opacity="0.29" d="M536.224 604.119C535.724 614.019 534.024 626.719 529.424 640.719C526.624 649.219 523.424 656.619 520.224 662.719C517.524 662.919 514.824 663.219 512.124 663.419C489.324 670.919 465.024 678.019 439.324 684.619C422.724 688.919 406.524 692.619 390.824 696.019C428.724 707.919 466.624 719.719 504.524 731.619C503.724 735.719 502.724 740.019 501.524 744.519C500.124 749.719 498.524 754.519 497.024 758.919C444.724 746.019 392.424 733.119 340.124 720.219C337.724 717.319 329.824 706.819 331.024 692.919C332.324 677.819 346.724 667.119 365.124 657.319C418.324 629.119 507.524 610.019 536.224 604.119Z" fill="#6D6C6C"/>
<path opacity="0.24" d="M363.924 698.119C373.424 697.419 383.024 696.719 392.524 695.919C429.824 708.319 467.124 720.819 504.424 733.219C502.824 739.119 501.224 745.119 499.624 751.019C454.424 733.319 409.124 715.719 363.924 698.119Z" fill="#6D6C6C"/>
<path d="M402.424 342.919C417.224 334.219 442.924 321.819 477.124 318.219C529.524 312.719 569.724 331.519 585.624 340.019C582.724 379.319 578.224 410.719 574.624 432.319C570.324 458.119 566.824 472.419 565.224 496.119C563.224 525.819 565.724 550.219 568.024 566.219C550.624 571.619 524.324 577.519 491.924 576.819C460.724 576.119 435.524 569.319 418.624 563.419C423.124 527.619 421.624 499.219 419.424 479.919C416.924 458.419 413.524 447.919 409.424 421.919C404.124 388.319 402.724 360.819 402.424 342.919Z" fill="white" stroke="#161616" stroke-width="2" stroke-miterlimit="10"/>
<path opacity="0.14" d="M510.623 330.119C512.723 337.719 515.123 348.219 516.723 360.819C517.823 369.319 522.323 407.819 508.323 458.619C499.723 489.919 490.623 523.019 460.823 550.219C451.223 559.019 441.923 564.919 435.123 568.619C450.223 572.519 469.923 576.219 493.223 576.419C523.723 576.719 548.923 571.219 566.423 565.819C565.423 558.319 564.123 547.019 563.623 533.419C563.223 521.519 563.223 502.519 571.423 449.019C577.923 406.919 582.523 388.819 584.823 350.719C585.123 346.319 585.223 342.619 585.423 340.119C578.123 335.819 568.623 331.119 556.923 327.319C546.123 323.819 536.423 322.019 528.423 321.219C522.623 324.119 516.623 327.119 510.623 330.119Z" fill="#6D6C6C"/>
<path opacity="0.17" d="M582.522 356.419C576.922 388.119 569.522 413.719 563.722 431.519C546.722 483.519 534.822 518.519 502.722 544.119C482.822 560.019 462.122 566.719 448.822 569.919C462.322 573.719 481.422 577.419 504.522 576.919C531.122 576.319 552.622 570.319 566.722 565.219C564.822 553.019 562.622 534.719 563.222 512.419C563.922 483.519 568.622 466.119 573.822 434.419C576.722 415.819 580.422 389.219 582.522 356.419Z" fill="#6D6C6C"/>
<path d="M401.822 342.419C388.822 351.419 372.122 365.619 357.522 386.719C324.622 434.519 325.522 485.219 326.822 503.919C332.822 520.019 343.123 541.119 361.123 561.819C371.623 573.919 387.022 591.319 413.322 602.519C422.122 606.319 429.822 608.419 435.422 609.619C440.222 605.319 444.922 601.019 449.722 596.719C434.322 578.719 418.822 559.819 403.322 540.319C391.422 525.419 380.022 510.619 369.022 496.019C369.422 483.719 372.022 461.419 385.422 438.119C393.022 424.919 401.922 415.319 409.022 408.819C406.622 386.719 404.222 364.619 401.822 342.419Z" fill="white" stroke="#161616" stroke-width="2" stroke-miterlimit="10"/>
<path opacity="0.13" d="M403.724 364.719C374.924 397.219 361.224 428.019 354.424 447.419C342.524 481.019 345.023 498.619 346.823 507.019C348.323 513.619 351.624 524.919 363.724 542.119C374.224 557.019 396.324 583.719 438.424 605.719C442.124 602.119 445.823 598.619 449.523 595.019C437.623 581.619 425.623 567.519 413.523 552.819C397.623 533.519 382.824 514.519 369.124 495.919C369.524 485.819 371.224 471.719 377.124 455.919C386.024 432.219 400.024 416.619 408.724 408.319C406.924 393.819 405.324 379.319 403.724 364.719Z" fill="#6D6C6C"/>
<path opacity="0.16" d="M369.023 497.219C370.823 508.919 374.523 523.819 382.323 539.919C399.523 574.919 426.423 594.219 440.123 602.619C442.823 600.219 445.423 597.919 448.123 595.519C421.723 562.719 395.423 529.919 369.023 497.219Z" fill="#6D6C6C"/>
<path d="M587.122 340.619C601.722 349.519 620.522 363.419 636.822 384.119C673.822 431.019 672.722 480.819 671.322 499.219C664.522 515.019 653.022 535.719 632.822 556.119C621.022 567.919 603.722 585.019 574.222 596.119C564.322 599.819 555.622 601.919 549.322 603.119C544.022 598.919 538.622 594.719 533.322 590.519C550.522 572.819 568.022 554.319 585.422 535.119C598.722 520.419 611.522 505.919 623.922 491.619C623.422 479.619 620.622 457.719 605.522 434.719C596.922 421.719 587.022 412.319 579.022 405.919C581.822 384.119 584.522 362.419 587.122 340.619Z" fill="white" stroke="#161616" stroke-width="2" stroke-miterlimit="10"/>
<path opacity="0.16" d="M586.424 364.919C599.124 378.219 616.424 399.519 629.924 429.219C636.324 443.319 646.724 466.219 646.924 487.819C647.624 553.519 554.624 598.719 549.224 601.319C543.924 597.919 538.724 594.619 533.424 591.219C563.524 558.219 593.524 525.219 623.624 492.219C623.024 481.419 620.524 461.319 608.524 439.919C598.624 422.319 586.324 410.919 578.224 404.619C581.024 391.419 583.724 378.219 586.424 364.919Z" fill="#6D6C6C"/>
<path opacity="0.12" d="M624.623 492.519C623.123 501.219 620.623 510.719 616.723 520.519C599.123 564.919 563.523 589.219 545.523 599.619C541.223 596.819 537.023 594.019 532.723 591.219C563.323 558.319 593.923 525.419 624.623 492.519Z" fill="#6D6C6C"/>
<path d="M610.125 499.919H364.225V655.619H610.125V499.919Z" fill="white" stroke="#161616" stroke-width="2" stroke-miterlimit="10"/>
<path d="M483.623 592.619C470.623 594.219 464.323 578.419 467.723 567.919C471.023 557.519 483.323 552.619 493.323 556.219C503.223 559.819 508.023 571.919 504.523 581.619C500.623 592.419 487.023 596.819 477.023 592.019C475.323 591.219 473.723 593.819 475.523 594.619C484.423 598.919 495.323 597.319 502.423 590.319C509.323 583.419 510.323 572.519 506.023 564.019C496.223 544.619 465.923 550.819 463.823 572.119C462.723 583.519 470.923 597.219 483.623 595.719C485.523 595.419 485.523 592.419 483.623 592.619Z" fill="#161616"/>
<path opacity="0.14" d="M456.525 499.519C489.825 511.119 512.525 540.819 513.225 572.719C514.125 612.719 480.525 650.319 434.725 654.119C493.025 654.619 551.325 655.119 609.725 655.619C609.525 603.419 609.425 551.219 609.225 499.119C558.325 499.119 507.425 499.319 456.525 499.519Z" fill="#6D6C6C"/>
<path opacity="0.26" d="M609.723 499.019C608.823 530.819 602.523 555.619 597.223 571.919C589.423 595.619 583.823 612.919 567.723 628.219C545.823 649.219 518.523 653.119 506.523 654.119C540.623 654.419 574.723 654.719 608.823 655.119C608.923 625.419 609.123 595.719 609.323 565.919C609.323 543.619 609.523 521.319 609.723 499.019Z" fill="#6D6C6C"/>
<path d="M479.923 262.219C474.423 268.919 479.723 277.119 478.723 299.019C478.223 309.919 476.423 318.719 475.023 324.619C479.723 326.819 488.023 329.919 498.723 330.219C511.923 330.519 521.923 326.419 526.823 324.019C524.623 319.619 521.723 312.819 519.923 304.019C515.423 281.619 523.423 271.119 516.823 262.819C509.123 253.219 487.323 253.119 479.923 262.219Z" fill="white" stroke="#161616" stroke-width="2" stroke-miterlimit="10"/>
<path d="M445.024 166.019C438.724 182.219 441.124 196.819 442.524 203.119C441.924 203.219 430.224 205.719 427.024 214.719C423.824 223.819 430.424 236.719 444.224 240.919C449.224 253.119 461.324 276.719 486.824 289.619C491.124 291.719 495.224 293.419 499.324 294.619C503.024 293.219 508.024 291.019 513.724 287.719C531.524 277.419 541.424 264.619 543.724 261.519C547.924 255.919 553.624 246.919 557.624 234.519C559.824 234.919 563.724 235.119 567.524 233.219C576.124 228.819 580.424 215.119 574.424 206.219C569.424 198.819 559.724 198.519 558.524 198.519C559.824 193.319 563.824 174.619 553.724 156.119C542.124 134.819 517.224 123.619 493.824 126.819C459.224 131.319 445.624 164.419 445.024 166.019Z" fill="white" stroke="#161616" stroke-width="2" stroke-miterlimit="10"/>
<path d="M478.624 288.719C484.724 292.319 491.424 297.919 498.924 297.319C505.124 296.819 512.024 293.219 516.724 289.419C518.224 288.219 516.124 286.119 514.624 287.319C510.224 290.819 503.124 294.519 497.324 294.419C491.224 294.319 485.024 289.219 480.024 286.119C478.524 285.119 477.024 287.719 478.624 288.719Z" fill="#161616"/>
<path d="M478.223 290.019C483.923 294.919 490.423 300.419 498.423 300.019C506.223 299.619 513.523 294.419 518.623 288.819C519.923 287.419 517.823 285.319 516.523 286.719C512.123 291.519 505.923 296.219 499.123 296.919C491.623 297.619 485.623 292.519 480.323 287.919C478.923 286.619 476.823 288.719 478.223 290.019Z" fill="#161616"/>
<path d="M482.022 290.619C482.022 290.519 482.022 290.519 482.022 290.619C481.422 289.719 480.323 289.519 479.623 290.219C479.623 290.219 479.622 290.219 479.522 290.319C478.922 290.819 478.922 291.919 479.522 292.419C490.522 302.919 510.723 306.319 518.623 290.219C519.423 288.519 516.922 286.919 516.022 288.719C509.022 303.119 491.322 299.619 481.722 290.319C481.722 291.019 481.722 291.719 481.722 292.419C481.722 292.419 481.722 292.419 481.822 292.319C481.022 292.219 480.223 292.119 479.423 292.019V292.119C480.423 293.719 483.022 292.219 482.022 290.619Z" fill="#161616"/>
<path d="M494.024 198.119C492.724 214.319 493.424 230.419 496.024 246.419C496.124 247.219 497.124 247.719 497.824 247.419C501.724 246.119 504.524 243.819 506.624 240.319C507.624 238.619 505.024 237.119 504.024 238.819C502.324 241.719 500.224 243.419 497.024 244.519C497.624 244.819 498.224 245.219 498.824 245.519C496.224 229.819 495.624 213.919 496.924 198.019C497.224 196.119 494.224 196.119 494.024 198.119Z" fill="#161616"/>
<path d="M476.222 214.019C476.422 214.919 477.922 220.519 476.222 221.419C474.522 222.319 469.722 218.719 468.222 214.019C467.022 210.019 468.023 205.019 469.923 204.619C471.923 204.119 475.022 209.619 476.222 214.019Z" fill="#161616" stroke="#161616" stroke-miterlimit="10"/>
<path d="M527.824 214.019C528.024 214.919 529.524 220.519 527.824 221.419C526.124 222.319 521.324 218.719 519.824 214.019C518.624 210.019 519.624 205.019 521.524 204.619C523.524 204.119 526.624 209.619 527.824 214.019Z" fill="#161616" stroke="#161616" stroke-miterlimit="10"/>
<path d="M490.425 259.619C502.625 264.819 513.725 257.519 522.725 249.619C524.225 248.319 522.025 246.219 520.625 247.519C512.825 254.319 502.825 261.619 492.025 257.019C490.125 256.319 488.625 258.919 490.425 259.619Z" fill="#161616"/>
<path d="M464.424 196.119C468.224 192.919 473.824 192.819 477.624 195.919C479.124 197.119 481.224 195.019 479.724 193.819C474.524 189.619 467.324 189.619 462.224 194.019C460.824 195.219 463.024 197.319 464.424 196.119Z" fill="#161616"/>
<path d="M513.223 195.019C517.523 191.219 523.623 190.519 528.723 193.219C530.423 194.119 531.923 191.519 530.223 190.619C523.923 187.219 516.423 188.119 511.123 192.919C509.623 194.219 511.723 196.319 513.223 195.019Z" fill="#161616"/>
<path d="M461.323 133.519C455.323 137.219 442.223 145.319 433.323 161.919C424.423 178.419 424.524 194.019 424.924 200.719C410.324 227.019 403.723 250.219 400.523 266.019C395.323 291.119 398.123 300.319 401.723 306.419C410.523 321.419 428.223 325.119 432.523 326.019C454.623 330.719 472.223 319.419 476.223 316.819C477.323 313.519 478.423 309.419 479.023 304.819C480.123 296.919 479.524 290.119 478.624 285.219C473.624 281.119 467.823 275.619 462.223 268.419C453.723 257.419 448.923 246.619 446.223 238.819C437.423 237.919 430.823 231.919 430.223 225.219C429.623 218.919 434.023 210.819 439.823 210.819C444.123 210.819 447.223 215.219 447.823 216.019C451.123 214.119 455.723 210.819 459.823 205.619C465.723 198.119 466.724 191.419 469.424 184.419C472.024 177.619 477.023 168.219 487.823 158.419C498.223 162.119 506.523 165.719 512.223 168.419C530.523 176.919 540.923 181.919 549.023 192.819C553.523 198.819 555.823 204.719 557.023 208.419C566.323 201.319 570.124 203.219 570.924 203.619C576.824 206.919 576.624 225.019 567.424 230.019C563.924 231.919 559.924 231.419 557.424 230.819C554.524 240.919 548.124 257.419 533.424 272.019C528.524 276.919 523.523 280.719 519.023 283.619C518.623 287.319 518.424 292.419 519.424 298.419C520.324 303.919 521.924 308.419 523.424 311.619C547.724 327.619 577.923 324.719 594.323 307.519C608.923 292.119 608.924 268.819 603.424 252.919C598.424 238.419 588.724 229.719 583.924 225.919C585.224 220.319 592.423 187.119 571.523 156.619C566.123 148.719 551.023 129.619 523.823 123.019C495.023 116.019 471.323 127.419 461.323 133.519Z" fill="black"/>
<path opacity="0.17" d="M524.723 174.619C536.023 188.819 539.023 201.919 540.023 208.719C544.123 237.319 527.523 260.519 519.123 272.419C512.223 282.119 505.123 289.019 500.023 293.519C504.423 305.319 508.723 317.019 513.123 328.819C517.623 327.319 522.123 325.819 526.623 324.319C524.523 320.619 522.323 316.019 520.623 310.419C517.523 300.419 517.323 291.619 517.623 285.619C523.123 281.719 529.523 276.419 535.723 269.419C548.123 255.419 554.323 241.019 557.523 231.319C559.523 231.719 563.823 232.219 567.923 229.919C576.523 225.019 575.123 212.819 575.023 212.019C574.723 209.419 574.123 205.219 571.123 203.519C567.623 201.619 561.823 203.419 557.223 208.819C555.823 203.919 551.823 192.619 541.023 183.619C535.023 178.619 528.923 176.019 524.723 174.619Z" fill="#6D6C6C"/>
<path opacity="0.19" d="M495.425 199.019C494.825 198.919 492.825 207.619 486.725 246.019C490.225 246.019 493.725 246.019 497.225 246.019C496.525 240.919 495.725 233.519 495.325 224.519C494.825 209.119 496.025 199.119 495.425 199.019Z" fill="#6D6C6C"/>
<path opacity="0.54" d="M583.325 226.919C581.625 227.919 588.025 236.519 587.125 249.319C586.825 253.319 586.225 262.419 579.025 268.519C578.525 268.919 567.825 277.719 557.225 272.119C550.925 268.819 547.125 261.819 547.325 254.219C544.325 259.819 539.425 267.219 531.725 274.419C526.925 278.919 522.225 282.219 518.125 284.719C517.825 289.119 517.825 295.119 519.425 301.919C520.325 305.619 521.425 308.819 522.525 311.419C525.625 313.419 530.225 316.119 536.225 318.219C540.025 319.519 560.925 326.819 581.325 316.719C584.925 314.919 592.925 310.819 598.725 302.019C599.425 300.919 602.025 297.019 603.925 290.419C610.725 267.819 600.725 247.419 599.825 245.719C594.325 234.619 585.425 225.719 583.325 226.919Z" fill="black"/>
<path opacity="0.35" d="M446.125 239.219C445.225 239.319 447.225 247.519 445.025 255.619C443.425 261.619 438.325 271.419 429.625 273.419C420.525 275.419 409.225 268.719 404.025 256.219C401.625 261.719 398.425 270.519 397.925 281.719C397.625 289.019 397.225 296.819 400.825 304.519C408.925 321.719 432.725 328.419 450.425 326.819C462.225 325.719 471.125 321.119 475.925 318.019C477.125 314.619 478.325 310.519 479.125 305.819C480.425 297.719 480.125 290.619 479.425 285.419C471.525 279.719 466.125 273.819 462.725 269.519C457.925 263.419 451.425 255.219 448.125 243.819C447.625 242.519 446.725 239.119 446.125 239.219Z" fill="#341999"/>
</g>
<defs>
<clipPath id="clip0_118_581">
<rect width="892" height="942" fill="white"/>
</clipPath>
</defs>
</svg>
